<svg width="294" height="138" viewBox="0 0 294 138" fill="none" xmlns="http://www.w3.org/2000/svg">
<path d="M20.437 36.689C16.1625 36.019 11.9656 34.4054 7.65699 34.4113C5.1911 34.4147 12.5952 33.836 15.015 32.871C16.1505 32.4183 19.2194 29.653 18.4035 31.3362C17.5526 33.0919 15.0046 33.3214 13.941 33.6376C13.3686 33.8078 7.31726 35.8218 10.1814 35.938C13.5669 36.0754 17.0037 35.4664 20.3744 36.3066C22.1861 36.7581 18.6285 37.3879 18.3292 37.4145C16.02 37.6197 13.6939 37.4634 11.3826 37.4666C9.08284 37.4697 8.84982 38.762 8.93051 43.4206C9.04465 50.0097 9.30001 56.542 9.30907 63.1423C9.31133 64.7858 9.31359 66.4293 9.31585 68.0728C9.31897 70.3484 9.09119 63.5433 9.01706 61.2725C8.80997 54.9287 8.70338 48.5699 8.45336 42.2311C8.02138 31.2788 8.6137 44.9608 8.70975 48.2664C9.28319 68.0019 9.34345 88.1688 9.37062 107.942C9.37131 108.443 9.3644 104.952 9.32425 104.287C9.08142 100.262 8.33328 96.581 8.25361 92.472C8.16669 87.989 8.22059 83.484 8.21443 78.998C8.20838 74.596 8.35007 79.7886 8.40336 81.0805C8.68422 87.8901 8.6082 94.7413 8.61758 101.568C8.61994 103.29 8.04374 111.548 8.79851 112.874C9.49831 114.103 12.3713 110.775 13.0953 110.317C14.0664 109.703 17.0449 108.684 16.0288 108.613C13.8288 108.46 11.614 108.619 9.4129 108.622C7.12469 108.625 12.4879 108.618 13.093 108.617C13.7516 108.616 16.7986 108.591 16.5043 108.655C15.608 108.85 14.5134 109.206 13.7153 110.146C13.4242 110.489 15.7206 110.909 16.0733 110.908" stroke="black" stroke-width="3" stroke-linecap="round"/>
<path d="M273.156 105.009C277.201 105.836 281.143 107.661 285.241 107.773C287.586 107.837 280.527 108.247 278.197 109.203C277.103 109.652 274.101 112.497 274.928 110.736C275.79 108.899 278.22 108.726 279.241 108.42C279.791 108.256 285.607 106.288 282.887 106.086C279.671 105.848 276.384 106.399 273.204 105.416C271.495 104.888 274.897 104.318 275.183 104.298C277.385 104.144 279.592 104.374 281.79 104.434C283.978 104.494 284.238 103.131 284.303 98.1927C284.394 91.2083 284.349 84.2803 284.54 77.287C284.587 75.5456 284.635 73.8042 284.683 72.0628C284.748 69.6517 284.759 76.8681 284.761 79.2761C284.766 86.003 284.675 92.7432 284.72 99.4661C284.8 111.082 284.651 96.5695 284.659 93.0645C284.711 72.1388 285.265 50.7702 285.837 29.8193C285.852 29.289 285.753 32.9874 285.771 33.6935C285.88 37.9641 286.48 41.8851 286.431 46.2408C286.378 50.993 286.191 55.7646 286.061 60.5177C285.933 65.1819 285.956 59.6764 285.944 58.3061C285.883 51.0836 286.163 43.8268 286.361 36.594C286.41 34.7691 287.208 26.0356 286.531 24.6102C285.902 23.2886 283.069 26.7351 282.367 27.2005C281.425 27.8249 278.561 28.8229 279.526 28.9256C281.613 29.1481 283.724 29.0404 285.818 29.0977C287.994 29.1572 282.893 29.0177 282.318 29.002C281.691 28.9849 278.793 28.9281 279.075 28.8682C279.933 28.686 280.985 28.3388 281.772 27.3646C282.06 27.0092 279.888 26.5018 279.553 26.4926" stroke="black" stroke-width="3" stroke-linecap="round"/>
<path d="M54.611 56.1767C55.1952 53.8656 55.644 51.5325 56.1807 49.2125C56.4801 47.9184 56.7975 47.162 56.2721 49.1264C54.5578 55.536 51.7038 61.664 49.1525 67.7934C45.807 75.8308 42.0229 83.7434 38.9689 91.8868C38.9073 92.0512 37.376 97.5636 37.4792 97.5365C37.8348 97.4431 38.4684 95.632 38.4931 95.5739C39.5451 93.0955 40.5037 90.5774 41.3278 88.0209C43.9389 79.9201 45.3209 71.5283 47.3336 63.2851C48.7089 57.6527 50.0437 51.6633 52.4575 46.3297C52.5937 46.0286 52.9064 45.2987 52.8102 46.1568C52.6227 47.8308 52.3015 49.518 51.9656 51.1669C50.3466 59.1133 47.7803 66.8827 45.1292 74.5581C43.0284 80.6405 40.4926 86.5766 38.408 92.6622C37.6129 94.9833 36.8901 97.3685 36.5257 99.7927C36.4714 100.154 36.7984 99.1118 36.9403 98.7735C37.7778 96.777 38.6672 94.8007 39.5104 92.8063C43.439 83.5147 46.7959 74.043 50.0874 64.5309C52.2695 58.2246 54.4983 51.903 56.1209 45.437C56.2008 45.1184 56.2696 44.7973 56.3436 44.4773C56.3797 44.321 56.4985 43.7793 56.3618 44.4427C56.1343 45.5471 55.8695 46.6437 55.6427 47.7483C54.9818 50.9675 54.2094 54.1524 53.7211 57.4011C53.0359 61.9589 55.1717 48.2952 55.7254 43.7205C55.8901 42.3594 56.0109 40.994 56.17 39.6324C56.1745 39.5938 56.2764 38.2915 56.3088 39.3176C56.509 45.6556 56.7125 51.9886 56.8495 58.3284C57.0888 69.403 57.5033 80.5199 59.3149 91.4907C59.7245 93.9708 60.1903 96.4807 60.9063 98.9035C61.0758 99.477 61.5594 101.031 61.6981 99.462C62.058 95.3909 61.1346 91.1475 60.5053 87.1368C59.503 80.7478 58.1674 74.3723 57.7341 67.9209C57.3633 62.3997 57.5055 56.8473 57.719 51.3267C57.7789 49.7797 57.8499 48.2344 57.9715 46.691C58.0174 46.1076 58.4934 44.5874 58.0001 44.9355C57.514 45.2784 57.959 46.0882 57.9623 46.6649C57.9755 48.9279 57.9601 51.1907 57.9483 53.4534C57.891 64.4806 57.2227 75.6099 59.1431 86.5469C60.0562 91.747 61.438 96.8667 62.2183 102.088C62.4626 103.724 61.3014 101.201 61.077 100.811" stroke="black" stroke-width="2" stroke-linecap="round"/>
<path d="M21.5326 74.322C24.9132 74.041 28.2314 73.5214 31.5897 73.0859C37.4518 72.3257 43.3656 71.9289 49.2638 71.4674C51.573 71.2867 53.8837 71.12 56.1926 70.9361C56.8012 70.8876 58.6195 70.7989 58.0114 70.7333C57.4076 70.6681 56.5259 70.8985 55.9754 70.9784C53.9789 71.2683 51.9822 71.5556 49.9787 71.803C43.88 72.556 37.7545 73.0077 31.594 73.0572C28.6002 73.0813 19.6305 72.668 22.6109 72.9677C25.7094 73.2793 29.0541 72.847 32.1458 72.7112C36.4535 72.5219 40.672 72.4342 44.979 72.6447" stroke="black" stroke-width="2" stroke-linecap="round"/>
<path d="M207.613 55.9959C207.908 53.5025 208.066 51.0023 208.313 48.5052C208.451 47.1124 208.673 46.2813 208.393 48.404C207.481 55.3304 205.403 62.098 203.625 68.8309C201.295 77.6595 198.513 86.4099 196.485 95.3148C196.444 95.4946 195.602 101.458 195.701 101.417C196.043 101.277 196.449 99.302 196.466 99.238C197.205 96.5132 197.846 93.7579 198.35 90.9785C199.944 82.1713 200.283 73.2062 201.266 64.3214C201.937 58.2506 202.525 51.8103 204.264 45.9285C204.362 45.5964 204.582 44.7935 204.593 45.7048C204.612 47.4827 204.501 49.2903 204.371 51.0596C203.742 59.586 202.152 68.0403 200.465 76.4063C199.129 83.0358 197.343 89.5641 196.023 96.1951C195.52 98.7242 195.096 101.312 195.033 103.898C195.023 104.283 195.22 103.151 195.319 102.779C195.904 100.585 196.544 98.4064 197.135 96.2141C199.89 86.0005 202.056 75.6664 204.152 65.2978C205.541 58.4238 206.975 51.528 207.789 44.5535C207.829 44.2098 207.858 43.8649 207.892 43.5205C207.909 43.3523 207.96 42.7699 207.906 43.4821C207.816 44.6673 207.688 45.8489 207.599 47.0344C207.34 50.4892 206.965 53.9213 206.88 57.3863C206.761 62.2477 207.199 47.6643 207.186 42.8009C207.182 41.354 207.133 39.9078 207.124 38.461C207.123 38.4199 207.064 37.0421 207.223 38.1142C208.201 44.7362 209.183 51.3525 210.099 57.9839C211.699 69.5679 213.479 81.1753 216.626 92.462C217.338 95.0136 218.109 97.5896 219.118 100.044C219.357 100.625 220.028 102.197 219.972 100.535C219.829 96.223 218.39 91.8842 217.272 87.7539C215.491 81.1746 213.381 74.6494 212.157 67.9365C211.11 62.1914 210.568 56.3523 210.1 50.5379C209.969 48.9085 209.849 47.2797 209.78 45.6467C209.754 45.0295 210.039 43.3784 209.592 43.8025C209.152 44.2203 209.694 45.0161 209.768 45.6204C210.059 47.9917 210.323 50.3663 210.589 52.7404C211.889 64.3103 212.596 76.0603 215.848 87.2986C217.394 92.642 219.395 97.8448 220.812 103.227C221.256 104.912 219.793 102.406 219.522 102.024" stroke="black" stroke-width="2" stroke-linecap="round"/>
<path d="M192.377 76.4912C194.98 75.7709 197.513 74.8085 200.084 73.9292C204.574 72.3943 209.136 71.2336 213.68 70.0071C215.459 69.527 217.241 69.0612 219.02 68.5777C219.488 68.4502 220.894 68.1282 220.416 68.1361C219.94 68.1439 219.275 68.4963 218.855 68.6494C217.329 69.2046 215.802 69.7571 214.267 70.2687C209.593 71.8259 204.871 73.0707 200.085 73.8987C197.759 74.301 190.747 74.9979 193.092 74.9365C195.53 74.8726 198.091 73.9984 200.483 73.4666C203.815 72.7256 207.087 72.1023 210.455 71.7803" stroke="black" stroke-width="2" stroke-linecap="round"/>
<path d="M64.2396 46.7144C64.2669 47.566 64.5878 48.4442 64.7027 49.2908C65.2258 53.1429 65.2456 56.9978 65.2457 60.8676C65.2458 68.2769 65.7472 75.7408 66.5092 83.127C66.7975 85.9219 67.1817 88.6524 67.2225 91.4579C67.2637 94.2925 67.375 97.0745 67.6693 99.9005C67.6905 100.104 67.7482 102.057 68.2123 101.986C69.0341 101.861 70.2083 100.753 70.8205 100.306C73.9132 98.0446 76.7539 95.8129 78.0904 92.2938C79.3527 88.9703 79.9155 85.1656 80.4489 81.6879C81.2471 76.4829 81.1856 71.0632 79.4043 66.0007C77.5211 60.6485 74.8676 55.5491 70.7853 51.2729C68.1928 48.5573 65.1005 46.8726 61.8617 44.9589C61.5871 44.7967 60.2198 43.8803 61.3059 44.4687C62.5037 45.1175 63.7269 45.7915 64.8385 46.5604C67.9346 48.7021 71.1128 50.8132 73.9238 53.2735C77.151 56.0982 79.2692 59.3497 80.5552 63.2304C82.3063 68.5149 83.5871 73.7665 83.2465 79.2868C83.1031 81.6121 82.9919 83.9114 82.1065 86.1131C81.2609 88.2159 79.7532 89.962 78.6554 91.9433C77.6935 93.6794 77.2487 95.6626 75.7901 97.1117C74.7301 98.1648 73.7236 99.3041 72.7094 100.4C72.2522 100.894 71.8083 101.643 71.2129 102.004C70.5358 102.414 69.5261 102.604 68.7745 102.908C68.0825 103.188 67.913 103.267 67.9033 102.559C67.8927 101.791 67.8251 100.993 67.7415 100.229C67.4408 97.4805 67.0742 94.7335 66.8225 91.9812C66.35 86.8149 66.0424 81.6586 65.7299 76.4849C65.4157 71.2843 64.3053 66.1022 63.4983 60.9447C63.0097 57.8218 62.6831 54.5323 61.7781 51.4785C61.2076 49.5532 60.5794 47.641 60.2843 45.6622C60.1571 44.8091 59.9337 42.2351 60.0446 43.09C60.382 45.6913 61.5098 48.2876 62.0542 50.8714C63.1565 56.1029 63.4672 61.3307 63.9659 66.6167C64.4265 71.4978 63.9999 76.3589 64.1516 81.2434C64.2543 84.5541 63.9712 87.8754 64.2392 91.1826C64.4009 93.1779 64.7227 95.1573 64.8873 97.1472C65.0569 99.1978 65.8102 101.39 66.3787 103.352" stroke="black" stroke-width="2" stroke-linecap="round"/>
<path d="M88.1318 47.6549C88.0756 48.4811 88.309 49.3608 88.3405 50.1905C88.4841 53.9657 88.1262 57.6963 87.7472 61.4393C87.0217 68.6061 86.7899 75.8728 86.8251 83.0889C86.8384 85.8195 86.9535 88.4968 86.7193 91.2143C86.4827 93.9599 86.321 96.6614 86.3373 99.4225C86.3384 99.6214 86.2046 101.515 86.6737 101.491C87.504 101.448 88.7816 100.487 89.4349 100.111C92.7356 98.2159 95.7824 96.325 97.4578 93.047C99.04 89.9514 99.973 86.3243 100.845 83.0107C102.149 78.0514 102.619 72.8034 101.341 67.7388C99.9904 62.3843 97.8479 57.2018 94.2023 52.681C91.8872 49.81 88.9734 47.889 85.9362 45.7327C85.6787 45.5499 84.4071 44.5347 85.4309 45.2062C86.5599 45.9467 87.7117 46.7138 88.7432 47.5623C91.6159 49.9257 94.5734 52.2671 97.1311 54.9118C100.068 57.9481 101.858 61.2928 102.758 65.1677C103.984 70.4441 104.745 75.6445 103.865 80.9519C103.495 83.1875 103.159 85.4011 102.062 87.4473C101.014 89.4015 99.3416 90.9483 98.0546 92.7613C96.9269 94.3499 96.2897 96.2262 94.6956 97.4904C93.5372 98.4092 92.4235 99.4162 91.3064 100.381C90.8028 100.815 90.2875 101.498 89.6594 101.791C88.945 102.123 87.9212 102.212 87.143 102.436C86.4266 102.642 86.2502 102.701 86.3099 102.016C86.3745 101.272 86.3853 100.494 86.377 99.747C86.3468 97.0602 86.2509 94.3686 86.2698 91.6828C86.3054 86.6411 86.5041 81.6247 86.6997 76.5909C86.8963 71.531 86.2983 66.414 86 61.3492C85.8194 58.2826 85.8163 55.0701 85.2145 52.0309C84.835 50.1149 84.3968 48.2062 84.2968 46.2643C84.2537 45.4271 84.2834 42.9164 84.3101 43.7537C84.3913 46.3017 85.2598 48.9193 85.5488 51.4698C86.1339 56.6338 85.9312 61.7197 85.91 66.8797C85.8905 71.6443 84.9897 76.306 84.6623 81.0448C84.4403 84.2568 83.8331 87.4427 83.776 90.6669C83.7416 92.612 83.8681 94.5569 83.8371 96.4972C83.8052 98.4967 84.3404 100.688 84.7143 102.639" stroke="black" stroke-width="2" stroke-linecap="round"/>
<path d="M126.357 43.9969C126.013 45.2764 126.11 46.8645 126.104 48.1881C126.076 54.1323 125.874 60.0956 125.886 66.0345C125.903 73.815 126.205 81.5602 126.357 89.3174C126.425 92.752 126.35 96.1945 126.402 99.628C126.409 100.054 126.401 105.633 126.599 105.646C126.939 105.669 127.133 97.3226 127.135 96.9465C127.17 88.9992 126.291 81.2398 125.899 73.3997C125.563 66.688 125.592 59.9528 125.811 53.1568C125.899 50.4475 126.052 47.7273 126.107 45.0203C126.169 41.9168 126.211 45.7338 126.231 46.6836C126.417 55.3662 126.501 64.0618 126.74 72.7349C126.951 80.446 127.399 88.0889 127.638 95.7863C127.712 98.1982 127.447 100.24 127.291 102.572C127.28 102.742 127.296 103.812 127.37 103.109C127.599 100.93 127.539 98.6398 127.552 96.4661C127.611 86.0663 128.374 75.7164 127.901 65.3657C127.623 59.2875 127.581 53.0491 127.174 47.0186C127.096 45.8654 126.983 44.6379 126.807 43.5305C126.711 42.9286 125.547 44.3486 125.352 44.5087C122.623 46.7515 119.517 48.2197 116.576 48.0227C115.419 47.9452 117.188 47.4046 117.448 47.2773C121.347 45.373 125.363 44.4664 129.323 43.439C133.935 42.2422 138.552 41.1566 143.175 40.2887C143.615 40.206 144.853 40.3327 144.493 39.9397C144.186 39.6043 142.844 40.5472 142.569 40.6619C138.532 42.3454 134.395 42.9309 130.317 43.5056C126.397 44.058 122.457 44.6281 118.549 44.5378C118.083 44.527 117.599 44.7181 117.125 44.7615C115.772 44.885 114.423 44.6869 113.081 44.597" stroke="black" stroke-width="2" stroke-linecap="round"/>
<path d="M249.016 46.9951C248.672 48.2746 248.768 49.8626 248.762 51.1862C248.735 57.1305 248.533 63.0937 248.545 69.0327C248.561 76.8131 248.863 84.5584 249.016 92.3155C249.084 95.7501 249.009 99.1926 249.061 102.626C249.067 103.052 249.06 108.631 249.258 108.644C249.598 108.667 249.792 100.321 249.794 99.9446C249.829 91.9974 248.95 84.238 248.558 76.3978C248.222 69.6862 248.251 62.9509 248.47 56.155C248.557 53.4457 248.711 50.7254 248.765 48.0185C248.828 44.915 248.87 48.7319 248.89 49.6817C249.075 58.3644 249.16 67.0599 249.398 75.7331C249.61 83.4442 250.058 91.087 250.296 98.7844C250.371 101.196 250.106 103.238 249.95 105.57C249.938 105.74 249.954 106.81 250.029 106.107C250.258 103.928 250.198 101.638 250.21 99.4643C250.27 89.0644 251.033 78.7146 250.56 68.3639C250.282 62.2857 250.24 56.0473 249.832 50.0167C249.754 48.8635 249.642 47.6361 249.466 46.5287C249.37 45.9267 248.205 47.3467 248.01 47.5069C245.282 49.7496 242.175 51.2178 239.234 51.0208C238.077 50.9433 239.847 50.4027 240.107 50.2755C244.006 48.3712 248.022 47.4646 251.981 46.4372C256.594 45.2404 261.211 44.1548 265.833 43.2869C266.274 43.2042 267.512 43.3309 267.152 42.9379C266.845 42.6024 265.503 43.5454 265.228 43.6601C261.191 45.3435 257.054 45.929 252.975 46.5038C249.055 47.0561 245.115 47.6262 241.208 47.5359C240.741 47.5251 240.258 47.7163 239.783 47.7596C238.431 47.8831 237.082 47.6851 235.74 47.5952" stroke="black" stroke-width="2" stroke-linecap="round"/>
<path d="M142.63 44.4171C140.696 50.0691 138.358 55.4844 136.946 61.3182C134.196 72.6844 134.237 85.3027 139.413 96.1216C139.988 97.3215 142.165 102.935 144.278 102.298C145.947 101.795 147.392 100.49 148.455 99.2311C152.137 94.8678 153.907 89.0704 155.066 83.6844C156.44 77.2953 156.323 71.3329 154.11 65.0977C152.185 59.6727 149.083 54.7129 145.736 49.9772C144.589 48.3552 143.591 46.6323 142.341 45.0751C141.867 44.4847 141.571 44.1245 141.089 44.8862C139.752 46.9967 138.896 49.4858 138.235 51.8546C135.815 60.5268 135.435 69.9858 135.639 78.9213C135.8 85.9844 137.021 93.1314 139.366 99.8628C139.969 101.593 140.648 103.217 142.659 103.519C155.179 105.4 158.454 88.9054 158.051 80.3666C157.696 72.8506 154.79 65.2023 152.192 58.1162C151.021 54.9211 149.863 51.3578 147.31 48.8688C146.57 48.1464 145.311 47.7725 144.42 47.2829C143.794 46.939 141.836 45.1223 141.461 45.9488" stroke="black" stroke-width="2" stroke-linecap="round"/>
<path d="M183.966 98.847C184.146 99.7775 184.92 100.453 185.797 100.796C188.092 101.694 190.154 100.551 191.302 98.6123C193.568 94.7835 194.799 89.9083 195.807 85.6406C196.049 84.6142 196.29 83.5827 196.457 82.5417C196.458 82.5305 195.936 84.6149 195.822 85.0517C194.575 89.8493 193.623 99.7856 186.6 99.8857C185.456 99.902 183.156 100.264 182.219 99.3994C181.717 98.9361 181.481 98.0483 181.224 97.4608C180.368 95.5033 179.799 93.4925 179.296 91.4323C178.204 86.9609 177.991 82.6204 177.68 78.062C177.258 71.8862 176.78 65.8045 177.693 59.6502C178.466 54.4386 179.561 49.1784 180.76 44.0409C181.206 42.1308 181.661 40.2111 183.492 39.1414C184.363 38.6325 186.663 36.8856 187.583 37.8839C190.121 40.6362 191.522 44.9184 192.854 48.2998C194.147 51.5819 195.041 54.8809 195.808 58.2997C196.091 59.5611 196.252 61.371 196.307 59.0705C196.383 55.8894 195.2 52.7774 194.092 49.8122C192.673 46.0135 190.644 42.4739 188.675 38.91C187.654 37.0624 185.927 37.914 184.224 38.5778C182.692 39.1746 181.495 39.9258 181.048 41.5303C180.326 44.1221 179.467 46.5866 178.612 49.1384C177.572 52.2459 177.609 55.6664 176.956 58.8634C176.151 62.804 175.592 66.7806 175.606 70.8098C175.618 74.0844 175.935 77.3871 176.046 80.664C176.209 85.4827 176.442 90.4081 178.77 94.812C180.174 97.4669 182.014 99.8809 184.919 101.055C187.95 102.28 190.304 101.443 192.136 98.8384C193.812 96.4547 194.968 91.7786 193.89 88.893" stroke="black" stroke-width="2" stroke-linecap="round"/>
<path d="M217.301 42.1634C217.552 44.5009 218.099 46.8504 218.433 49.1824C219.629 57.5314 221.084 65.8457 222.163 74.2093C223.288 82.925 224.709 91.6388 225.625 100.376C225.672 100.825 225.799 100.976 225.99 101.353C226.089 101.549 226.044 99.3342 226.037 99.2233C225.276 86.617 220.16 74.7046 218.08 62.3187C217.076 56.3411 217.258 50.0735 217.605 44.0444C217.704 42.3344 217.608 44.6521 217.633 45.0673C217.86 48.8592 218.548 52.6588 219.29 56.387C220.641 63.1772 222.438 69.8765 224.084 76.6069C225.087 80.7112 226.155 84.8768 226.333 89.1008C226.437 91.5897 225.68 93.8492 225.515 96.3067C225.445 97.3506 225.181 98.9209 225.655 99.9238C225.762 100.149 225.736 99.438 225.752 99.1929C225.817 98.2254 225.879 97.2568 225.899 96.2871C226.133 85.1765 223.543 73.9596 221.281 63.1003C220.131 57.5837 218.507 52.138 217.603 46.5855C217.495 45.9237 216.514 43.636 216.834 43.0625C216.978 42.8038 220.43 44.1001 220.706 44.184C226.731 46.0212 232.525 48.1217 237.24 52.3253C240.352 55.1002 241.974 57.7441 240.018 61.5646C238.36 64.8033 234.883 67.0042 232.061 69.2907C231.005 70.146 229.834 70.8449 228.723 71.631C228.297 71.9321 227.904 72.4411 227.434 72.6565C227.06 72.8279 226.636 73.0623 226.291 73.2946C225.588 73.7682 224.994 73.6724 226.339 73.8197C233.101 74.5598 238.765 78.4336 240.502 84.8653C241.916 90.1002 242.581 95.4976 244.033 100.724C244.109 100.998 244.702 102.939 244.409 101.532C244.182 100.44 243.747 99.3805 243.454 98.3025C242.487 94.7532 241.662 91.1653 240.956 87.5617C240.428 84.8718 239.928 81.3354 237.952 79.1923C235.91 76.978 232.057 76.1428 229.38 74.8516C227.817 74.0976 227.585 73.6344 226.12 74.5992C225.247 75.1737 226.225 74.5833 226.587 74.4149C228.128 73.698 229.653 72.9624 231.053 72.014C233.049 70.6619 234.639 69.1249 236.175 67.3313C237.06 66.2988 238.211 65.3229 238.842 64.1179C239.648 62.5789 239.675 60.5526 239.287 58.9063C238.422 55.2355 236.856 51.7481 233.555 49.4806C229.77 46.8794 225.397 45.3235 221.195 43.4794C220.778 43.2964 219.401 42.1505 219.23 42.2927" stroke="black" stroke-width="2" stroke-linecap="round"/>
</svg>
