<svg width="82" height="79" viewBox="0 0 82 79" fill="none" xmlns="http://www.w3.org/2000/svg">
<path d="M1 1C2.46085 2.18694 4.30501 3.01655 5.99761 3.8011C7.67437 4.57831 9.39207 5.23863 11.1339 5.85339C11.7713 6.07836 12.6792 6.24612 13.2638 6.62439C14.4074 7.36435 10.7089 5.67686 9.45322 5.14896C7.89572 4.49414 6.34448 3.82867 4.81615 3.10776C4.3175 2.87254 3.98824 2.71374 3.51822 2.46434C3.39696 2.4 3.09638 2.15031 3.15213 2.27575C3.27204 2.54554 3.94207 2.90142 4.1339 3.01346C5.24938 3.66498 6.48744 4.11792 7.71155 4.51663C8.61792 4.81185 9.53966 5.05842 10.4794 5.22106C10.6178 5.24503 10.7554 5.28216 10.5792 5.20442C9.25783 4.62146 11.9318 5.83097 9.75275 4.84943C7.40995 3.79412 5.03089 2.85934 2.65293 1.88748C2.38119 1.77642 2.11982 1.63532 1.83756 1.55467C1.64569 1.49985 1.75685 1.62116 1.83201 1.70998C2.45691 2.4485 3.42478 2.94922 4.25593 3.40174C6.48003 4.61264 8.86164 5.52122 11.3391 6.04753C12.1335 6.21628 12.6385 6.55577 13.2583 7.09031C13.2786 7.10781 14.0534 7.80438 13.9572 7.46749C13.8383 7.05137 13.663 6.65698 13.5578 6.23612C13.5553 6.22614 13.4781 6.03483 13.5634 6.15292C13.9752 6.72318 14.2058 7.48377 14.4564 8.12755C15.9155 11.8764 17.2094 15.6725 18.8272 19.3597C19.1812 20.1664 19.5399 20.9717 19.9421 21.7559C19.9673 21.805 20.0475 21.9386 20.0475 21.8835C20.0475 21.7633 19.9589 21.3206 19.9532 21.29C19.4165 18.4052 18.7313 15.546 17.9841 12.7092C17.5037 10.8852 16.8814 9.12828 16.2424 7.35656C16.0256 6.75526 16.2247 7.32427 16.309 7.54515C16.8576 8.98229 17.3064 10.4518 17.74 11.9271C19.0211 16.2856 20.0368 20.7402 21.5451 25.0285C22.2284 26.9711 23.1745 28.8301 23.7194 30.8192C23.725 30.8396 23.8026 31.1462 23.7472 30.8414C23.6178 30.1301 23.3817 29.4332 23.2036 28.7337C22.2351 24.9306 21.2311 21.1777 19.8367 17.5015C19.3509 16.2207 18.8203 14.9576 18.3557 13.6687C18.2562 13.3926 18.0458 12.7703 18.1505 13.5412C18.3482 14.9968 18.7509 16.4376 19.1156 17.8565C19.888 20.8612 20.7321 23.8475 21.5617 26.8367C22.6579 30.7863 23.8697 34.6914 25.0395 38.618C25.3285 39.5879 25.5915 40.5652 25.8383 41.5466C25.9052 41.8128 25.9337 42.2367 26.0601 42.4896C26.165 42.6992 25.9989 42.0245 25.9825 41.7907C25.9287 41.0251 25.9063 40.2594 25.8383 39.4943C25.6654 37.5515 25.4964 35.6133 25.0839 33.7035C24.73 32.065 25.4412 37.0422 25.7773 38.6845C26.1321 40.4186 26.5252 42.1412 27.1861 43.7875C27.4175 44.3639 27.7265 44.9236 27.8961 45.5236C28.1657 46.4775 28.3519 47.47 28.6061 48.4301C28.7788 49.0825 28.9728 49.7626 29.2551 50.377C29.3707 50.6287 29.4651 50.9508 29.5324 51.2201C29.6792 51.8073 29.9429 51.5547 30.5752 51.564C31.5022 51.5777 32.4266 51.6906 33.3486 51.7748C35.5723 51.9778 37.7956 52.0869 40.0268 52.1686C43.516 52.2964 46.9992 52.472 50.4824 52.7122C52.0951 52.8234 47.2765 52.2657 45.6623 52.1797C41.916 51.9801 38.1307 52.0949 34.408 51.5696C34.2347 51.5451 33.1179 51.4777 32.9159 51.2645C32.801 51.1432 33.2481 51.2218 33.4151 51.2201C33.9587 51.2146 34.5023 51.2146 35.0459 51.2201C40.4458 51.2745 45.8383 51.8915 51.2312 52.152C51.397 52.16 54.2556 52.2649 52.2185 52.1964C50.004 52.1219 47.7959 51.9538 45.5846 51.8192C40.3587 51.5011 35.1271 51.5642 29.8985 51.3422C29.7375 51.3353 29.5762 51.331 29.4159 51.3144C29.2181 51.294 29.1935 51.269 29.3937 51.2201C30.2265 51.017 31.2114 51.1133 32.0506 51.1425C39.2519 51.393 46.4275 52.3381 53.6274 52.7011C55.7772 52.8095 57.9586 52.8181 60.1004 53.0561C60.7529 53.1286 58.7875 53.1157 58.1314 53.0949C51.9111 52.8982 45.719 52.1752 39.4943 51.9856C38.1743 51.9454 36.8545 51.925 35.534 51.919C33.933 51.9117 35.1666 51.9196 35.2123 51.919C35.7548 51.9121 35.6316 51.9142 36.2883 51.8968C41.7147 51.7536 47.1292 52.02 52.5513 52.2185C55.3797 52.3221 58.2082 52.4337 61.0378 52.4959C67.4632 52.6371 58.9227 52.4451 62.5355 52.5181C62.6024 52.5194 62.4024 52.5337 62.3358 52.5402C62.0279 52.5705 60.0825 52.9083 61.2375 53.1393C62.7164 53.4351 64.2761 53.3168 65.7748 53.3168C66.6526 53.3168 67.6285 53.1355 68.4982 53.2225C68.854 53.2581 70.1201 53.3595 70.2842 52.8398C70.547 52.0077 70.6632 51.0812 70.8888 50.2328C71.4943 47.9559 72.2014 45.6756 72.6194 43.3549C72.7069 42.8694 72.6891 42.7622 72.686 43.366C72.6788 44.7451 72.6571 46.1288 72.5418 47.5038C72.3199 50.1489 71.5326 52.3851 70.4784 54.7811C70.0147 55.835 70.51 53.8653 70.556 53.6551C71.2458 50.5099 71.8597 47.36 72.6749 44.2423C73.2322 42.1112 73.7787 40.0072 74.1725 37.8414C74.2681 37.3157 74.1843 38.9104 74.167 39.4444C74.1059 41.3268 73.93 43.2008 73.6123 45.0577C73.2578 47.1293 72.8221 49.2784 72.1091 51.2645C71.5944 52.6982 72.691 48.2702 73.1075 46.8049C74.4143 42.2078 76.0261 37.6461 76.8183 32.9215C77.2522 30.3337 77.3106 22.4538 76.9348 25.0506C76.8047 25.9492 76.8133 26.8763 76.7351 27.7796C76.5566 29.841 76.2431 31.8796 75.7589 33.8921C75.4389 35.222 75.0688 36.5725 74.5497 37.8414C74.2107 38.67 74.4068 37.5008 74.4277 37.3644C75.4362 30.7658 77.9632 24.513 78.9316 17.8954C78.9436 17.8131 78.976 17.3947 78.976 17.8066C78.976 18.6282 78.9641 19.4493 78.9094 20.2694C78.7455 22.7286 78.1571 25.1314 77.2121 27.408C76.6449 28.7744 77.9695 24.5476 78.3381 23.1148C79.056 20.3244 79.9139 17.5386 80.3072 14.6782C80.4267 13.8091 80.47 14.3538 80.2406 14.4786C79.44 14.9142 78.1433 14.8961 77.2898 14.9778C73.912 15.3012 70.5152 15.4856 67.1282 15.6767C60.591 16.0453 53.6656 16.5993 47.2043 15.1664C46.0791 14.9168 47.8473 14.8061 47.9365 14.8003C50.197 14.6519 52.4749 14.9019 54.7257 15.0776C60.0946 15.4966 65.4519 15.7283 70.8278 15.3106C72.6462 15.1693 74.494 15.0471 76.3025 14.7947C77.2293 14.6654 74.4297 14.8067 73.4958 14.8668C70.1609 15.0816 66.8489 15.5492 63.5228 15.8597C58.9532 16.2863 54.3719 16.4925 49.7835 16.553C45.8299 16.6052 41.8698 16.5948 37.9191 16.4199C36.7706 16.3691 33.332 16.121 34.4745 16.248C39.3981 16.795 44.3498 17.1191 49.301 17.2519C52.8089 17.346 56.3196 17.374 59.8287 17.374C60.4795 17.374 61.1391 17.4588 61.7811 17.3518C62.2164 17.2792 60.9018 17.2735 60.461 17.2519C52.2772 16.8523 44.078 17.04 35.889 16.8526C32.9988 16.7864 30.1122 16.6602 27.225 16.5198C26.7129 16.4949 25.7216 16.4621 26.8811 16.4754C31.4937 16.5284 36.09 16.9894 40.7035 17.0578C42.6532 17.0867 44.6108 17.1079 46.5609 17.0689C47.543 17.0492 46.5245 16.8968 46.2613 16.8637C40.7414 16.1688 35.1136 16.1509 29.5657 15.782C27.0102 15.6122 19.3467 15.0764 21.9056 15.183C26.0325 15.355 30.1488 15.6523 34.2804 15.7321C37.0951 15.7865 39.9185 15.8183 42.7336 15.7543C42.9593 15.7492 44.6707 15.734 43.3438 15.5103C37.3229 14.4952 31.0006 14.8333 24.9286 15C23.2013 15.0474 21.2993 14.9589 19.5816 15.2551C18.4519 15.4499 21.8743 15.2698 23.0205 15.2551C28.0604 15.1906 33.1008 15.1189 38.1409 15.0832C38.9877 15.0772 41.5281 15.0776 40.6813 15.0776C39.4074 15.0776 38.1335 15.0776 36.8596 15.0776C30.4513 15.0776 24.043 15.0776 17.6347 15.0776C16.6677 15.0776 13.7667 15.0776 14.7337 15.0776C15.577 15.0776 16.4203 15.1031 17.263 15.1331C18.8609 15.1899 20.4835 15.171 22.0776 15.2773C22.2905 15.2915 21.6586 15.3743 21.4453 15.3771C21.1571 15.3809 20.512 15.6073 20.2472 15.4548C19.8706 15.238 19.6137 14.5326 19.4262 14.1901C18.7739 12.9985 18.1077 11.8136 17.4627 10.618C16.2586 8.38626 15.3375 6.01556 14.1236 3.79001C14.0713 3.69419 13.9261 3.42599 13.9183 3.53486C13.8931 3.88837 14.0204 4.2369 14.0958 4.58319C14.6503 7.1279 15.3744 9.64011 16.1259 12.1323C17.5187 16.7508 19.0712 21.3233 20.6299 25.8882C21.1359 27.3701 19.6576 22.9094 19.0879 21.4508C17.7906 18.1292 16.3781 14.8593 15.1331 11.5166C14.6049 10.0985 14.0549 8.68989 13.4802 7.29C13.2355 6.69414 13.0281 5.84928 12.626 5.32645C12.1077 4.6527 13.2689 6.92117 13.7797 7.60061C14.1297 8.06617 14.5562 8.4659 14.9667 8.87636C15.3047 9.21438 15.1936 9.10248 14.8446 8.84308C12.317 6.96395 9.50696 5.41289 6.64658 4.10617C5.08689 3.39365 3.4777 2.77693 1.8542 2.22583C1.72186 2.18091 1.59041 2.13215 1.45483 2.09825C1.40019 2.08459 1.55721 2.14557 1.61014 2.16481C2.13357 2.35515 2.63408 2.51099 3.17432 2.66957C7.17022 3.84249 11.3091 4.70983 15.3993 5.48731C15.5119 5.50871 15.8477 5.53443 15.7432 5.48731C15.5188 5.38612 14.5932 5.05319 14.4897 5.01584C12.8966 4.44114 11.283 3.93631 9.664 3.44056C8.28506 3.01833 6.90722 2.58645 5.51504 2.20919C5.12232 2.10277 4.20801 1.86946 3.75118 1.78764C3.58722 1.75827 3.23088 1.6446 3.25197 1.80982C3.3234 2.36929 5.01948 3.12775 5.37083 3.31853C7.08861 4.25131 8.90971 4.99593 10.729 5.70363C11.8253 6.13009 12.9641 6.62198 14.1125 6.90172C14.5612 7.01104 13.3161 6.4322 12.9033 6.22502C10.1676 4.85208 7.41631 3.32799 4.50554 2.3534C4.15941 2.23751 3.67744 2.11211 4.16718 2.56418C5.17698 3.4963 6.4652 4.17988 7.64499 4.86053C9.4379 5.8949 11.2722 6.85563 13.0531 7.91123C14.0428 8.49792 15.2533 9.10655 15.9595 10.0578C16.1097 10.2601 16.3691 11.6131 16.1204 11.3058C15.879 11.0077 15.4674 10.0422 15.5935 9.664C15.6849 9.38969 15.8117 10.1997 15.9318 10.4627C16.6289 11.9893 17.3372 13.4876 17.9175 15.0665C19.3781 19.04 20.442 23.1293 21.7226 27.1584C23.2852 32.0749 18.8189 17.2011 18.2725 12.0713C18.2538 11.8956 18.1464 11.3953 18.3224 11.9382C18.9266 13.8009 19.5098 15.6703 20.1085 17.5348C22.5751 25.2159 25.3103 32.8083 27.7796 40.4872C28.024 41.2472 28.2772 42.0153 28.4341 42.8002C28.4603 42.9309 28.4307 42.5328 28.412 42.4008C27.9476 39.1279 26.8509 35.8673 25.927 32.7051C25.104 29.8881 24.2541 27.0726 22.9873 24.4183C22.9403 24.3199 22.7379 23.8937 22.6489 23.7472C22.5572 23.5961 22.5797 23.7085 22.6045 23.8304C22.8847 25.2031 23.4186 26.5673 23.8414 27.8961C25.8381 34.1715 27.7523 40.5012 30.2368 46.6052C30.5134 47.2846 30.8244 47.9591 31.0356 48.6631C31.0743 48.7921 30.987 48.1439 30.9856 48.1361C30.1176 43.3226 27.7099 39.0684 25.7495 34.6576C25.3675 33.7981 25.4917 34.4092 25.5942 35.068C25.9441 37.3165 26.452 39.5377 27.0807 41.7241C27.8115 44.2654 28.6731 46.7628 29.6101 49.2344C29.9413 50.1082 30.3348 50.9892 30.5308 51.9079C30.843 53.3715 29.9111 48.9797 29.6045 47.5149C29.4296 46.6792 29.5407 48.0535 29.6322 48.2915C30.3753 50.2234 32.5664 51.0499 34.3858 51.6029C37.0376 52.4088 39.7547 52.5327 42.4896 52.8398C43.0995 52.9083 43.7118 52.9888 44.32 53.0727C44.5459 53.1039 45.2063 53.2624 44.9967 53.1726C44.1981 52.8303 43.1661 52.702 42.3343 52.4515C38.9238 51.4244 35.5018 50.4846 32.0617 49.5672C31.3133 49.3676 32.5464 49.4671 32.5498 49.4674C33.827 49.5728 35.101 49.7258 36.3771 49.8445C39.1948 50.1068 42.0259 50.1818 44.8414 50.4602C45.9772 50.5726 44.528 50.7368 44.1869 50.8263C43.935 50.8924 42.9333 51.3807 42.9333 51.2146C42.9333 49.0555 43.0653 46.9026 43.0165 44.7415C42.9367 41.2019 42.6023 37.5914 41.4801 34.2138C41.3246 33.746 40.9611 32.3458 40.9365 32.8383C40.9087 33.3938 41.2084 34.104 41.3137 34.6354C42.0883 38.5465 42.5025 42.5654 42.7891 46.5387C42.8802 47.8013 42.9507 49.068 43.011 50.3327C43.0207 50.538 43.0398 51.3025 42.9111 50.5545C42.4222 47.7115 42.0484 44.8421 41.6132 41.9904C41.1382 38.8782 40.6536 35.7672 40.2542 32.6441C39.9184 30.018 39.6769 27.3734 39.2336 24.7622C38.9558 23.1253 37.5513 18.3565 37.7638 20.0031C37.8834 20.9301 38.1367 21.8632 38.324 22.7765C38.8681 25.4304 39.4016 28.0854 39.8771 30.7527C40.958 36.8169 42.0347 42.8848 42.0347 49.0569C42.0347 51.3454 41.8631 44.4814 41.6687 42.2011C41.094 35.4628 40.4526 28.6891 39.3723 22.011C39.0609 20.086 38.7058 18.1669 38.3295 16.2535C38.2009 15.5997 37.9261 13.6499 37.8525 14.3122C37.7147 15.5521 37.8367 16.9064 37.8525 18.145C37.8888 20.9865 38.041 23.82 38.2519 26.6536C38.7206 32.9518 39.5777 39.1986 40.5205 45.4404C40.8194 47.4194 41.519 53.3749 41.4301 51.3754C41.3279 49.0739 41.3273 46.779 41.3802 44.4753C41.5473 37.1979 41.7834 29.9053 41.1362 22.6434C40.9419 20.4635 40.6411 18.2949 40.3152 16.1315C40.2198 15.498 40.1236 14.8985 40.0268 14.2678C39.9962 14.0683 39.987 13.4729 39.9381 13.6687C39.8822 13.8922 39.9796 14.1276 40.0046 14.3565C40.0989 15.2179 40.1809 15.8716 40.3042 16.7527C40.7741 20.1112 41.3066 23.4596 41.7241 26.8256C42.4338 32.5461 42.9401 38.3125 43.2217 44.0704C43.3331 46.3466 43.4325 53.1829 43.4325 50.904C43.4325 45.156 42.7304 39.4348 42.0791 33.7313C41.8326 31.5728 41.5472 29.4078 41.1584 27.2693C40.6373 24.4035 41.7212 33.0691 42.1124 35.9555C42.5682 39.3186 43.0396 42.6876 43.4103 46.0617C43.5339 47.1859 43.1 44.9262 43.0886 44.8636C42.6627 42.5173 42.1585 40.1852 41.6908 37.847C41.3849 36.3173 41.1358 34.3676 39.3779 33.9199C38.2659 33.6366 37.0708 33.6647 35.9333 33.6536C34.2156 33.6369 32.497 33.6629 30.7804 33.5815C29.1878 33.506 24.4324 33.049 26.0269 33.049C28.6394 33.049 31.2604 33.4272 33.8699 33.5482C39.9256 33.8292 46.0112 33.7253 52.0521 34.2693C53.1443 34.3677 54.5587 34.3588 55.6242 34.7241C56.1525 34.9053 54.5075 34.7492 53.9491 34.7463C48.5365 34.7187 43.094 34.3704 37.6972 33.9809C34.8656 33.7765 26.4012 32.8885 29.2384 32.988C30.9317 33.0474 32.648 33.4264 34.3303 33.6037C38.5041 34.0436 42.7005 34.2682 46.8937 34.4191C49.5853 34.5159 52.2767 34.5466 54.9697 34.5466C57.0196 34.5466 54.3525 34.4896 54.2542 34.4856C47.5872 34.219 40.9015 33.8439 34.2527 33.2875C32.0806 33.1058 29.9091 32.889 27.7463 32.6164C27.4184 32.5751 27.0907 32.5312 26.7646 32.4777C26.6393 32.4572 26.4401 32.5124 26.3929 32.3945C26.3511 32.2898 26.6188 32.3863 26.7313 32.3945C27.026 32.4159 27.3199 32.448 27.6132 32.4833C34.1063 33.2637 40.5812 34.0535 47.1045 34.5688C50.3763 34.8273 60.2076 35.3593 56.9277 35.24C52.1438 35.066 47.3939 34.2933 42.6338 33.82C41.4442 33.7017 40.2098 33.6448 39.0284 33.4373C37.3745 33.1468 42.3636 33.8315 44.0316 34.0253C48.331 34.5247 52.6358 34.9157 56.9665 34.946C57.8031 34.9519 57.8 33.5069 57.9539 32.8715C58.7171 29.7189 58.9344 26.4894 59.3073 23.2757C59.4453 22.0862 59.619 20.9043 59.7954 19.7202C59.9237 18.8584 59.926 17.8842 60.1559 17.0412C60.1659 17.0046 60.4033 19.1639 60.4055 19.2044C60.5812 22.4043 60.6089 25.613 60.5775 28.8169C60.5354 33.101 60.3049 37.3477 59.7954 41.6021C59.4634 44.3737 59.0209 47.134 58.7859 49.9166C58.707 50.8503 58.6607 51.7875 58.6139 52.7233C58.6065 52.8722 58.5694 52.4282 58.5585 52.2796C58.4142 50.318 58.9978 48.3059 59.2518 46.3723C60.0022 40.6586 60.0349 34.8545 60.0838 29.0998C60.1259 24.1484 59.7227 19.3248 59.1963 14.412C59.1502 13.9816 59.0846 12.6864 59.152 13.1141C59.4101 14.7541 59.3605 16.4793 59.3405 18.1283C59.2492 25.6852 58.223 33.1246 57.6044 40.6425C57.3383 43.8772 57.2106 53.6171 57.2106 50.3715C57.2106 47.5221 57.4545 44.7586 57.8873 41.9349C58.3646 38.8211 59.0158 35.7689 59.812 32.7218C60.4818 30.1583 61.228 27.608 61.7145 25.0007C62.148 22.6778 62.4959 20.0271 62.0252 17.6735C61.8924 17.0095 61.9032 18.0699 61.9031 18.0728C61.8756 20.0263 61.8004 21.9801 61.6813 23.9302C61.4435 27.8225 61.0723 31.7228 60.4832 35.5783C59.9891 38.8117 59.175 41.9434 58.2867 45.0854C57.7591 46.9514 56.4503 52.6211 56.9333 50.7431C57.3049 49.298 57.2801 47.7474 57.4325 46.2724C57.8668 42.0675 58.5228 37.8917 59.0854 33.7035C59.3124 32.0133 59.4699 30.3124 59.4903 28.6061C59.4962 28.1116 59.6534 26.8648 59.3572 26.404C59.2623 26.2564 59.2693 26.7453 59.2518 26.9199C59.2108 27.3303 59.1139 28.597 59.0909 28.8779C58.8668 31.6236 58.5949 34.3644 58.3033 37.1037C57.862 41.2497 57.1786 45.4182 57.0331 49.5894C57.0053 50.3876 57.0109 51.187 57.0109 51.9856C57.0109 52.1613 57.0109 52.401 57.0109 52.041C57.0109 49.2339 57.1108 46.4283 57.1108 43.6211C57.1108 41.0655 56.9309 38.6554 56.4895 36.1441C56.2937 35.0296 55.7384 34.8907 54.7589 34.3747C53.7662 33.8517 52.7463 33.3786 51.6916 32.9936C51.3371 32.8642 50.3034 32.6058 50.5656 32.8771C51.0436 33.3716 51.9466 33.5087 52.5846 33.5704C54.3637 33.7426 56.1854 33.6641 57.9705 33.7035C63.0264 33.8152 68.0783 33.8478 73.1353 33.8478C74.0701 33.8478 75.0124 33.873 75.9475 33.8478C76.192 33.8411 74.7636 33.531 74.7383 33.526C69.0826 32.4098 63.1442 32.4979 57.4103 32.6164C52.8716 32.7102 48.3392 32.9492 43.7986 32.9492C43.2173 32.9492 44.961 32.9898 45.5403 33.0379C47.7337 33.2203 49.9174 33.4474 52.1187 33.526C57.5216 33.719 62.867 33.2219 68.2486 32.8216C69.8738 32.7007 71.5002 32.5951 73.1297 32.5554C73.2205 32.5532 73.489 32.5479 73.4015 32.572C73.2169 32.6229 72.544 32.7499 72.4863 32.7606C67.6212 33.6588 62.4742 33.5594 57.5545 33.4262C52.1306 33.2793 46.7704 32.5771 41.3636 32.2725C39.3715 32.1603 45.2705 33.1494 47.2598 33.3042C49.5637 33.4834 51.8825 33.5575 54.1932 33.526C54.9741 33.5154 57.2926 33.6113 56.5339 33.4262C55.581 33.1938 54.4023 33.2847 53.4499 33.2709C50.5957 33.2294 47.7393 33.2352 44.8858 33.3153C38.0983 33.5058 31.318 34.0001 24.5292 34.1251C23.5278 34.1435 22.507 34.1732 21.5063 34.0974C21.4629 34.0941 21.3356 34.0758 21.3787 34.0696C21.5105 34.0508 21.6449 34.0585 21.7781 34.0585C22.3767 34.0585 22.9779 34.0845 23.5752 34.114C28.586 34.3612 33.5852 34.6508 38.6013 34.7907C39.2133 34.8078 39.8253 34.8229 40.4373 34.8406C40.8225 34.8518 40.2585 34.8462 40.1655 34.8462C38.7378 34.8462 37.3103 34.8525 35.8834 34.9072C34.4771 34.961 33.0684 35.0429 31.6679 35.1845C31.5799 35.1934 31.3187 35.2344 31.4072 35.2344C31.7661 35.2344 32.1246 35.2083 32.4833 35.1956C36.6488 35.0479 49.1464 34.7218 44.9856 34.9682C44.0146 35.0257 42.9258 35.3444 41.9571 35.2233C41.0145 35.1055 40.0948 34.7667 39.1504 34.6243C36.5693 34.235 34.0764 34.405 31.4904 34.5411C30.754 34.5799 30.0393 34.7807 29.3105 34.8905C28.82 34.9645 28.1406 34.8675 27.9017 35.3454C27.622 35.9047 27.4315 36.0432 26.7812 35.9222C26.4029 35.8519 25.8931 35.7111 25.5609 35.5451" stroke="black" stroke-linecap="round"/>
<path d="M26.9587 57.9095C26.3912 59.1154 27.8818 55.4087 28.362 54.1654C28.8633 52.8674 29.4481 51.6061 29.9816 50.3216C30.4692 49.1478 29.8325 50.686 29.7154 50.9539C29.0414 52.4963 28.3795 54.0425 27.8018 55.6242C27.4814 56.5013 26.7699 59.2115 27.0807 58.331C28.0474 55.592 30.0491 53.3346 31.3628 50.7542C31.7789 49.9368 30.9318 51.3782 30.9301 51.381C29.6853 53.4918 28.2636 55.477 26.6037 57.2827C26.5005 57.3949 24.1453 59.6917 25.4389 58.3754C26.3704 57.4276 27.0901 56.3182 27.7019 55.1417C28.3652 53.8662 28.9198 52.529 29.5268 51.2257C29.5346 51.209 29.7469 50.6242 29.8319 50.5878C30.1081 50.4694 29.6547 51.1628 29.5435 51.442C28.5433 53.9531 27.1552 56.281 25.4333 58.3643C24.698 59.254 23.9083 60.11 23.0094 60.8382C22.7424 61.0544 22.1235 61.6862 22.1108 61.3429C22.1006 61.0669 22.328 60.8335 22.4658 60.5941C22.8903 59.8569 23.3711 59.1537 23.8525 58.4531C25.1425 56.5757 26.5244 54.8202 28.1235 53.1948C28.5695 52.7414 29.0206 52.2792 29.488 51.8469C29.853 51.5093 29.5183 52.0656 29.4769 52.1409C28.3206 54.2456 27.0588 56.3232 25.7606 58.3421C24.6307 60.0993 23.4047 61.7918 22.0997 63.4229C22.0489 63.4865 21.8401 63.7842 22.0054 63.4784C22.2522 63.0219 22.4822 62.5581 22.7099 62.0917C23.6085 60.251 24.5546 58.4534 25.6164 56.7003C26.0441 55.9941 26.4887 55.2979 26.9088 54.587C27.0449 54.3566 27.2883 53.6272 27.3137 53.8937C27.3313 54.0785 27.2372 54.2572 27.1916 54.4372C26.9888 55.2395 26.76 56.0351 26.5427 56.8334C25.9508 59.0074 25.3808 61.1738 24.6512 63.3065C24.5424 63.6245 24.4008 63.9798 24.3628 64.3215C24.3371 64.5533 24.4723 63.8679 24.5403 63.6448C24.9773 62.2115 25.6874 60.8914 26.4373 59.6012C26.712 59.1286 26.9865 58.6547 27.2693 58.1868C27.2957 58.1431 27.3933 58.0253 27.3691 58.0703C26.7522 59.2219 26.1275 60.358 25.572 61.5426C25.1193 62.5078 24.4576 63.5972 24.2796 64.6654C24.1996 65.1453 24.2771 64.7564 24.3184 64.5378C24.3752 64.2377 24.429 63.9477 24.4626 63.6448C24.498 63.3263 25.5865 63.5323 25.7384 63.545C27.6154 63.7014 29.4764 63.9403 31.3628 63.9776C33.5816 64.0216 35.7566 63.8146 37.9523 63.5228C38.5598 63.442 39.1663 63.3619 39.7772 63.312C39.8307 63.3076 39.8843 63.3009 39.938 63.3009C40.094 63.3009 39.6272 63.3287 39.4721 63.3453C36.9341 63.6162 34.409 63.963 31.862 64.1551C28.8913 64.3792 25.92 64.3992 22.9428 64.3992C22.819 64.3992 22.4473 64.3992 22.5712 64.3992C23.2165 64.3992 23.8617 64.3992 24.507 64.3992C33.5327 64.3992 42.5836 64.5953 51.5973 64.0497C52.4353 63.999 54.3873 64.1233 55.2581 63.7225C55.3272 63.6907 55.117 63.6615 55.0418 63.6504C54.6078 63.5863 53.2364 63.5104 52.9784 63.4951C48.1856 63.21 43.3898 63.2011 38.5902 63.2011C35.0551 63.2011 31.508 63.2862 27.9737 63.1955C26.4412 63.1562 31.0391 63.0947 32.572 63.1123C41.8549 63.2193 51.1322 63.3009 60.4166 63.3009C61.9776 63.3009 57.2953 63.2305 55.7351 63.1789C49.7315 62.9802 43.7307 62.7057 37.7304 62.4245C36.1061 62.3484 34.4704 62.3041 32.8493 62.1638C32.7563 62.1558 32.4812 62.1468 32.572 62.125C33.0291 62.0153 33.512 62.1563 33.9808 62.1916C39.5462 62.6101 45.084 63.2203 50.6654 63.434C55.7946 63.6305 60.9373 63.594 66.0631 63.3231C66.385 63.3061 66.7069 63.2868 67.0283 63.2621C67.6309 63.2157 67.3121 63.2127 66.8952 63.2066C65.2943 63.1834 63.6926 63.1948 62.0917 63.1789C57.6845 63.135 53.2744 63.0401 48.8683 63.2011C48.4532 63.2162 47.2108 63.2794 47.6258 63.2954C48.6287 63.3339 49.6403 63.3101 50.6432 63.3231C56.9039 63.404 63.1618 63.4541 69.4189 63.6947C72.306 63.8058 63.6376 63.4011 60.7827 62.957C59.4609 62.7514 63.4572 63.0341 64.7929 63.1068C68.0353 63.2832 71.269 63.4008 74.5164 63.4008C75.0303 63.4008 75.5545 63.4185 76.0695 63.4008C76.4103 63.389 75.3887 63.3572 75.0489 63.3287C72.1905 63.0889 69.3465 62.721 66.4847 62.5133C65.7376 62.4591 65.0113 62.4121 64.266 62.3635C63.9328 62.3418 63.4528 62.5582 63.2676 62.2803C63.0889 62.0123 63.9109 62.2158 64.2327 62.2304C65.3616 62.2817 66.4771 62.4647 67.594 62.6242C70.3542 63.0185 73.0916 63.2802 75.8809 63.3009C75.947 63.3014 77.3139 63.3151 75.8864 63.2954C74.3194 63.2738 72.7542 63.2203 71.1883 63.1567C66.5874 62.9699 61.9933 62.826 57.3881 62.8073C54.7736 62.7966 46.9393 62.9654 49.545 62.7518C52.7045 62.4928 55.9772 62.8747 59.1353 62.9958C63.0548 63.1462 66.9994 63.0982 70.911 63.4008C71.259 63.4277 71.6818 63.3195 71.9482 63.545C71.9811 63.5728 71.8744 63.5948 71.8317 63.6004C71.454 63.6501 70.2586 63.6757 70.0457 63.6781C64.0297 63.7456 57.9925 63.3547 51.9855 63.079C47.1569 62.8575 42.3155 62.6264 37.4975 62.2249C34.7312 61.9943 43.0425 62.5232 45.8065 62.7795C50.4544 63.2106 55.1065 63.5452 59.7621 63.8778C60.1014 63.902 61.117 63.9965 60.7771 63.9832C59.7549 63.9431 58.7287 63.8331 57.7098 63.7558C52.3074 63.3458 46.9003 63.0971 41.4911 62.8017C39.3811 62.6865 37.2726 62.5526 35.1678 62.3635C34.7303 62.3242 33.5534 62.3435 33.0601 62.1028C32.9655 62.0567 33.255 62.0145 33.3596 62.003C34.2736 61.9021 35.2105 61.9163 36.1274 61.9087C38.802 61.8864 41.4742 61.9484 44.148 61.9974C44.2719 61.9997 44.3958 61.998 44.5196 62.003C44.8374 62.0157 43.8836 62.003 43.5656 62.003C42.0661 62.003 40.5667 62.003 39.0672 62.003C35.8299 62.003 32.544 62.1341 29.3216 61.7589C29.0004 61.7215 28.6998 61.5795 28.3842 61.5093C27.9315 61.4087 27.3044 61.6385 26.881 61.7534C26.7432 61.7908 25.8826 62.2082 25.8826 61.892C25.8826 60.8163 26.4157 59.5906 26.9587 58.6971C27.8124 57.2923 28.9893 56.135 30.1647 55.003C30.9614 54.2357 31.9916 53.3758 32.2281 52.2296C32.251 52.1185 31.3509 53.5628 31.2297 53.7383C29.7702 55.8524 28.1552 57.9425 26.3153 59.7399C25.7691 60.2734 25.1733 60.8156 24.4959 61.1821C24.2415 61.3197 24.1023 61.34 24.2741 61.0489C25.0655 59.7075 25.9804 58.399 26.8699 57.1219C27.7361 55.8782 28.7003 54.7128 29.5989 53.4943C30.1399 52.7608 28.7969 55.132 28.4341 55.9681C27.624 57.8352 26.9156 59.7482 26.1433 61.6314C25.7234 62.6551 25.284 63.6879 25.1671 64.7985C25.1645 64.8229 25.1615 64.1238 25.1615 63.9554C25.1615 63.2911 25.0965 63.2527 25.7328 63.4618C26.804 63.8137 27.9152 63.9122 29.0276 64.0442C29.6587 64.1191 29.0017 64.3252 28.7447 64.5878C27.1748 66.1918 26.9191 68.697 25.7717 70.5616C25.6342 70.7849 25.3612 71.495 25.3612 71.2327C25.3612 70.3909 25.6728 69.5031 25.8604 68.6923C26.1077 67.6241 26.3179 66.5291 26.759 65.5196C26.9138 65.1652 27.2623 64.2802 26.9698 65.2423C26.4734 66.8745 26.0857 68.5196 25.8604 70.2121C25.7559 70.9978 25.4589 72.1557 25.6829 72.9522C25.8693 73.6148 25.9591 71.603 26.0601 70.9221C26.218 69.8572 26.389 68.7935 26.5371 67.7272C26.5888 67.3553 26.5598 68.4779 26.5704 68.8532C26.6252 70.784 26.8171 72.7072 27.4634 74.5386C27.6958 75.197 28.4264 77.134 28.3398 76.4411C28.2401 75.6438 27.7091 74.7662 27.3414 74.0782C27.0242 73.4848 26.6802 72.9053 26.3485 72.3199C26.2877 72.2126 26.2294 72.1037 26.1655 71.9982C26.0292 71.7731 26.1163 71.9776 26.171 72.1091C26.866 73.7771 27.9034 75.3356 29.2384 76.5576C29.7744 77.0483 30.374 77.5039 31.0189 77.8445C31.1638 77.921 31.5623 78.0909 31.5014 77.9387C31.218 77.2302 30.3708 76.5243 29.782 76.0972C29.7039 76.0406 28.0645 75.0823 28.0458 75.1709C28.0168 75.309 28.5347 75.7732 28.5672 75.8033C29.0752 76.2721 29.6673 76.6031 30.3089 76.8571C31.9342 77.5006 33.6789 77.753 35.4008 77.9776C36.2537 78.0888 34.5654 77.5565 34.4357 77.5227C33.5267 77.2864 32.4853 77.3267 31.6068 77.0014C31.4247 76.9339 31.995 76.9792 32.1892 76.9792C32.8863 76.9792 33.5833 76.9815 34.2804 76.9792C35.7665 76.9741 37.2476 76.924 38.7288 76.8017C39.6225 76.7279 37.9702 76.8332 37.8746 76.846C36.5118 77.0286 35.1845 77.4436 33.8588 77.7945C32.4032 78.1799 34.0175 77.3879 34.4246 77.1622C35.5934 76.5142 36.7611 75.8778 37.8136 75.0489C37.9796 74.9182 38.877 74.2447 38.8342 74.2835C38.0752 74.9702 37.2616 75.5844 36.3992 76.1361C35.6966 76.5855 33.6549 78.0191 34.2804 77.4673C35.3131 76.556 36.3232 75.6236 37.2756 74.6273C37.7737 74.1063 38.2555 73.571 38.6845 72.9911C38.8142 72.8157 39.1155 72.2502 39.0727 72.4641C38.8927 73.3642 38.3491 74.3021 37.9856 75.1321C37.6911 75.8045 37.3996 76.486 37.0537 77.1345C36.9886 77.2567 36.8168 77.5296 36.9262 77.1678C37.2922 75.9568 37.9258 74.753 38.4626 73.6123C38.8605 72.7668 39.2877 71.9352 39.7273 71.1107C39.7849 71.0025 40.1526 70.1177 40.354 70.0402C40.6287 69.9346 40.3524 70.6302 40.3152 70.9221C40.2137 71.719 40.0826 72.5116 39.938 73.3017C39.8142 73.9783 39.5387 76.0141 39.5387 75.3262C39.5387 72.5608 39.2496 69.703 38.5236 67.0283C38.3733 66.4744 38.1324 65.2815 37.6639 64.8651C37.4793 64.7011 37.827 65.3316 37.9246 65.5584C38.1878 66.1704 38.4786 66.7693 38.7843 67.3611C39.3543 68.4646 39.9593 69.5525 40.5704 70.6337C40.9767 71.3526 39.5104 69.3661 38.9507 68.7589C38.3016 68.0547 37.6504 67.3525 36.9983 66.6511C36.9751 66.6262 35.9851 65.7075 36.0664 65.4974C36.1314 65.3296 38.3237 67.0248 38.4737 67.1504C38.6346 67.2851 40.0411 68.6111 39.3501 67.7272C38.5716 66.7315 37.6039 65.8897 36.5989 65.1313C36.5737 65.1123 35.696 64.4807 35.839 64.6321C36.3609 65.1847 37.1322 65.5775 37.8192 65.8746C38.0532 65.9758 38.7477 66.2779 38.5403 66.1298C38.2522 65.924 37.6872 65.7909 37.381 65.6805C35.5741 65.0288 33.7082 64.5125 31.8065 64.2272C31.1109 64.1229 30.402 64.052 29.6988 64.022C29.5603 64.0161 29.1953 64.0704 29.3049 64.1551C29.7918 64.5313 30.7059 64.4879 31.2796 64.4879C31.9502 64.4879 32.331 64.2146 31.6179 64.7375C30.6337 65.4593 29.7227 66.3277 28.8446 67.1725C28.6067 67.4013 27.8018 68.0455 27.8018 68.4483C27.8018 68.6001 28.0415 68.2587 28.1401 68.1432C28.4619 67.7665 28.766 67.3681 29.0332 66.9507C29.2353 66.6348 30.2018 65.2107 30.0094 64.7874C29.8799 64.5025 29.666 65.3116 29.5157 65.5862C29.0561 66.4261 28.6423 67.2913 28.2899 68.182C27.6459 69.8101 26.9156 71.6957 27.4135 73.4625C27.5958 74.1096 27.6575 72.8503 27.6797 72.7193C27.8973 71.439 28.0897 70.1521 28.3565 68.8809C28.4458 68.4551 28.6703 67.9057 28.656 67.461C28.6457 67.1432 28.2556 67.9657 28.1346 68.2597C27.4955 69.8119 27.2406 71.5011 27.3469 73.1741C27.4004 74.0149 27.6219 75.5189 28.4729 76.0196C28.5552 76.068 28.351 74.4037 28.3232 74.289C28.0773 73.2771 27.6988 72.0579 27.0807 71.1995C26.5853 70.5114 27.8154 72.7517 28.3731 73.3904C29.7855 75.0081 31.6551 76.0547 33.7645 76.4356C34.2822 76.5291 35.5649 76.886 35.3675 75.953C35.1623 74.983 34.3384 74.1211 33.5482 73.579C33.4869 73.537 32.0195 72.7922 32.1837 73.163C32.5866 74.0728 33.6111 74.7706 34.4911 75.1376C36.3484 75.9123 38.9475 75.5107 39.5387 73.3072C39.9322 71.8406 40.2986 70.3339 40.3929 68.8144C40.4832 67.3579 40.3292 66.0002 39.461 64.7874C39.3951 64.6954 38.2482 63.5479 38.4071 63.9111C38.7184 64.6224 39.3218 65.2502 39.8548 65.7969C40.2964 66.2498 40.7654 66.6741 41.2471 67.0838C41.4896 67.2901 41.8948 67.5259 42.068 67.8104C42.1887 68.0088 40.892 67.5164 40.7589 67.4499C40.4709 67.3058 40.2284 67.1464 39.9824 66.9451C39.6701 66.6896 39.3027 66.7326 39.5054 66.2351C39.797 65.5194 40.7062 65.3936 41.3746 65.3144C43.952 65.0089 46.6124 65.3646 49.19 65.4919C52.0649 65.6338 54.9424 65.6971 57.8207 65.6971C58.7326 65.6971 59.6561 65.7157 60.5663 65.6416C60.6818 65.6322 60.9778 65.5211 60.8714 65.4752C60.6152 65.3649 58.6596 64.9897 59.6733 64.8207C60.1412 64.7427 60.6548 64.7985 61.1266 64.7985C61.5518 64.7985 61.9771 64.7985 62.4023 64.7985C62.5044 64.7985 62.7883 64.764 62.7074 64.8263C61.8368 65.4959 61.1618 66.4207 60.4887 67.2779C59.434 68.6212 58.477 70.0348 57.4435 71.3936C57.3538 71.5116 56.6803 72.5244 57.2327 71.8984C57.9273 71.1113 58.3767 70.1192 58.564 69.0917C58.7516 68.062 58.808 66.976 58.808 65.9301C58.808 65.0228 58.3947 66.4655 58.3421 66.6179C57.7694 68.2766 57.2652 69.9715 56.9998 71.7098C56.8238 72.8621 56.6473 74.3698 57.1662 75.4705C57.3746 75.9126 57.42 74.8317 57.4324 74.7494C57.6305 73.4373 57.6837 72.0773 57.5434 70.7557C57.4378 69.7619 57.1283 68.8303 56.7391 67.9158C56.6443 67.6931 56.6169 67.6422 56.6337 67.9158C56.6757 68.5997 56.7198 69.285 56.7724 69.9681C56.9245 71.9456 57.4763 73.7021 58.2644 75.5148C58.3668 75.7502 58.8493 76.9703 58.6361 75.9697C58.3724 74.7324 57.8155 73.6407 57.1662 72.564C56.9188 72.1538 56.1325 70.9506 56.3896 71.3548C56.6467 71.7588 56.9809 72.1205 57.3104 72.4641C59.502 74.75 62.8396 76.5687 66.0909 76.5687C66.4742 76.5687 65.6093 75.9636 65.3088 75.7256C63.6852 74.4393 61.7584 73.4641 59.8064 72.7858C59.0444 72.5211 58.2468 72.2681 57.4491 72.1313C57.1975 72.0882 57.093 72.0938 57.2217 72.3421C57.8204 73.4977 58.7085 74.5706 59.7399 75.3595C61.6216 76.7989 63.8951 77.3571 66.2406 77.312C66.516 77.3067 69.1163 77.0421 68.2707 76.1361C67.4909 75.3005 66.0252 75.125 64.9649 75.0267C64.5911 74.9921 63.5406 74.854 64.0109 75.5481C64.9128 76.8796 67.6591 77.3007 68.4538 75.6646C68.9486 74.6459 68.6825 73.187 68.6978 72.098C68.7184 70.6405 68.8873 69.2102 69.3302 67.816C69.5362 67.1673 69.7516 66.5612 69.8848 67.6385C70.114 69.4907 70.0125 71.4233 69.8904 73.2795C69.8583 73.7671 69.698 75.1582 69.957 74.7438C70.5374 73.815 70.9853 72.7567 71.388 71.743C72.0002 70.2019 72.4087 68.6058 72.6859 66.9729C72.7997 66.3027 72.9063 65.6256 72.9688 64.9483C72.9963 64.6509 72.9853 64.5461 72.8967 64.9206C72.1402 68.1195 71.9871 71.3651 71.9871 74.6384C71.9871 75.3891 71.9952 73.1371 71.9871 72.3865C71.9704 70.8585 71.2612 69.452 70.8888 67.9935C70.8654 67.9018 70.6891 66.8139 70.6891 67.461C70.6891 68.7404 70.659 70.0258 70.8056 71.2993C70.8179 71.4059 71.2382 73.758 71.1772 72.8136C71.0862 71.4023 70.6916 70.0091 70.018 68.7645C68.8577 66.6206 67.1183 65.106 64.8872 64.1551C64.8516 64.1399 62.1472 63.1282 62.1472 63.484C62.1472 64.3798 64.5155 65.1668 65.0758 65.3588C67.0294 66.0279 69.0723 65.9966 71.1107 65.9966C71.2002 65.9966 71.7094 66.0001 71.8761 65.9911C72.1638 65.9755 71.9393 65.9056 71.7985 65.8746C69.9821 65.4744 68.0452 65.4431 66.1963 65.4198C63.6599 65.3878 60.6925 65.2251 58.2423 66.0299C56.9209 66.4639 61.0122 66.3972 62.4023 66.3516C63.6571 66.3104 64.9203 66.2398 66.163 66.0521C66.4902 66.0027 67.015 66.1302 67.1281 65.8191C67.2381 65.5167 66.4847 65.7971 66.163 65.8025C65.2489 65.8179 64.3351 65.8587 63.4229 65.919C61.6826 66.0339 59.7899 66.0759 58.209 66.9063C57.6846 67.1817 58.4668 67.0233 58.6083 66.995" stroke="black" stroke-linecap="round"/>
<path d="M45.372 15.6071C46.8022 15.6071 48.2337 15.6049 49.6588 15.4676C50.0176 15.433 50.4733 15.4192 50.8239 15.2979C51.2444 15.1523 49.9342 15.2667 49.4892 15.2677C45.3754 15.2773 41.2671 15.4493 37.1566 15.5957C35.5909 15.6515 34.0248 15.6631 32.4589 15.7088C32.2942 15.7137 32.1296 15.7227 31.965 15.7277C31.921 15.729 31.8223 15.7704 31.833 15.7277C31.8445 15.6815 31.9255 15.7051 31.9725 15.6975C32.128 15.6724 32.2839 15.6503 32.44 15.6297C35.4549 15.2315 38.5201 15.0262 41.5565 14.8907C42.7435 14.8378 43.9314 14.8099 45.1194 14.7964C46.336 14.7826 45.072 14.8513 44.814 14.8681C40.2483 15.1654 35.6575 15.3054 31.0827 15.3054C29.0636 15.3054 26.9924 15.3396 24.9824 15.0943C24.9031 15.0846 24.496 15.0374 24.8392 14.9661C25.0906 14.9139 26.1071 14.8055 26.2492 14.7927C29.461 14.5028 32.7377 14.5086 35.9577 14.6569C36.3137 14.6733 37.3806 14.7079 37.0247 14.7248C36.331 14.7578 35.6024 14.6663 34.9133 14.6268C31.2387 14.4161 27.5619 14.229 23.8853 14.0575C22.7832 14.0061 22.8712 14.0145 21.8983 13.9821C21.6505 13.9738 21.3944 14.0075 21.1556 13.9406C20.7385 13.8238 22.016 13.8301 22.4488 13.8124C23.9936 13.7492 25.5434 13.7472 27.0862 13.639C27.8298 13.5868 25.5988 13.5374 24.8542 13.5032C22.5891 13.3994 20.3195 13.3442 18.0527 13.4278C16.9797 13.4674 15.8565 13.5008 14.7951 13.6955C14.581 13.7348 14.4816 13.7671 14.7311 13.8011C14.9816 13.8353 15.4487 13.8364 15.6623 13.8388C18.9158 13.8758 22.1345 13.8415 25.3708 14.246C26.9723 14.4462 28.6283 14.5572 30.208 14.8982C30.8972 15.047 28.7979 14.9335 28.0929 14.9246C27.5051 14.9172 26.919 14.8941 26.3322 14.8605C25.9355 14.8379 24.773 14.6724 25.1408 14.8228C25.3764 14.9192 25.6418 14.9157 25.8948 14.9435C26.5019 15.0101 27.4164 15.0823 27.9986 15.1169C30.4811 15.2644 32.9706 15.2757 35.4562 15.2225C37.7492 15.1734 40.0394 15.0558 42.3294 14.9359C42.6358 14.9199 44.9391 14.8001 45.4738 14.7663C45.7587 14.7483 46.576 14.7799 46.3222 14.6494C45.9271 14.4462 45.4421 14.5205 44.9988 14.4911C43.8124 14.4122 42.8234 14.3871 41.6131 14.3591C38.3928 14.2846 35.1708 14.2579 31.9499 14.2196C30.4593 14.2018 28.9545 14.1461 27.4633 14.197C27.4021 14.1991 27.2245 14.2073 27.2823 14.2271C27.4164 14.2732 27.5632 14.2676 27.7046 14.2799C28.3418 14.3353 30.2497 14.4565 30.6982 14.4835C40.0035 15.0436 49.3078 15.1999 58.6283 15.1999C60.3771 15.1999 62.1395 15.2387 63.8878 15.1584C64.0404 15.1514 64.2004 15.1688 64.3441 15.1169C64.4046 15.095 64.2231 15.0692 64.1593 15.0604C63.6502 14.9895 62.5825 14.946 62.195 14.9284C57.386 14.7098 52.5569 14.5957 47.7473 14.8455C47.3588 14.8656 46.9706 14.8921 46.5823 14.9171C46.2929 14.9357 45.4363 14.909 45.7151 14.9887C46.0317 15.0792 46.3738 14.9932 46.703 14.985C47.6951 14.9602 48.2707 14.9325 49.312 14.8794C54.8877 14.595 60.4778 14.2673 66.0633 14.4307C66.8789 14.4546 68.0218 14.3743 68.8307 14.6419C68.9588 14.6843 68.5949 14.789 68.4612 14.8078C67.956 14.8786 66.7404 14.9698 66.3272 14.9963C63.5764 15.1725 60.8185 15.2288 58.0628 15.2526C56.05 15.27 54.0034 15.3405 51.9926 15.1999C51.5449 15.1685 52.8863 15.1086 53.3349 15.0943C56.3058 14.9996 59.2773 14.9306 62.2478 14.8191C65.7658 14.687 76.3205 14.3189 72.8008 14.393C67.9731 14.4947 63.146 14.6277 58.3192 14.7625C56.8443 14.8037 55.3629 14.8113 53.8891 14.8907C53.8271 14.894 53.6424 14.91 53.7043 14.9133C53.8838 14.9229 54.0638 14.9145 54.2435 14.9096C55.2089 14.8831 56.1754 14.828 57.1391 14.7738C62.7301 14.4597 68.3177 13.9962 73.913 13.7672C74.7555 13.7327 77.204 13.5479 76.4391 13.9029C76.1473 14.0383 75.1951 14.2307 75.0064 14.2648C74.1008 14.4287 72.8457 14.5906 71.9525 14.6796C69.8935 14.8846 67.8259 14.9717 65.7579 15.0113C63.7403 15.05 61.671 15.1242 59.6576 14.9284C59.5548 14.9184 59.3773 14.9758 59.3522 14.8756C59.3293 14.7838 59.5371 14.833 59.6312 14.8228C59.8869 14.7952 60.1437 14.779 60.4003 14.7625C62.8583 14.6045 65.3215 14.5273 67.7825 14.4383C70.0033 14.3579 72.2241 14.2769 74.4446 14.1894C74.7781 14.1763 76.3961 14.1073 76.9104 14.0989C77.0464 14.0967 77.6925 14.076 77.129 14.163C75.5454 14.4077 73.9264 14.4708 72.3333 14.6343C70.6368 14.8084 68.9485 15.0716 67.2509 15.23C65.4821 15.3951 70.7536 14.6234 72.518 14.4156C73.8472 14.2592 75.1798 14.127 76.5145 14.0273C77.4248 13.9593 78.3924 13.8461 79.3083 13.918C80.5935 14.0188 76.7591 14.3221 75.4739 14.4232C73.9724 14.5413 72.468 14.607 70.9646 14.6946C70.8358 14.7022 70.4514 14.7304 70.5801 14.7399C70.8193 14.7574 71.4966 14.7519 71.6584 14.7474C74.3622 14.6727 77.0367 14.2741 79.723 13.9971C80.0108 13.9675 80.8631 13.8635 80.5901 13.9594C80.2673 14.0729 79.9808 14.2349 79.6891 14.4119C79.6307 14.4473 78.808 14.9522 78.754 14.8982C78.6694 14.8136 78.9406 14.7481 79.033 14.672C79.1177 14.6023 79.2072 14.5211 79.3045 14.4684C79.6848 14.2624 80.0602 14.0564 80.4167 13.8086C80.674 13.6299 81.267 13.2241 80.8578 13.8576C80.028 15.1425 78.3289 15.8733 77.163 16.806C76.7085 17.1695 77.3674 16.8042 77.5475 16.7306C77.989 16.5502 78.4342 16.3799 78.8973 16.2631C79.1055 16.2106 79.2114 16.2132 78.9048 16.2329C75.3274 16.4629 64.5873 16.8009 68.1709 16.8965C70.9928 16.9717 73.8117 17.0922 76.6351 17.1001C77.6028 17.1028 78.5706 17.1001 79.5382 17.1001C80.5805 17.1001 79.315 17.0637 79.1989 17.0586C74.9137 16.8723 70.6238 16.6964 66.3348 16.6401C65.3898 16.6277 62.5561 16.5838 63.4995 16.6401C64.7947 16.7174 66.1016 16.6929 67.398 16.6929C70.2486 16.6929 73.0985 16.625 75.9489 16.625C78.0913 16.625 71.6625 16.6679 69.5244 16.8022C67.0737 16.9562 64.6263 17.124 62.1724 17.2207C62.1213 17.2227 61.5875 17.2699 61.9386 17.1529C62.4028 16.9981 62.8843 16.8883 63.3562 16.7608" stroke="black" stroke-linecap="round"/>
<path d="M59.4336 51.6208C60.8548 51.5531 62.2891 51.3324 63.7134 51.2382C64.8226 51.1648 65.9342 51.0932 67.0456 51.0647C67.6117 51.0502 67.501 51.0603 67.0056 51.0603C61.2799 51.0603 55.5961 50.2672 49.8773 50.0726C49.0454 50.0443 48.0118 50.0273 47.1635 50.0548C46.9199 50.0627 46.6763 50.0787 46.4339 50.1037C46.0391 50.1446 46.0251 50.1765 46.425 50.2194C49.9282 50.5958 53.5055 50.6286 57.0223 50.82C61.1292 51.0435 65.2396 51.2039 69.3457 51.4429C69.8115 51.47 70.2772 51.499 70.7427 51.5318C71.0336 51.5524 71.3248 51.5712 71.6147 51.603C71.6901 51.6113 71.8792 51.5888 71.8371 51.652C71.7858 51.729 71.6537 51.6799 71.5613 51.6831C71.0514 51.7006 69.6177 51.6878 69.2567 51.6831C64.9351 51.6272 60.6199 51.4395 56.306 51.1804C53.3722 51.0042 44.5784 50.4528 47.4972 50.7978C53.9318 51.5582 60.4419 51.443 66.8988 51.8611C72.0239 52.1929 56.6233 51.9224 51.4923 51.7009C50.6376 51.664 49.5927 51.6182 48.7162 51.5452C47.6378 51.4553 48.2382 51.4098 48.7562 51.3984C52.1668 51.323 55.5904 51.4593 58.9976 51.5897C62.6737 51.7304 66.3744 51.8557 70.0219 52.3682C70.3303 52.4116 70.6374 52.4636 70.9429 52.524C71.1296 52.5608 71.5996 52.5961 71.4723 52.7375C71.244 52.9912 70.0096 52.9408 69.8084 52.9466C66.7274 53.0357 63.6436 52.6844 60.5947 52.2837C57.9327 51.9338 49.9451 50.9125 52.6178 51.167C54.68 51.3634 56.7223 51.7405 58.784 51.95C61.7316 52.2496 64.6943 52.3759 67.6462 52.6263C70.6074 52.8774 61.7072 52.3884 58.7395 52.2303C58.4518 52.215 58.1621 52.2195 57.8764 52.1814C57.6169 52.1468 58.3978 52.1274 58.6595 52.1191C60.2055 52.0699 61.7498 52.0306 63.2952 51.9589C65.3078 51.8656 59.2628 51.9261 57.2536 51.7765C55.9648 51.6806 54.6713 51.5672 53.392 51.3806C53.0721 51.3339 52.3938 51.3114 52.2263 51.0603" stroke="black" stroke-linecap="round"/>
<path d="M75.7917 24.5904C75.7917 24.7657 75.8805 24.2512 75.928 24.0824C76.3294 22.6551 77.0665 21.3719 77.6934 20.0373C78.4711 18.3821 79.0402 16.7497 79.3908 14.9578C79.7106 13.3231 79.2212 18.2857 79.0686 19.9444C78.8319 22.5174 78.4601 25.0345 77.8731 27.5514C77.5267 29.0364 77.162 30.5153 76.9315 32.0239C76.9209 32.0936 76.9104 31.8837 76.9129 31.8133C76.9343 31.2051 76.9818 30.5975 77.043 29.9921C77.277 27.6771 77.7578 25.396 77.9722 23.0789C78.1002 21.6959 78.2778 20.1602 78.0713 18.7736C78.0316 18.5071 77.9163 19.2927 77.8855 19.5604C77.7192 21.0052 77.5204 22.4358 77.2474 23.8656C76.5432 27.5541 75.3935 31.108 74.5094 34.7495C74.3616 35.3583 74.2315 35.9747 74.1439 36.5955C74.1379 36.6386 74.1315 36.682 74.1315 36.7256C74.1315 36.8038 74.1696 36.5737 74.1811 36.4964C74.3653 35.2594 74.4797 34.021 74.7262 32.792C75.2536 30.1623 76.0744 27.6018 76.6094 24.9744C76.7948 24.0639 76.9517 23.1355 76.9935 22.2054C77.0035 21.9828 77.072 21.3931 76.9067 21.5426C76.6823 21.7457 76.5232 22.8401 76.4917 22.9798C76.1419 24.5302 75.8796 26.0978 75.6059 27.6629C74.983 31.2246 74.3318 34.778 73.5926 38.3176C73.3333 39.5593 72.7977 43.3235 72.8988 42.0591C73.1704 38.6638 73.682 35.3346 74.3731 31.9991C74.5686 31.056 74.5087 30.7703 74.1563 31.8752C73.0368 35.3858 72.3656 39.0783 71.5422 42.6662C71.2194 44.0727 70.9208 45.4823 70.6378 46.8971C70.5551 47.3107 70.7105 47.9063 70.3528 48.1299C70.1001 48.2878 70.4502 47.5414 70.5139 47.2502C70.688 46.4542 70.8491 45.6554 71.0219 44.8591C71.3687 43.2605 71.7735 41.6758 72.2608 40.114C72.3846 39.7172 72.627 38.5415 72.7068 38.9495C72.8177 39.5162 72.516 40.4893 72.4156 41.0061C71.9255 43.5288 71.208 46.0431 70.0927 48.3653C70.0878 48.3753 69.6287 49.4352 69.4484 49.4803C69.1577 49.553 69.6334 48.9101 69.7272 48.6254C70.0495 47.6466 70.3678 46.6687 70.7245 45.7016C70.9907 44.9798 71.0777 44.7901 70.898 45.7387C70.6011 47.3054 70.1247 48.8317 69.8201 50.3971C69.7562 50.7254 69.7823 51.3393 69.5475 51.5741" stroke="black" stroke-linecap="round"/>
</svg>
