<svg width="231" height="354" viewBox="0 0 231 354" fill="none" xmlns="http://www.w3.org/2000/svg">
<path d="M26.0827 323.801C35.5561 323.801 43.7321 323.144 52.7461 319.777C71.0546 312.939 82.8629 298.719 95.2622 284.291C114.746 261.618 135.176 239.425 149.995 213.269C164.052 188.458 173.544 161.435 179.664 133.666C182.015 123.001 183.979 111.898 184.851 100.991C185.068 98.2904 184.909 100.053 185.094 101.67C185.64 106.45 185.787 111.022 185.239 115.826C181.447 149.114 171.844 183.59 154.31 212.396C147.998 222.765 138.2 231.628 129.731 240.223C119.493 250.614 110.359 262.075 99.5768 271.928C84.347 285.845 67.237 298.489 49.3526 308.772C43.6866 312.03 37.854 317.202 31.7062 319.438C27.9026 320.821 14.2778 326.971 26.2281 324.14C34.2437 322.242 41.0851 318.723 47.8982 314.202C57.3355 307.94 67.0762 302.24 75.8221 295.004C102.323 273.081 126.339 247.624 145.632 219.086C158.87 199.504 171.999 179.962 178.743 157.033C184.185 138.529 185.778 119.63 189.699 100.894C190.132 98.8273 190.546 96.7591 190.96 94.6891C191.702 90.9771 190.981 102.288 190.427 106.033C187.03 128.986 176.675 152.232 167.447 173.322C159.234 192.096 149.833 210.224 136.712 226.067C126.542 238.346 116.055 250.409 105.685 262.523C91.8663 278.668 77.0219 295.913 60.1149 308.918C49.8443 316.818 40.0544 323.071 27.4401 325.982C24.0814 326.758 21.0986 328.393 17.8412 329.231C15.3765 329.864 11.7893 331.284 13.672 327.97C20.0407 316.761 39.1966 283.211 32.0456 293.938C24.2419 305.643 15.8708 316.482 5.72147 326.225C-3.65518 335.226 22.1018 306.037 30.4458 296.071C34.7705 290.905 38.8664 285.495 43.3412 280.461C44.6709 278.965 46.7652 276.72 44.6986 280.073C37.1697 292.286 28.2854 303.491 20.1197 315.269C17.3818 319.218 14.405 322.981 11.6359 326.904C9.35985 330.128 11.501 325.605 12.0237 324.722C20.2455 310.83 31.3176 298.875 38.057 284.048C38.3453 283.414 40.0057 278.714 38.5902 282.206C35.6081 289.562 31.8024 296.649 27.2462 303.149C20.1644 313.252 10.2026 320.831 3.58839 331.267C2.98326 332.221 0.833779 334.51 2.47338 335.29C7.64165 337.752 12.9375 339.949 18.2291 342.126C23.9118 344.464 29.4214 346.886 34.5665 350.27C35.4929 350.88 38.4017 352.21 37.7176 351.337C30.7068 342.392 19.7278 336.569 10.7633 329.909C8.78826 328.442 8.4208 327.756 10.9572 329.424C15.5537 332.448 20.1956 335.494 24.6768 338.684C27.4769 340.677 35.2316 347.485 32.4819 345.423C29.7719 343.39 27.0106 341.409 24.2405 339.46C19.0181 335.785 13.6916 332.27 8.24238 328.94C2.19241 325.243 8.71456 330.569 10.2785 331.8C19.3263 338.92 50.2803 354.617 40.3355 348.816C31.8953 343.893 22.4976 341.521 13.769 337.278C9.97243 335.433 13.4344 336.978 15.0779 338.005C20.3801 341.319 25.6626 344.672 30.9306 348.04C31.4076 348.345 38.4518 352.731 36.6511 351.531C32.3199 348.644 28.3004 345.451 24.1435 342.32C18.7094 338.226 13.0049 334.424 7.32128 330.685C3.0651 327.885 8.13326 333.014 8.92109 333.594C18.1068 340.353 29.2732 344.358 40.0446 347.701C46.9554 349.846 25.9559 344.014 19.441 340.866C17.1906 339.778 12.368 336.192 17.3564 339.702C20.9674 342.243 24.4134 345.07 27.634 348.089C33.884 353.948 23.5778 344.515 21.8165 343.047C19.6173 341.214 17.6811 338.809 14.7386 338.636C11.4092 338.44 17.782 324.742 18.2291 323.607C23.3649 310.57 31.3184 269.648 31.3184 283.66" stroke="black" stroke-width="3"/>
<path d="M171.333 36.8112C171.333 27.4278 171.716 17.8509 168.738 8.8022C168.383 7.72414 166.587 1.7821 164.711 2.35924C163.014 2.88158 160.747 5.64005 160.058 7.19146C156.048 16.2135 154.406 24.8771 153.436 34.5741C152.485 44.0838 151.316 55.5278 153.257 64.9544C154.18 69.4367 156.543 74.0218 160.058 77.035C164.704 81.0175 168.18 73.4333 168.738 69.8314C169.384 65.6627 170.528 53.085 170.528 57.3034C170.528 63.8562 169.391 71.783 165.651 77.3929C164.229 79.5257 160.613 79.3936 158.805 78.243C154.5 75.5035 153.448 70.6345 152.81 65.8493C151.893 58.9747 152.004 52.1886 152.004 45.2228C152.004 37.5164 155.924 29.7127 157.821 22.3145C158.577 19.3637 166.955 -4.91013 170.93 3.92524C174.808 12.5411 172.944 25.7637 172.944 35.2005" stroke="black" stroke-width="3"/>
<path d="M180.224 76.5709C181.254 76.1847 180.898 71.8627 180.978 70.9578C181.534 64.7384 181.656 58.4808 181.984 52.2474C182.243 47.3207 182.519 42.397 182.849 37.4745C183.122 33.4173 182.926 29.1763 183.743 25.1871C184.968 19.2076 185.944 13.0901 186.228 6.97935C186.315 5.12026 185.366 2.54121 187.848 2.70668C189.976 2.84851 191.973 3.55421 194.104 3.71201C196.216 3.86851 198.514 4.4586 200.499 5.19209C201.499 5.56176 204.615 5.86966 203.571 6.08572C198.975 7.03652 193.995 3.68409 189.384 3.68409C185.523 3.68409 186.759 6.17268 186.759 9.77195C186.759 18.7602 187.081 28.5464 185 37.3349C182.682 47.119 181.732 55.9889 181.732 65.987C181.732 69.3102 180.315 72.7706 180.727 76.0683C180.779 76.4853 185.208 74.6141 185.754 74.4486C188.406 73.6439 191.295 73.2639 193.796 72.0469C194.894 71.5129 196.145 71.3194 197.203 70.7903C198.877 69.9535 193.415 70.4061 191.59 70.8182C190.058 71.1643 188.561 71.8928 186.982 72.019C185.743 72.1182 184.338 71.7776 183.185 72.3541C182.806 72.5433 180.416 73.5905 181.341 73.5549C183.954 73.4545 186.648 72.7003 189.272 72.4379C191.63 72.2021 194.006 71.6754 196.366 71.5443C197.237 71.4959 194.657 71.1851 193.796 71.0416" stroke="black" stroke-width="3"/>
<path d="M184.246 41.3842C187.731 41.9443 191.231 42.444 194.746 42.7805C197.383 43.033 195.471 42.9126 194.187 42.8922C190.626 42.8357 188.113 42.1331 184.748 43.3949" stroke="black" stroke-width="3"/>
<path d="M214.148 4C212.524 4.18294 211.554 6.99988 210.999 8.21383C208.154 14.4442 206.083 21.3315 205.205 28.1338C203.99 37.5546 202.872 49.9362 206.213 59.131C207.87 63.6892 210.111 70.329 213.581 73.8475C216.903 77.2147 222.434 72.3929 224.036 69.7294C229.78 60.178 228.371 46.3373 226.492 35.8591C224.838 26.6374 224.203 17.3164 222.335 8.11806C220.203 -2.38179 210.807 14.5652 209.645 17.2161C206.317 24.8071 207.094 34.3915 207.378 42.4672C207.637 49.8125 207.768 57.1556 210.747 63.9513C213.59 70.4354 221.89 70.3882 224.917 64.3344C229.27 55.6316 229.468 44.8722 228.57 35.3803C227.829 27.5483 227.153 18.5609 224.476 11.1507C223.302 7.90005 223.305 6.91763 220.383 5.43653C218.801 4.63489 217.414 3.12349 216.415 5.14923" stroke="black" stroke-width="3"/>
</svg>
