<svg width="57" height="58" viewBox="0 0 57 58" fill="none" xmlns="http://www.w3.org/2000/svg">
<path d="M29.5269 1.73339C29.5544 1.51383 30.0803 1.85298 30.1204 1.87325C30.1225 1.87432 30.1246 1.87538 30.1267 1.87644M30.1267 1.87644C30.4239 2.02633 30.6217 2.10252 30.7703 2.1427M30.1267 1.87644C31.016 2.5337 30.5135 1.94357 31.3278 2.76361C32.6757 4.12105 33.6825 5.8856 34.3385 7.72664M30.1267 1.87644C30.1158 1.86839 30.1047 1.86016 30.0934 1.85173C30.0689 1.83345 29.9418 1.72832 29.785 1.59779M30.7703 2.1427C31.2089 2.26128 31.2197 2.06646 32.094 2.52692C33.4011 3.21543 34.7145 3.89123 36.0312 4.56047M30.7703 2.1427C30.0428 1.69987 30.0886 1.82388 29.785 1.59779M30.7703 2.1427C30.7968 2.15884 30.8243 2.17572 30.8529 2.1934C31.8973 2.8388 33.3549 3.38661 34.0742 4.43659C34.5867 5.18485 34.452 6.26578 34.4141 7.12088C34.4127 7.15218 34.4017 7.35124 34.3885 7.54898M36.0312 4.56047C36.209 4.65083 36.3868 4.74108 36.5647 4.83122M36.0312 4.56047C35.9863 4.52152 35.9435 4.48202 35.9033 4.44197C35.7014 4.24065 36.1864 4.57855 36.5647 4.83122M36.0312 4.56047C36.3871 4.86903 36.876 5.14269 37.2414 5.37798C37.9578 5.83926 39.1831 6.52211 40.4343 7.19328M36.5647 4.83122C38.1582 5.63864 39.756 6.43769 41.3529 7.23923C41.4126 7.26919 41.7082 7.4156 41.8061 7.47592C41.8403 7.49699 41.7245 7.47002 41.6874 7.4544C41.0916 7.20309 40.4901 6.9591 39.9069 6.67978C38.8627 6.17969 37.845 5.61296 36.8529 5.01756C36.7802 4.97391 36.6772 4.90633 36.5647 4.83122ZM40.4343 7.19328C43.0519 8.59739 45.7832 9.95036 44.2072 9.11662C43.3897 8.68414 42.5897 8.22555 41.763 7.80944C41.6793 7.76732 40.7982 7.29562 40.4343 7.19328ZM40.4343 7.19328C40.2953 7.15418 40.2317 7.169 40.3169 7.28226C41.3858 8.70314 42.7282 9.91304 44.1342 11.0226M44.1342 11.0226C44.7227 11.487 45.3223 11.9338 45.9176 12.3711C46.2282 12.5993 45.4564 11.7867 45.4212 11.7471C44.6638 10.8959 43.836 9.943 42.8961 9.28876C42.1807 8.79089 43.6668 10.5566 43.6946 10.5852C43.839 10.7335 43.9856 10.8792 44.1342 11.0226ZM44.1342 11.0226C45.3392 12.1855 46.6733 13.1999 47.9734 14.2543M47.9734 14.2543C48.0328 14.3025 48.0922 14.3508 48.1514 14.3991C48.2311 14.4642 48.3874 14.5776 48.577 14.7208M47.9734 14.2543C47.4141 13.6205 46.8933 12.957 46.468 12.2205C46.1191 11.6165 46.8032 12.5302 46.8565 12.5917C47.458 13.2861 48.0296 13.9871 48.577 14.7208M47.9734 14.2543C48.2194 14.533 48.4728 14.806 48.7288 15.0769C48.9911 15.3546 49.2758 15.635 49.5614 15.9235M48.577 14.7208C48.8286 14.9109 49.1388 15.1536 49.4062 15.4056M48.577 14.7208C48.6478 14.8157 48.7181 14.911 48.7881 15.007C48.8228 15.0547 49.2213 15.5243 49.5534 15.8982M49.4062 15.4056C49.7635 15.7422 50.0445 16.0956 50.0075 16.3626C50.0064 16.371 49.99 16.3605 49.9619 16.3352M49.4062 15.4056C49.2954 14.9995 49.2645 14.7485 49.4787 15.0662C49.776 15.5069 50.2374 16.3531 50.6465 17.1169M49.4062 15.4056C49.4471 15.5556 49.499 15.7267 49.5534 15.8982M49.9619 16.3352C49.9138 16.292 49.8314 16.2055 49.7317 16.0965M49.9619 16.3352C49.8857 16.2549 49.8088 16.1754 49.7317 16.0965M49.9619 16.3352C50.201 16.5873 50.4335 16.8468 50.6465 17.1169M49.7317 16.0965C49.6766 16.0361 49.6162 15.9689 49.5534 15.8982M49.7317 16.0965C49.675 16.0385 49.6182 15.9808 49.5614 15.9235M49.5534 15.8982C49.5561 15.9066 49.5587 15.915 49.5614 15.9235M49.5614 15.9235C49.7152 16.406 49.8862 16.8829 49.8888 16.8898C50.7331 19.0999 51.6271 21.2807 52.3177 23.5422M50.6465 17.1169C50.9714 17.5292 51.2505 17.9662 51.4374 18.439C51.7197 19.1536 51.2379 18.2213 50.6465 17.1169ZM52.3177 23.5422C52.4035 23.823 52.4861 24.1051 52.5651 24.3886C52.6214 24.5907 52.9849 26.2292 52.6838 25.0449C52.5568 24.5455 52.4275 24.0458 52.3177 23.5422ZM52.3177 23.5422C52.2459 23.2131 52.1825 22.8823 52.1334 22.5488C52.0609 22.0559 52.0147 21.5573 52.0147 21.0588C52.0147 20.5499 52.2572 22.0474 52.3708 22.5435C53.0469 25.4954 53.9195 28.4275 54.2809 31.4409C54.3324 31.8705 54.3499 32.3168 54.3461 31.6922M54.3461 31.6922C54.346 31.6691 54.3458 31.6445 54.3456 31.6184C54.3381 30.6265 54.2791 29.635 54.2485 28.6436C54.2291 28.0155 54.1995 26.15 54.0758 26.7662C53.8684 27.8003 54.177 29.1274 54.2485 30.1606C54.2837 30.6695 54.3184 31.1804 54.3461 31.6922ZM54.3461 31.6922C54.4237 33.1207 54.4477 34.5561 54.2809 35.9757C54.2719 36.0519 53.7401 38.082 53.6658 37.9338C53.4568 37.517 53.447 36.8885 53.4405 36.3507M53.4405 36.3507C53.4385 36.1816 53.4368 36.0214 53.4293 35.8796M53.4405 36.3507C53.7284 35.4872 53.8214 35.0829 53.4823 35.7713C53.4646 35.8073 53.4469 35.8434 53.4293 35.8796M53.4405 36.3507C53.2624 36.8851 53.0097 37.5953 52.7385 38.3314M53.4293 35.8796C53.429 35.874 53.4287 35.8683 53.4284 35.8627C53.4128 35.5874 53.4022 35.3128 53.3977 35.0387M53.4293 35.8796C53.3256 36.093 53.2241 36.31 53.1254 36.53M53.3977 35.0387C53.3835 34.1715 53.4299 33.3095 53.5687 32.4468C53.6431 31.9842 53.9002 30.6245 53.941 31.0912C53.9804 31.5437 53.8552 32.109 53.7953 32.5437C53.6802 33.3778 53.5434 34.2092 53.3977 35.0387ZM53.3977 35.0387C53.3564 35.2741 53.3144 35.5093 53.2719 35.7444C53.2245 36.0068 53.1759 36.2687 53.1254 36.53M53.1254 36.53C53.0089 37.1341 52.8825 37.735 52.7385 38.3314M53.1254 36.53C52.4775 37.9749 51.9479 39.5524 51.6666 41.1127M52.7385 38.3314C52.5308 39.1922 52.2865 40.0436 51.9823 40.8816C51.8762 41.174 51.6361 41.9249 51.5565 42.058M52.7385 38.3314C52.3677 39.3383 51.9623 40.3935 51.6666 41.1127M51.5565 42.058C51.5489 42.0706 51.5428 42.0777 51.5384 42.0783M51.5565 42.058C51.5503 42.0649 51.5443 42.0716 51.5384 42.0783M51.5565 42.058C51.8376 41.7433 52.3335 41.1987 52.2953 41.2689C51.604 42.5384 50.8581 43.7965 49.9967 44.9592C48.8715 46.4779 47.4651 47.6491 45.9824 48.8C45.7776 48.959 45.3911 49.4104 45.4158 48.9184C45.4561 48.116 45.7954 47.4532 46.2306 46.7882C46.2526 46.7545 46.2748 46.7206 46.2971 46.6867M51.5384 42.0783C51.5295 42.0794 51.5275 42.0542 51.5345 41.9952C51.5691 41.7023 51.6134 41.4078 51.6666 41.1127M51.5384 42.0783C51.4696 42.1554 51.4157 42.2165 51.3888 42.248C51.2436 42.418 51.096 42.5891 50.949 42.7621M51.6666 41.1127C51.6175 41.232 51.5715 41.342 51.5291 41.4411C51.3414 41.8798 51.15 42.3224 50.949 42.7621M50.949 42.7621C50.5127 43.7168 50.0314 44.6583 49.4464 45.5186C48.9718 46.2165 49.3666 45.0503 49.441 44.9C49.8254 44.1234 50.3831 43.4282 50.949 42.7621ZM46.2971 46.6867C46.7562 45.987 47.2696 45.233 47.887 44.6687C48.3853 44.2134 47.1313 45.7926 46.673 46.2879C46.5488 46.4221 46.4235 46.555 46.2971 46.6867ZM46.2971 46.6867C46.2007 46.787 46.1037 46.8867 46.0061 46.9857M46.0061 46.9857C45.0667 47.9383 44.0723 48.8276 43.0471 49.693C42.7561 49.9387 42.4643 50.2057 42.1676 50.4732M46.0061 46.9857C46.0746 46.8956 46.1423 46.8046 46.209 46.7128C46.2274 46.6875 46.9184 45.5625 46.7863 45.6477C46.104 46.0879 45.4224 46.541 44.7629 47.0141C43.3189 48.05 41.7599 49.2055 40.7378 50.6828C40.7205 50.7077 40.5315 51.0372 40.3918 51.3456M46.0061 46.9857C44.9922 48.3189 43.7849 49.475 42.5042 50.5555M42.1676 50.4732C41.6111 50.9748 41.0373 51.4781 40.4194 51.8447C40.1409 52.01 40.2354 51.691 40.3918 51.3456M42.1676 50.4732C41.5668 50.7212 40.965 51.012 40.3918 51.3456M42.1676 50.4732C42.2162 50.4531 42.2648 50.4333 42.3133 50.4138C42.7548 50.2366 42.7112 50.3537 42.5042 50.5555M40.3918 51.3456C39.9213 51.6194 39.47 51.9221 39.0543 52.2536C38.8792 52.3933 38.7009 52.5479 38.5324 52.7162M42.5042 50.5555C42.2562 50.7648 42.0054 50.9712 41.7527 51.1756M42.5042 50.5555C42.3093 50.7455 41.9693 51.0106 41.7527 51.1756M41.7527 51.1756C41.4149 51.4488 41.0737 51.7183 40.7313 51.9858M41.7527 51.1756C41.6526 51.2518 41.5789 51.3067 41.5579 51.3229C41.2396 51.5698 40.9149 51.8073 40.5849 52.0369M40.7313 51.9858C39.9627 52.5862 39.1877 53.1766 38.43 53.7769M40.7313 51.9858C40.6825 52.0029 40.6337 52.0199 40.5849 52.0369M40.7313 51.9858C41.3156 51.781 41.8971 51.5688 42.4752 51.3498C43.5426 50.9456 44.9997 50.5506 45.8745 49.7629C46.0465 49.608 45.9853 49.4141 45.7611 49.4886C45.5554 49.557 45.9416 49.0865 46.0903 48.9291C46.8335 48.1423 47.7269 47.4896 48.5777 46.8258C49.546 46.0702 50.5579 45.3643 51.4967 44.5719C51.9198 44.2148 52.3436 43.7102 52.7917 43.4422M38.43 53.7769C38.4246 53.7811 38.4193 53.7854 38.414 53.7896M38.43 53.7769C38.5317 53.7731 38.5195 53.778 38.414 53.7896M38.43 53.7769C38.3405 53.7802 38.163 53.7902 37.8835 53.8082C37.8461 53.8106 37.8065 53.8128 37.7649 53.8147M38.414 53.7896C38.2597 53.9119 38.1062 54.0346 37.9536 54.1579C37.7485 54.3236 37.5728 54.5762 37.6623 54.1525C37.684 54.0494 37.7141 53.9485 37.7513 53.8499M38.414 53.7896C38.2975 53.8024 38.0674 53.8234 37.7513 53.8499M37.7513 53.8499C37.7558 53.8382 37.7603 53.8264 37.7649 53.8147M37.7513 53.8499C37.7115 53.8533 37.6704 53.8567 37.6279 53.8602M37.7649 53.8147C37.7703 53.8011 37.7759 53.7875 37.7816 53.774M37.7649 53.8147C37.7452 53.8157 37.725 53.8166 37.7043 53.8174M37.7816 53.774C37.9466 53.3801 38.2232 53.0251 38.5324 52.7162M37.7816 53.774C38.7404 53.234 39.6825 52.6648 40.5849 52.0369M37.7816 53.774C37.7558 53.7885 37.7301 53.8029 37.7043 53.8174M38.5324 52.7162C37.8442 52.9321 37.1529 53.1368 36.459 53.3294C35.6346 53.5583 34.8658 53.706 34.0148 53.706C33.3406 53.706 34.0762 53.7565 35.1159 53.7929M38.5324 52.7162C39.22 52.5006 39.9044 52.2738 40.5849 52.0369M37.7043 53.8174C37.6789 53.8317 37.6534 53.846 37.6279 53.8602M37.7043 53.8174C37.4175 53.829 37.0477 53.8315 36.6497 53.8281M37.6279 53.8602C37.4814 53.9421 37.3346 54.0233 37.1874 54.1041C36.0206 54.7442 34.6587 55.6338 33.335 55.9061C32.7433 56.0278 33.3117 55.1019 33.4321 54.9432C33.5153 54.8336 33.6073 54.7313 33.7066 54.6358M37.6279 53.8602C37.2523 53.8913 36.7743 53.9289 36.2319 53.9694M33.7066 54.6358C33.9258 54.4251 34.1808 54.2474 34.4566 54.096M33.7066 54.6358C34.0115 54.5624 34.3157 54.4856 34.6191 54.4053C35.1337 54.2691 35.6909 54.1392 36.2319 53.9694M33.7066 54.6358C32.804 54.8531 31.8953 55.0414 30.9823 55.2077M34.4566 54.096C34.6665 53.9807 34.8885 53.8807 35.1159 53.7929M34.4566 54.096C32.3661 54.2378 29.9877 54.373 28.6947 54.373C27.0674 54.373 25.451 54.2907 23.8278 54.1955C23.5375 54.1785 24.5905 54.262 24.6479 54.2654C25.4737 54.3153 26.2931 54.3823 27.1084 54.529L27.1126 54.5298C27.2924 54.5622 28.2724 54.7386 27.4861 54.6958C24.8657 54.5533 22.3268 54.17 19.8789 53.3102M34.4566 54.096C35.0871 54.0532 35.6915 54.0099 36.2319 53.9694M35.1159 53.7929C35.6654 53.5809 36.2467 53.4403 36.7666 53.3294C37.0603 53.2668 37.9224 53.1868 37.6677 53.3456C37.3552 53.5403 37.0097 53.6962 36.6497 53.8281M35.1159 53.7929C35.5985 53.8099 36.1466 53.8237 36.6497 53.8281M36.6497 53.8281C36.5122 53.8785 36.3726 53.9253 36.2319 53.9694M30.9823 55.2077C30.5742 55.282 30.1652 55.352 29.7556 55.4182M30.9823 55.2077C30.5053 55.1938 30.062 55.2049 29.5634 55.223C28.9479 55.2452 28.3323 55.2797 27.7178 55.3281M30.9823 55.2077C31.0674 55.2101 31.1536 55.2134 31.2414 55.2176C31.4476 55.2274 32.0222 55.2453 31.8457 55.3521C31.6134 55.4927 31.0195 55.4381 30.8044 55.4381C30.4547 55.4381 30.1051 55.4302 29.7556 55.4182M29.7556 55.4182C29.1855 55.5104 28.6141 55.5954 28.0418 55.6748C27.9119 55.6929 27.782 55.7105 27.6521 55.7278M29.7556 55.4182C29.2543 55.401 28.7531 55.3752 28.2522 55.3521C28.0741 55.3438 27.896 55.3359 27.7178 55.3281M27.6521 55.7278C27.3288 55.7708 27.0052 55.8115 26.6815 55.8501M27.6521 55.7278C27.126 55.6638 26.5125 55.5924 25.8807 55.5173M27.6521 55.7278C29.0115 55.893 29.7879 56.0083 28.7918 56.0083C28.0893 56.0083 27.3842 55.9476 26.6815 55.8501M26.6815 55.8501C25.8684 55.9471 25.0539 56.031 24.2379 56.1052C24.0946 56.1182 23.2983 56.2715 23.0886 56.159C23.019 56.1216 24.4842 55.7255 24.5292 55.7179C24.7659 55.6778 25.003 55.6403 25.2406 55.6054M26.6815 55.8501C26.1995 55.7832 25.7186 55.6991 25.2406 55.6054M25.2406 55.6054C25.4537 55.574 25.6671 55.5447 25.8807 55.5173M25.2406 55.6054C24.5944 55.4787 23.9533 55.3346 23.3213 55.1922M25.8807 55.5173C26.4913 55.439 27.104 55.3766 27.7178 55.3281M25.8807 55.5173C25.0012 55.4127 24.086 55.3009 23.3213 55.1922M27.7178 55.3281C26.2052 55.2623 24.6909 55.2097 23.1803 55.11C23.0864 55.1038 22.9404 55.0881 22.7863 55.07M22.7863 55.07C22.3899 55.0236 21.939 54.9619 22.1767 55.0078C22.483 55.0669 22.8767 55.129 23.3213 55.1922M22.7863 55.07C22.9464 55.1072 23.1065 55.1438 23.2667 55.1799L23.2836 55.1837C23.2961 55.1866 23.3087 55.1894 23.3213 55.1922M22.7863 55.07C21.6771 54.8122 20.5709 54.5257 19.4824 54.1878M19.4824 54.1878C19.03 54.0474 18.5806 53.8981 18.1354 53.7383C17.8125 53.6224 17.0901 53.3098 17.8818 53.5769C18.4239 53.7597 18.9581 53.9625 19.4824 54.1878ZM19.4824 54.1878C20.1539 54.4763 20.8089 54.8017 21.4429 55.1692C22.4654 55.7618 21.6289 55.3544 21.076 55.1477C19.5573 54.5799 17.9837 54.1585 16.425 53.7167C15.67 53.5028 13.4469 52.7427 14.1642 53.0605C15.1786 53.5099 16.2442 53.8153 17.2829 54.2009C17.9424 54.4458 19.1866 54.7548 19.6839 55.309C19.7447 55.3767 19.5016 55.2915 19.4142 55.266C18.7133 55.0618 18.0248 54.8072 17.3422 54.5505C16.0702 54.0723 14.8062 53.5653 13.5569 53.0276M13.5569 53.0276C13.1806 52.8657 12.8056 52.7009 12.4322 52.5333C12.18 52.4201 10.5843 51.5522 11.72 52.2213C12.5716 52.723 13.4381 53.1856 14.3207 53.6307C14.4371 53.6894 15.449 54.302 14.7739 53.8459C14.3689 53.5722 13.963 53.2999 13.5569 53.0276ZM13.5569 53.0276C12.0892 52.0436 10.6199 51.0607 9.18955 50.024M9.18955 50.024C8.54641 49.5578 7.91113 49.0807 7.28742 48.5877M9.18955 50.024C9.21677 50.0641 9.24371 50.1044 9.27033 50.1449C9.36792 50.2931 9.32736 50.2512 9.21098 50.1556C8.57157 49.6306 7.93013 49.1088 7.28742 48.5877M9.18955 50.024C8.95166 49.673 8.69249 49.3324 8.4394 48.9937C7.59014 47.8572 6.63029 46.8046 5.79553 45.6585C5.71669 45.5502 5.01999 44.5125 5.59049 45.1475C6.23558 45.8654 6.87703 46.5866 7.52214 47.3046C7.84195 47.6605 8.29488 48.1448 7.82969 47.353C7.04865 46.0235 6.14377 44.7768 5.27215 43.5068C5.26949 43.5029 5.26684 43.499 5.26418 43.4951M7.28742 48.5877C7.10202 48.4412 6.91764 48.2932 6.73437 48.1438C6.20789 47.7143 7.2222 48.5349 7.23077 48.5418C7.24966 48.5571 7.26854 48.5724 7.28742 48.5877ZM5.26418 43.4951C5.20805 43.4133 5.15232 43.3311 5.09704 43.2487M5.26418 43.4951C5.12075 43.2308 4.97351 42.9684 4.82971 42.7052C4.77675 42.6083 4.72441 42.5109 4.67249 42.413M5.26418 43.4951C5.36487 43.6807 5.46368 43.8671 5.55812 44.0554C5.67305 44.2846 5.30028 43.6121 5.17503 43.3884C5.14898 43.3419 5.12299 43.2953 5.09704 43.2487M5.09704 43.2487C4.58894 42.4913 4.1193 41.7097 3.73439 40.8816C3.70996 40.8291 3.64245 40.6691 3.66964 40.7203C3.79282 40.9522 3.89739 41.186 4.03115 41.4142C4.18198 41.6715 4.34288 41.9222 4.50828 42.1698M5.09704 43.2487C4.89773 42.8909 4.70136 42.5313 4.50828 42.1698M4.50828 42.1698C4.56259 42.2512 4.6174 42.3322 4.67249 42.413M4.50828 42.1698C4.31651 41.8109 4.12799 41.4501 3.94306 41.0875M4.67249 42.413C4.9367 42.8007 5.20749 43.184 5.46305 43.5774M4.67249 42.413C4.54873 42.1798 4.42747 41.9441 4.30664 41.7078M5.46305 43.5774C5.53571 43.6892 5.60713 43.8018 5.67682 43.9156C6.21547 44.7949 5.65582 43.919 5.47179 43.5928C5.4689 43.5877 5.46599 43.5825 5.46305 43.5774ZM5.46305 43.5774C5.3562 43.3882 5.21937 43.1502 5.06476 42.8835M5.06476 42.8835C4.68796 42.2335 4.20557 41.4128 3.79423 40.7126M5.06476 42.8835C4.80283 42.4977 4.5491 42.1068 4.30664 41.7078M5.06476 42.8835C5.2986 43.2279 5.53896 43.5682 5.78366 43.9065M3.79423 40.7126C3.70252 40.5565 3.61433 40.4064 3.53163 40.2654M3.79423 40.7126C3.66175 40.4611 3.52642 40.2115 3.3857 39.9659M3.79423 40.7126C3.96802 41.0426 4.13691 41.3759 4.30664 41.7078M3.53163 40.2654C3.4624 40.1475 3.39702 40.0359 3.33664 39.9328M3.53163 40.2654C3.66665 40.5405 3.80383 40.8145 3.94306 41.0875M3.53163 40.2654C3.4827 40.1657 3.43405 40.0659 3.3857 39.9659M3.33664 39.9328C2.94814 39.269 2.76649 38.951 3.0977 39.483C3.12575 39.5281 3.15355 39.5733 3.18111 39.6187M3.33664 39.9328C3.28333 39.8261 3.22975 39.718 3.18111 39.6187M3.33664 39.9328C3.43949 40.1386 3.54136 40.3392 3.6049 40.462C3.71407 40.6732 3.82692 40.8815 3.94306 41.0875M3.18111 39.6187C3.25071 39.7334 3.31881 39.8492 3.3857 39.9659M3.18111 39.6187C3.02471 39.2993 2.91942 39.0702 3.03835 39.2678C3.06178 39.3068 3.0852 39.3457 3.10862 39.3847M3.3857 39.9659C3.29223 39.7727 3.19984 39.5789 3.10862 39.3847M4.30664 41.7078C4.18234 41.5033 4.06101 41.2966 3.94306 41.0875M3.10862 39.3847C2.98113 39.1132 2.85588 38.8407 2.73301 38.5671M3.10862 39.3847C4.0107 40.8849 4.90248 42.3936 5.78366 43.9065M2.73301 38.5671C2.54104 38.1398 2.35488 37.7099 2.17504 37.2775C2.15236 37.2229 2.15046 37.203 2.16399 37.2089M2.73301 38.5671C2.43817 38.0481 2.15476 37.5441 1.91184 37.1069M2.73301 38.5671C3.41832 39.7734 4.16529 41.0602 4.60849 41.7746C5.16295 42.6684 5.75341 43.5457 6.21339 44.4935M2.16399 37.2089C2.22857 37.2373 2.64442 37.8565 2.82856 38.1303M2.16399 37.2089C2.38052 37.5204 2.60249 37.827 2.82856 38.1303M2.16399 37.2089C2.15122 37.1905 2.13849 37.1722 2.12575 37.1538M2.82856 38.1303C2.87487 38.1992 2.90651 38.2462 2.91425 38.2565C3.31439 38.7902 3.72237 39.3183 4.13367 39.8434C4.28219 40.0331 4.35756 40.3736 4.5977 40.3975C4.60058 40.3978 4.60316 40.3978 4.60546 40.3977M2.82856 38.1303C3.40134 38.8988 4.00065 39.6461 4.60546 40.3977M4.60546 40.3977C4.66191 40.3935 4.54597 40.2552 4.51137 40.1931C4.30027 39.8143 4.05961 39.4527 3.8477 39.0742C3.73626 38.8751 3.63184 38.6726 3.53143 38.4681M4.60546 40.3977C4.76089 40.5908 4.91669 40.7843 5.07251 40.9785C5.18813 41.1226 5.73766 41.9643 5.37467 41.3227C4.95046 40.573 4.42123 39.8881 3.96101 39.1602C3.81634 38.9315 3.67258 38.7008 3.53143 38.4681M3.53143 38.4681C3.34308 38.0846 3.16886 37.694 2.98894 37.3063M3.53143 38.4681C3.2955 38.0792 3.06684 37.6847 2.85341 37.284M2.98894 37.3063C2.96081 37.2456 2.93254 37.1851 2.90406 37.1246M2.98894 37.3063C3.10988 37.3259 3.19638 37.3394 3.2164 37.342C3.31607 37.3552 3.41575 37.3681 3.51543 37.381M2.98894 37.3063C2.94739 37.2995 2.90178 37.292 2.85341 37.284M2.90406 37.1246C2.89009 37.095 2.87607 37.0654 2.86199 37.0358M2.90406 37.1246C2.85657 37.1192 2.80906 37.1141 2.76155 37.1092M2.90406 37.1246C2.96701 37.1318 3.02992 37.1396 3.09281 37.1478M2.86199 37.0358C2.85425 37.0195 2.84649 37.0032 2.83871 36.987C2.80804 36.9229 2.78677 36.8758 2.77389 36.8424M2.86199 37.0358C2.80145 37.0071 2.7408 36.9788 2.68032 36.9507M2.86199 37.0358C2.93929 37.0724 3.01642 37.1095 3.09281 37.1478M2.77389 36.8424C2.72089 36.705 2.81027 36.8005 2.9736 36.9063C3.12456 37.0041 3.27606 37.102 3.42989 37.196M2.77389 36.8424C2.8164 36.8843 2.85869 36.9259 2.89267 36.9547C2.95459 37.0072 3.06196 37.0831 3.1739 37.1586M2.77389 36.8424C2.6281 36.6987 2.47971 36.5509 2.65526 36.9009C2.66358 36.9175 2.67194 36.9341 2.68032 36.9507M3.42989 37.196C3.55802 37.2743 3.68779 37.3498 3.82021 37.4202M3.42989 37.196C3.34466 37.1828 3.25932 37.1703 3.1739 37.1586M3.42989 37.196C3.83725 37.2591 4.24206 37.3378 4.64086 37.4173C4.69539 37.4282 6.03715 37.7758 5.29373 37.5142C4.39595 37.1983 3.51509 36.8621 2.59051 36.6266C2.38052 36.5731 1.98609 36.4962 1.64256 36.4313M3.82021 37.4202C3.86325 37.4431 3.90657 37.4655 3.95022 37.4873C4.2013 37.6124 4.47367 37.8091 4.75546 37.9783M3.82021 37.4202C4.96291 37.5665 6.10528 37.7062 7.24156 37.9015C8.03072 38.0371 7.3235 37.9113 7.00955 37.88C6.34588 37.8138 5.66706 37.8135 5.00777 37.923C4.91504 37.9384 4.82878 37.9575 4.75546 37.9783M3.82021 37.4202C3.71903 37.4073 3.61785 37.3943 3.51667 37.3812M4.75546 37.9783C4.8974 38.0635 5.04173 38.1418 5.18693 38.2004M4.75546 37.9783C4.44735 38.0659 4.36768 38.1849 4.99697 38.1973C5.06027 38.1986 5.12359 38.1996 5.18693 38.2004M5.18693 38.2004C5.36065 38.2706 5.5356 38.3126 5.7092 38.3049C6.52631 38.2687 7.34576 38.1935 8.16485 38.0891M5.18693 38.2004C6.17623 38.2129 7.17021 38.1709 8.16485 38.0891M8.16485 38.0891C10.6779 37.7687 13.1875 37.1737 15.6156 36.5889C15.9115 36.5177 16.4616 36.4051 16.9329 36.296M8.16485 38.0891C10.3792 37.9069 12.5968 37.5275 14.7733 37.1131M16.9329 36.296C17.5489 36.1534 18.0302 36.0169 17.6336 35.9864C17.3949 35.9681 17.177 36.0909 17.0023 36.2393C16.9831 36.2556 16.9594 36.2748 16.9329 36.296ZM16.9329 36.296C16.907 36.3167 16.8783 36.3393 16.8485 36.363M16.8485 36.363C16.645 36.5243 16.3863 36.7333 16.5545 36.718C16.7627 36.6992 16.9948 36.616 17.2331 36.501M16.8485 36.363C16.7938 36.3734 16.7571 36.3809 16.7433 36.3845C16.1127 36.5481 15.3635 36.7552 14.7733 37.1131M16.8485 36.363C16.9969 36.3346 17.2777 36.2843 17.5917 36.2317M17.2331 36.501C17.4121 36.4146 17.5947 36.3102 17.7733 36.2016M17.2331 36.501C17.1314 36.5792 17.0401 36.6516 16.9807 36.7033M17.2331 36.501C17.3498 36.4113 17.4802 36.3139 17.5917 36.2317M17.7733 36.2016C18.1286 35.9854 18.4685 35.7522 18.7343 35.6099C19.5985 35.1471 20.4575 34.6756 21.335 34.2381C21.7618 34.0254 20.485 34.6716 20.0724 34.9106C19.3647 35.3205 18.666 35.7466 17.9662 36.1704M17.7733 36.2016C17.712 36.2116 17.6513 36.2217 17.5917 36.2317M17.7733 36.2016C17.8373 36.1911 17.9018 36.1806 17.9662 36.1704M17.9662 36.1704C17.7171 36.3212 17.4679 36.4718 17.2181 36.6212C17.1786 36.6448 17.1434 36.6655 17.1123 36.6835M17.9662 36.1704C18.5414 36.0789 19.1 36.0032 19.0904 36.051C19.0287 36.3589 17.8469 36.5714 17.1123 36.6835M17.1123 36.6835C16.87 36.8234 16.8711 36.7986 16.9807 36.7033M17.1123 36.6835C17.0666 36.6905 17.0226 36.6971 16.9807 36.7033M16.9807 36.7033C16.7736 36.7339 16.6181 36.755 16.5599 36.7664C15.9681 36.8824 15.3723 36.9991 14.7733 37.1131M17.5917 36.2317C17.7239 36.1341 17.8297 36.0578 17.8548 36.0402C19.3187 35.0201 20.8856 34.1914 22.4681 33.3721C23.1928 32.9969 23.9461 32.6342 24.6789 32.2378M24.6789 32.2378C25.4082 31.8433 26.1172 31.4154 26.7576 30.9083C26.8014 30.8737 26.8401 30.8429 26.8742 30.8157M24.6789 32.2378C24.2825 32.6889 23.8883 33.1408 23.5041 33.598C23.4426 33.6711 23.3806 33.7473 23.3172 33.8242M24.6789 32.2378C26.7147 29.9212 28.81 27.6223 29.9141 24.6952C29.9377 24.6327 29.9657 24.548 29.9953 24.4522M26.8742 30.8157C27.2163 30.5422 27.0858 30.6318 26.8742 30.8157ZM26.8742 30.8157C26.8053 30.8755 26.7277 30.9454 26.6551 31.0159C25.6095 32.0319 24.4281 32.8845 23.3172 33.8242M23.3172 33.8242C23.3003 33.8384 23.2835 33.8527 23.2667 33.867C22.9888 34.1032 22.1475 34.789 22.4681 34.6147C22.8027 34.4328 23.0704 34.1231 23.3172 33.8242ZM29.9953 24.4522C30.141 23.9808 30.3262 23.24 30.2163 23.5494C30.1133 23.8391 30.0436 24.1431 29.9953 24.4522ZM29.9953 24.4522C29.9223 24.9192 29.898 25.3979 29.8817 25.8571C29.8641 26.3535 29.7242 27.2428 29.8988 27.776M29.8988 27.776C29.9126 27.8184 29.9284 27.8584 29.9465 27.8959C30.022 28.0527 30.0871 27.7113 30.1496 27.4578M29.8988 27.776C29.9833 27.6707 30.067 27.5646 30.1496 27.4578M29.8988 27.776C29.2296 28.6098 28.5048 29.4002 27.7774 30.1606C27.0321 30.9398 26.2561 31.6894 25.502 32.4597M30.1496 27.4578C30.1666 27.3891 30.1834 27.3268 30.2001 27.2827C30.4852 26.5302 30.787 25.7837 31.0796 25.0341C32.1162 22.3775 33.2391 19.6905 34.1425 16.9597M30.1496 27.4578C31.0202 26.3334 31.7802 25.1291 32.3044 23.813C32.3338 23.739 32.3999 23.5277 32.4532 23.3165M34.1425 16.9597C34.2851 16.5285 34.4222 16.0963 34.5527 15.6629M34.1425 16.9597C34.2474 16.36 34.3433 15.7586 34.4365 15.1566M34.1425 16.9597C33.9173 18.2472 33.6508 19.5263 33.281 20.7844C33.0427 21.5951 32.7771 22.4642 32.4532 23.3165M34.5527 15.6629C34.6391 15.3761 34.7225 15.0887 34.8027 14.8008M34.5527 15.6629C34.5969 15.8683 34.6374 16.0745 34.6731 16.2819C34.8129 17.0949 34.6287 18.1356 34.8997 18.9124C35.0734 19.4104 34.9168 17.858 34.9267 17.3309C34.9443 16.3921 35.0184 15.4567 35.0184 14.5175C35.0184 14.3721 35.0736 13.8925 35.006 14.068M34.5527 15.6629C34.5163 15.4936 34.4773 15.3249 34.4365 15.1566M34.8027 14.8008C34.8544 14.6152 34.9048 14.4293 34.9536 14.2431C34.9762 14.1572 34.9933 14.101 35.006 14.068M34.8027 14.8008C34.8049 15.0252 34.8138 15.2485 34.8349 15.4696C34.8467 15.5932 34.8707 15.6987 34.9213 15.5019C34.9476 15.3997 34.9653 15.295 34.9752 15.1899C35.0101 14.819 35.0147 14.4434 35.006 14.068M34.8027 14.8008C34.7974 14.2777 34.8283 13.7493 34.8242 13.2318C34.8233 13.1276 34.8461 12.825 34.8026 12.9198C34.638 13.2777 34.6182 13.9716 34.5652 14.3184L34.5557 14.3806C34.5161 14.6393 34.4765 14.898 34.4365 15.1566M35.006 14.068C34.9976 13.707 34.9769 13.3462 34.959 12.9897C34.9086 11.9839 34.7946 10.991 34.6722 9.99806M34.4365 15.1566C34.0973 13.7594 33.6279 12.3925 33.3889 10.9725C33.1478 9.53972 33.0835 8.07627 33.076 6.62598L33.0758 6.62189C33.0738 6.5469 33.0438 5.47135 33.0867 5.83522C33.1687 6.53002 33.3596 7.2233 33.5831 7.88475C33.8123 8.56288 34.111 9.22993 34.5274 9.81593C34.5812 9.89173 34.6295 9.95203 34.6722 9.99806M34.6722 9.99806C34.9217 10.2669 34.9833 10.0486 34.8781 9.58462C34.7579 9.0542 34.6087 8.521 34.4308 7.99275M34.6722 9.99806C34.59 9.33097 34.5039 8.66385 34.4308 7.99275M34.4308 7.99275C34.4105 7.9327 34.3899 7.87271 34.369 7.81281M34.4308 7.99275C34.4288 7.97468 34.4268 7.95662 34.4249 7.93854C34.4108 7.80856 34.3988 7.67874 34.3885 7.54898M34.369 7.81281C34.3589 7.78407 34.3488 7.75535 34.3385 7.72664M34.369 7.81281C34.3755 7.73742 34.3822 7.64335 34.3885 7.54898M34.369 7.81281C34.3528 8.00049 34.3385 8.0724 34.3385 7.74489V7.72664M34.3385 7.72664V6.1795M29.785 1.59779C29.3676 1.25051 28.7391 0.723455 29.2679 1.17394C29.5207 1.38933 29.6755 1.5163 29.785 1.59779ZM34.3885 7.54898C34.3525 7.09315 34.3385 6.63809 34.3385 6.1795M34.3385 6.1795V6.14722M32.4532 23.3165C32.0289 24.4331 31.5044 25.5209 30.8098 26.4112C30.068 27.362 31.6421 24.1351 32.2558 23.0975C32.6125 22.4945 32.557 22.9054 32.4532 23.3165ZM25.502 32.4597C25.0203 32.9518 24.5476 33.4524 24.0976 33.9746C24.0855 33.9886 24.0733 34.0025 24.061 34.0161M25.502 32.4597C24.8821 32.8542 24.2483 33.3635 23.844 33.9746C23.7714 34.0842 23.7265 34.1632 23.7031 34.2168M25.502 32.4597C25.5375 32.4371 25.573 32.4149 25.6084 32.393C26.6985 31.7199 25.5096 33.0312 25.2307 33.243C24.8579 33.526 24.4659 33.7813 24.061 34.0161M24.061 34.0161C23.8494 34.2509 23.6119 34.426 23.7031 34.2168M24.061 34.0161C23.9427 34.0847 23.8234 34.1515 23.7031 34.2168M23.7031 34.2168C22.8296 34.6908 21.9066 35.0821 20.9951 35.4593C19.256 36.1788 17.4848 36.8675 15.6372 37.256L15.6183 37.2599C15.2201 37.3437 14.1659 37.5655 14.4663 37.3259C14.5622 37.2495 14.6651 37.1787 14.7733 37.1131M3.51667 37.3812L3.51543 37.381M3.51667 37.3812C3.50688 37.3752 3.49705 37.3691 3.4872 37.3632M3.51667 37.3812C3.52452 37.3861 3.53234 37.3909 3.54015 37.3958C3.6137 37.442 3.58878 37.4274 3.51543 37.381M3.51543 37.381C3.50668 37.3755 3.49724 37.3695 3.4872 37.3632M2.85341 37.284C2.62704 37.2463 2.34012 37.1966 2.12575 37.1538M2.85341 37.284C2.82246 37.2258 2.79183 37.1676 2.76155 37.1092M2.12575 37.1538C2.03999 37.1366 1.96585 37.1206 1.91184 37.1069M2.12575 37.1538C2.10517 37.124 2.08464 37.0942 2.06416 37.0644M1.91184 37.1069C1.80708 37.0803 1.77809 37.0625 1.88706 37.0623M1.91184 37.1069C1.90353 37.092 1.89527 37.0771 1.88706 37.0623M1.88706 37.0623L1.88908 37.0623C1.9474 37.0623 2.00577 37.063 2.06416 37.0644M1.88706 37.0623C1.7579 36.8296 1.64075 36.6168 1.54013 36.432M2.06416 37.0644C2.29643 37.0698 2.5291 37.0857 2.76155 37.1092M2.06416 37.0644C1.9326 36.8727 1.80315 36.6791 1.6761 36.4832M2.76155 37.1092C2.73418 37.0565 2.7071 37.0036 2.68032 36.9507M3.09281 37.1478C3.11984 37.1513 3.14688 37.1549 3.1739 37.1586M3.09281 37.1478C3.22761 37.2153 3.36011 37.2861 3.4872 37.3632M3.1739 37.1586C3.28804 37.2356 3.40692 37.3122 3.4872 37.3632M1.64256 36.4313C1.60362 36.4239 1.56533 36.4167 1.52804 36.4098M1.64256 36.4313C1.65372 36.4486 1.6649 36.4659 1.6761 36.4832M1.64256 36.4313C1.5637 36.309 1.48577 36.1859 1.40887 36.0617C1.00563 35.4109 1.13736 35.6913 1.52804 36.4098M1.52804 36.4098C1.48147 36.401 1.43646 36.3926 1.39367 36.3846M1.52804 36.4098C1.53204 36.4171 1.53607 36.4245 1.54013 36.432M1.39367 36.3846C1.06609 36.3234 0.868788 36.2868 1.10131 36.32C1.19915 36.3339 1.29671 36.3562 1.39367 36.3846ZM1.39367 36.3846C1.44266 36.3989 1.49151 36.4148 1.54013 36.432M1.54013 36.432C1.58565 36.448 1.63099 36.4652 1.6761 36.4832M1.6761 36.4832C1.91941 36.5802 2.15618 36.7019 2.38008 36.8095C2.47886 36.857 2.57936 36.9036 2.68032 36.9507M6.21339 44.4935C6.22344 44.5142 6.23344 44.5349 6.24337 44.5557C6.42915 44.9447 6.28534 44.7701 6.15164 44.5396C6.02919 44.3285 5.90653 44.1175 5.78366 43.9065M6.21339 44.4935C6.06898 44.2982 5.92559 44.1027 5.78366 43.9065M6.21339 44.4935C6.30573 44.6183 6.39849 44.743 6.49157 44.8677C6.8985 45.413 7.27925 45.9851 7.67303 46.5448M7.67303 46.5448C7.79383 46.7166 7.91585 46.8871 8.04023 47.0554M7.67303 46.5448C7.816 46.7369 7.97001 46.9424 8.1014 47.1178M7.67303 46.5448C7.52744 46.3492 7.39334 46.1676 7.30631 46.0458L7.30166 46.0392C7.25475 45.9725 6.87933 45.4384 7.08509 45.7768C7.37696 46.257 7.67362 46.6752 8.04023 47.0554M8.04023 47.0554C8.1427 47.194 8.24677 47.3311 8.35307 47.466C8.53349 47.6949 8.36196 47.4656 8.1014 47.1178M8.04023 47.0554C8.0604 47.0763 8.08079 47.0971 8.1014 47.1178M8.1014 47.1178C8.2663 47.2833 8.44546 47.4418 8.64443 47.5951C10.0324 48.6643 11.5346 49.5599 13.0851 50.3708C13.4351 50.5539 13.7846 50.7329 14.1264 50.9303C14.2522 51.0028 13.9001 50.7476 13.7973 50.6451C13.7358 50.5839 13.6405 50.4715 13.5485 50.3606M13.5485 50.3606C13.3787 50.156 13.2202 49.9563 13.3063 50.0911C13.3677 50.1873 13.4512 50.2768 13.5485 50.3606ZM13.5485 50.3606C13.8836 50.6493 14.3823 50.8698 14.7038 51.0594L14.7869 51.1084C15.0282 51.2507 15.2701 51.3934 15.5138 51.5334M15.5138 51.5334C16.1752 51.9136 16.8492 52.2741 17.5581 52.5548C18.5326 52.9407 17.352 52.2991 17.1048 52.1783C16.5985 51.9307 16.0567 51.7071 15.5138 51.5334ZM15.5138 51.5334C15.4308 51.5069 15.3478 51.4815 15.2649 51.4574C15.099 51.4092 15.9729 52.0052 15.9933 52.0169C17.0915 52.645 18.1983 53.0467 19.4465 53.2541C19.4661 53.2574 19.652 53.2835 19.8789 53.3102M19.8789 53.3102C20.417 53.3737 21.1853 53.4411 20.5095 53.2165C19.9165 53.0194 19.3003 52.8947 18.6911 52.7592C18.6383 52.7475 17.8364 52.4737 18.2811 52.6732C18.8092 52.9101 19.3418 53.1216 19.8789 53.3102ZM31.1211 2.53339C31.1486 2.31383 31.6745 2.65298 31.7146 2.67325C31.7167 2.67432 31.7188 2.67538 31.7209 2.67644M31.7209 2.67644C32.0181 2.82633 32.2159 2.90251 32.3645 2.9427M31.7209 2.67644C32.6102 3.3337 32.1077 2.74357 32.922 3.56361C34.2699 4.92105 35.2767 6.6856 35.9327 8.52664M31.7209 2.67644C31.71 2.66839 31.6989 2.66016 31.6876 2.65173C31.6631 2.63345 31.536 2.52832 31.3792 2.39779M32.3645 2.9427C32.8031 3.06128 32.8139 2.86646 33.6882 3.32692C34.9953 4.01543 36.3087 4.69123 37.6254 5.36047M32.3645 2.9427C31.637 2.49987 31.6828 2.62388 31.3792 2.39779M32.3645 2.9427C32.391 2.95884 32.4185 2.97572 32.4472 2.9934C33.4915 3.6388 34.9491 4.18661 35.6684 5.23659C36.1809 5.98485 36.0462 7.06578 36.0083 7.92088C36.0069 7.95218 35.9959 8.15124 35.9827 8.34898M37.6254 5.36047C37.8032 5.45083 37.981 5.54108 38.1589 5.63122M37.6254 5.36047C37.5805 5.32152 37.5377 5.28202 37.4975 5.24197C37.2956 5.04065 37.7806 5.37855 38.1589 5.63122M37.6254 5.36047C37.9813 5.66903 38.4702 5.94269 38.8356 6.17798C39.552 6.63926 40.7773 7.32211 42.0285 7.99328M38.1589 5.63122C39.7524 6.43864 41.3502 7.23769 42.9471 8.03923C43.0068 8.06919 43.3024 8.2156 43.4003 8.27592C43.4345 8.29699 43.3187 8.27002 43.2816 8.2544C42.6858 8.00309 42.0843 7.7591 41.5011 7.47978C40.4569 6.97969 39.4392 6.41296 38.4471 5.81756C38.3744 5.77391 38.2714 5.70633 38.1589 5.63122ZM42.0285 7.99328C44.6461 9.39739 47.3774 10.7504 45.8014 9.91662C44.9839 9.48414 44.1839 9.02555 43.3572 8.60944C43.2735 8.56732 42.3924 8.09562 42.0285 7.99328ZM42.0285 7.99328C41.8895 7.95418 41.8259 7.969 41.9111 8.08226C42.98 9.50314 44.3224 10.713 45.7284 11.8226M45.7284 11.8226C46.3169 12.287 46.9165 12.7338 47.5118 13.1711C47.8224 13.3993 47.0506 12.5867 47.0154 12.5471C46.258 11.6959 45.4303 10.743 44.4903 10.0888C43.7749 9.59089 45.261 11.3566 45.2888 11.3852C45.4332 11.5335 45.5798 11.6792 45.7284 11.8226ZM45.7284 11.8226C46.9334 12.9855 48.2675 13.9999 49.5676 15.0543M49.5676 15.0543C49.627 15.1025 49.6864 15.1508 49.7456 15.1991C49.8253 15.2642 49.9816 15.3776 50.1712 15.5208M49.5676 15.0543C49.0083 14.4205 48.4875 13.757 48.0622 13.0205C47.7133 12.4165 48.3974 13.3302 48.4507 13.3917C49.0522 14.0861 49.6238 14.7871 50.1712 15.5208M49.5676 15.0543C49.8136 15.333 50.067 15.606 50.323 15.8769C50.5853 16.1546 50.87 16.435 51.1556 16.7235M50.1712 15.5208C50.4228 15.7109 50.733 15.9536 51.0004 16.2056M50.1712 15.5208C50.242 15.6157 50.3123 15.711 50.3823 15.807C50.417 15.8547 50.8155 16.3243 51.1476 16.6982M51.0004 16.2056C51.3577 16.5422 51.6387 16.8956 51.6017 17.1626C51.6006 17.171 51.5842 17.1605 51.5561 17.1352M51.0004 16.2056C50.8896 15.7995 50.8587 15.5485 51.073 15.8662C51.3702 16.3069 51.8316 17.1531 52.2407 17.9169M51.0004 16.2056C51.0413 16.3556 51.0932 16.5267 51.1476 16.6982M51.5561 17.1352C51.508 17.092 51.4256 17.0055 51.3259 16.8965M51.5561 17.1352C51.4799 17.0549 51.403 16.9754 51.3259 16.8965M51.5561 17.1352C51.7952 17.3873 52.0278 17.6468 52.2407 17.9169M51.3259 16.8965C51.2708 16.8361 51.2104 16.7689 51.1476 16.6982M51.3259 16.8965C51.2692 16.8385 51.2124 16.7808 51.1556 16.7235M51.1476 16.6982C51.1503 16.7066 51.1529 16.715 51.1556 16.7235M51.1556 16.7235C51.3094 17.206 51.4804 17.6829 51.483 17.6898C52.3273 19.8999 53.2213 22.0807 53.9119 24.3422M52.2407 17.9169C52.5656 18.3292 52.8447 18.7662 53.0316 19.239C53.3139 19.9536 52.8321 19.0213 52.2407 17.9169ZM53.9119 24.3422C53.9977 24.623 54.0803 24.9051 54.1593 25.1886C54.2156 25.3907 54.5791 27.0292 54.278 25.8449C54.151 25.3455 54.0217 24.8458 53.9119 24.3422ZM53.9119 24.3422C53.8402 24.0131 53.7767 23.6823 53.7276 23.3488C53.6551 22.8559 53.6089 22.3573 53.6089 21.8588C53.6089 21.3499 53.8514 22.8474 53.965 23.3435C54.6411 26.2954 55.5137 29.2275 55.8751 32.2409C55.9266 32.6705 55.9441 33.1168 55.9403 32.4922M55.9403 32.4922C55.9402 32.4691 55.94 32.4445 55.9398 32.4184C55.9323 31.4265 55.8733 30.435 55.8427 29.4436C55.8233 28.8155 55.7937 26.95 55.67 27.5662C55.4626 28.6003 55.7712 29.9274 55.8427 30.9606C55.8779 31.4695 55.9126 31.9804 55.9403 32.4922ZM55.9403 32.4922C56.0179 33.9207 56.0419 35.3561 55.8751 36.7757C55.8661 36.8519 55.3343 38.882 55.26 38.7338C55.051 38.317 55.0412 37.6885 55.0347 37.1507M55.0347 37.1507C55.0327 36.9816 55.031 36.8214 55.0235 36.6796M55.0347 37.1507C55.3226 36.2872 55.4156 35.8829 55.0765 36.5713C55.0588 36.6073 55.0411 36.6434 55.0235 36.6796M55.0347 37.1507C54.8566 37.6851 54.6039 38.3953 54.3327 39.1314M55.0235 36.6796C55.0232 36.674 55.0229 36.6683 55.0226 36.6627C55.007 36.3874 54.9964 36.1128 54.9919 35.8387M55.0235 36.6796C54.9198 36.893 54.8183 37.11 54.7196 37.33M54.9919 35.8387C54.9777 34.9715 55.0241 34.1095 55.1629 33.2468C55.2373 32.7842 55.4944 31.4245 55.5352 31.8912C55.5746 32.3437 55.4494 32.909 55.3895 33.3437C55.2744 34.1778 55.1376 35.0092 54.9919 35.8387ZM54.9919 35.8387C54.9506 36.0741 54.9086 36.3093 54.8661 36.5444C54.8187 36.8068 54.7701 37.0687 54.7196 37.33M54.7196 37.33C54.6031 37.9341 54.4767 38.535 54.3327 39.1314M54.7196 37.33C54.0717 38.7749 53.5421 40.3524 53.2608 41.9127M54.3327 39.1314C54.125 39.9922 53.8807 40.8436 53.5765 41.6816C53.4704 41.974 53.2303 42.7249 53.1507 42.858M54.3327 39.1314C53.9619 40.1383 53.5565 41.1935 53.2608 41.9127M53.1507 42.858C53.1431 42.8706 53.137 42.8777 53.1326 42.8783M53.1507 42.858C53.1445 42.8649 53.1385 42.8716 53.1326 42.8783M53.1507 42.858C53.4318 42.5433 53.9277 41.9987 53.8895 42.0689C53.1982 43.3384 52.4523 44.5965 51.5909 45.7592C50.4657 47.2779 49.0593 48.4491 47.5766 49.6C47.3718 49.759 46.9853 50.2104 47.01 49.7184C47.0503 48.916 47.3896 48.2532 47.8248 47.5882C47.8468 47.5545 47.869 47.5206 47.8913 47.4867M53.1326 42.8783C53.1237 42.8794 53.1217 42.8542 53.1287 42.7952C53.1633 42.5023 53.2076 42.2078 53.2608 41.9127M53.1326 42.8783C53.0638 42.9554 53.0099 43.0165 52.983 43.048C52.8378 43.218 52.6902 43.3891 52.5432 43.5621M53.2608 41.9127C53.2117 42.032 53.1657 42.142 53.1233 42.2411C52.9356 42.6798 52.7442 43.1224 52.5432 43.5621M52.5432 43.5621C52.1069 44.5168 51.6256 45.4583 51.0406 46.3186C50.566 47.0165 50.9608 45.8503 51.0352 45.7C51.4196 44.9234 51.9773 44.2282 52.5432 43.5621ZM47.8913 47.4867C48.3504 46.787 48.8638 46.033 49.4812 45.4687C49.9795 45.0134 48.7255 46.5926 48.2672 47.0879C48.143 47.2221 48.0177 47.355 47.8913 47.4867ZM47.8913 47.4867C47.7949 47.587 47.6979 47.6867 47.6003 47.7857M47.6003 47.7857C46.6609 48.7383 45.6665 49.6276 44.6413 50.493C44.3503 50.7387 44.0585 51.0057 43.7618 51.2732M47.6003 47.7857C47.6688 47.6956 47.7365 47.6046 47.8032 47.5128C47.8216 47.4875 48.5126 46.3625 48.3805 46.4477C47.6982 46.8879 47.0166 47.341 46.3571 47.8141C44.9131 48.85 43.3541 50.0055 42.332 51.4828C42.3147 51.5077 42.1257 51.8372 41.9861 52.1456M47.6003 47.7857C46.5864 49.1189 45.3791 50.275 44.0984 51.3555M43.7618 51.2732C43.2053 51.7748 42.6315 52.2781 42.0136 52.6447C41.7351 52.81 41.8296 52.491 41.9861 52.1456M43.7618 51.2732C43.161 51.5212 42.5592 51.812 41.9861 52.1456M43.7618 51.2732C43.8104 51.2531 43.859 51.2333 43.9075 51.2138C44.349 51.0366 44.3054 51.1537 44.0984 51.3555M41.9861 52.1456C41.5155 52.4194 41.0642 52.7221 40.6485 53.0536C40.4734 53.1933 40.2951 53.3479 40.1266 53.5162M44.0984 51.3555C43.8504 51.5648 43.5996 51.7712 43.3469 51.9756M44.0984 51.3555C43.9035 51.5455 43.5635 51.8106 43.3469 51.9756M43.3469 51.9756C43.0091 52.2488 42.6679 52.5183 42.3255 52.7858M43.3469 51.9756C43.2468 52.0518 43.1731 52.1067 43.1521 52.1229C42.8338 52.3698 42.5091 52.6073 42.1791 52.8369M42.3255 52.7858C41.5569 53.3862 40.7819 53.9766 40.0242 54.5769M42.3255 52.7858C42.2767 52.8029 42.2279 52.8199 42.1791 52.8369M42.3255 52.7858C42.9098 52.581 43.4913 52.3688 44.0694 52.1498C45.1368 51.7456 46.5939 51.3506 47.4687 50.5629C47.6407 50.408 47.5796 50.2141 47.3553 50.2886C47.1496 50.357 47.5358 49.8865 47.6845 49.7291C48.4277 48.9423 49.3211 48.2896 50.1719 47.6258C51.1402 46.8702 52.1521 46.1643 53.0909 45.3719C53.514 45.0148 53.9378 44.5102 54.3859 44.2422M40.0242 54.5769C40.0188 54.5811 40.0135 54.5854 40.0082 54.5896M40.0242 54.5769C40.1259 54.5731 40.1137 54.578 40.0082 54.5896M40.0242 54.5769C39.9347 54.5802 39.7572 54.5902 39.4777 54.6082C39.4403 54.6106 39.4007 54.6128 39.3591 54.6147M40.0082 54.5896C39.8539 54.7119 39.7004 54.8346 39.5478 54.9579C39.3427 55.1236 39.167 55.3762 39.2565 54.9525C39.2782 54.8494 39.3083 54.7485 39.3455 54.6499M40.0082 54.5896C39.8917 54.6024 39.6616 54.6234 39.3455 54.6499M39.3455 54.6499C39.35 54.6382 39.3545 54.6264 39.3591 54.6147M39.3455 54.6499C39.3057 54.6533 39.2646 54.6567 39.2221 54.6602M39.3591 54.6147C39.3645 54.6011 39.3701 54.5875 39.3758 54.574M39.3591 54.6147C39.3394 54.6157 39.3192 54.6166 39.2985 54.6174M39.3758 54.574C39.5408 54.1801 39.8174 53.8251 40.1266 53.5162M39.3758 54.574C40.3346 54.034 41.2767 53.4648 42.1791 52.8369M39.3758 54.574C39.35 54.5885 39.3243 54.6029 39.2985 54.6174M40.1266 53.5162C39.4384 53.7321 38.7471 53.9368 38.0532 54.1294C37.2288 54.3583 36.46 54.506 35.609 54.506C34.9348 54.506 35.6704 54.5565 36.7101 54.5929M40.1266 53.5162C40.8142 53.3006 41.4986 53.0738 42.1791 52.8369M39.2985 54.6174C39.2731 54.6317 39.2476 54.646 39.2221 54.6602M39.2985 54.6174C39.0117 54.629 38.6419 54.6315 38.2439 54.6281M39.2221 54.6602C39.0756 54.7421 38.9288 54.8233 38.7817 54.9041C37.6148 55.5442 36.2529 56.4338 34.9292 56.7061C34.3375 56.8278 34.9059 55.9019 35.0263 55.7432C35.1095 55.6336 35.2015 55.5313 35.3008 55.4358M39.2221 54.6602C38.8465 54.6913 38.3685 54.7289 37.8261 54.7694M35.3008 55.4358C35.52 55.2251 35.775 55.0474 36.0508 54.896M35.3008 55.4358C35.6057 55.3624 35.9099 55.2856 36.2133 55.2053C36.7279 55.0691 37.2851 54.9392 37.8261 54.7694M35.3008 55.4358C34.3982 55.6531 33.4895 55.8414 32.5765 56.0077M36.0508 54.896C36.2607 54.7807 36.4827 54.6807 36.7101 54.5929M36.0508 54.896C33.9603 55.0378 31.5819 55.173 30.2889 55.173C28.6616 55.173 27.0452 55.0907 25.422 54.9955C25.1317 54.9785 26.1847 55.062 26.2421 55.0654C27.0679 55.1153 27.8873 55.1823 28.7026 55.329L28.7068 55.3298C28.8866 55.3622 29.8666 55.5386 29.0803 55.4958C26.4599 55.3533 23.921 54.97 21.4731 54.1102M36.0508 54.896C36.6813 54.8532 37.2857 54.8099 37.8261 54.7694M36.7101 54.5929C37.2596 54.3809 37.8409 54.2403 38.3608 54.1294C38.6545 54.0668 39.5166 53.9868 39.2619 54.1456C38.9494 54.3403 38.6039 54.4962 38.2439 54.6281M36.7101 54.5929C37.1927 54.6099 37.7409 54.6237 38.2439 54.6281M38.2439 54.6281C38.1064 54.6785 37.9668 54.7253 37.8261 54.7694M32.5765 56.0077C32.1684 56.082 31.7595 56.152 31.3498 56.2182M32.5765 56.0077C32.0995 55.9938 31.6562 56.0049 31.1576 56.023C30.5421 56.0452 29.9265 56.0797 29.312 56.1281M32.5765 56.0077C32.6616 56.0101 32.7478 56.0134 32.8356 56.0176C33.0418 56.0274 33.6164 56.0453 33.44 56.1521C33.2076 56.2927 32.6137 56.2381 32.3986 56.2381C32.0489 56.2381 31.6993 56.2302 31.3498 56.2182M31.3498 56.2182C30.7797 56.3104 30.2083 56.3954 29.636 56.4748C29.5061 56.4929 29.3762 56.5105 29.2463 56.5278M31.3498 56.2182C30.8485 56.201 30.3473 56.1752 29.8464 56.1521C29.6683 56.1438 29.4902 56.1359 29.312 56.1281M29.2463 56.5278C28.923 56.5708 28.5994 56.6115 28.2757 56.6501M29.2463 56.5278C28.7202 56.4638 28.1067 56.3924 27.4749 56.3173M29.2463 56.5278C30.6057 56.693 31.3821 56.8083 30.386 56.8083C29.6835 56.8083 28.9784 56.7476 28.2757 56.6501M28.2757 56.6501C27.4626 56.7471 26.6481 56.831 25.8321 56.9052C25.6888 56.9182 24.8925 57.0715 24.6828 56.959C24.6132 56.9216 26.0784 56.5255 26.1234 56.5179C26.3601 56.4778 26.5972 56.4403 26.8348 56.4054M28.2757 56.6501C27.7937 56.5832 27.3128 56.4991 26.8348 56.4054M26.8348 56.4054C27.0479 56.374 27.2613 56.3447 27.4749 56.3173M26.8348 56.4054C26.1886 56.2787 25.5475 56.1346 24.9155 55.9922M27.4749 56.3173C28.0855 56.239 28.6982 56.1766 29.312 56.1281M27.4749 56.3173C26.5954 56.2127 25.6802 56.1009 24.9155 55.9922M29.312 56.1281C27.7994 56.0623 26.2851 56.0097 24.7745 55.91C24.6806 55.9038 24.5346 55.8881 24.3805 55.87M24.3805 55.87C23.9841 55.8236 23.5332 55.7619 23.7709 55.8078C24.0772 55.8669 24.4709 55.929 24.9155 55.9922M24.3805 55.87C24.5406 55.9072 24.7007 55.9438 24.8609 55.9799L24.8778 55.9837C24.8903 55.9866 24.9029 55.9894 24.9155 55.9922M24.3805 55.87C23.2713 55.6122 22.1651 55.3257 21.0766 54.9878M21.0766 54.9878C20.6242 54.8474 20.1748 54.6981 19.7296 54.5383C19.4067 54.4224 18.6843 54.1098 19.476 54.3769C20.0181 54.5597 20.5523 54.7625 21.0766 54.9878ZM21.0766 54.9878C21.7481 55.2763 22.4031 55.6017 23.0371 55.9692C24.0596 56.5618 23.2231 56.1544 22.6702 55.9477C21.1515 55.3799 19.5779 54.9585 18.0192 54.5167C17.2642 54.3028 15.0412 53.5427 15.7584 53.8605C16.7728 54.3099 17.8384 54.6153 18.8771 55.0009C19.5366 55.2458 20.7808 55.5548 21.2781 56.109C21.3389 56.1767 21.0958 56.0915 21.0084 56.066C20.3075 55.8618 19.619 55.6072 18.9364 55.3505C17.6644 54.8723 16.4004 54.3653 15.1511 53.8276M15.1511 53.8276C14.7748 53.6657 14.3998 53.5009 14.0264 53.3333C13.7742 53.2201 12.1785 52.3522 13.3142 53.0213C14.1658 53.523 15.0323 53.9856 15.9149 54.4307C16.0313 54.4894 17.0432 55.102 16.3681 54.6459C15.9631 54.3722 15.5572 54.0999 15.1511 53.8276ZM15.1511 53.8276C13.6834 52.8436 12.2141 51.8607 10.7838 50.824M10.7838 50.824C10.1406 50.3578 9.50533 49.8807 8.88162 49.3877M10.7838 50.824C10.811 50.8641 10.8379 50.9044 10.8645 50.9449C10.9621 51.0931 10.9216 51.0512 10.8052 50.9556C10.1658 50.4306 9.52434 49.9088 8.88162 49.3877M10.7838 50.824C10.5459 50.473 10.2867 50.1324 10.0336 49.7937C9.18434 48.6572 8.22449 47.6046 7.38973 46.4585C7.31089 46.3502 6.61419 45.3125 7.1847 45.9475C7.82979 46.6654 8.47123 47.3866 9.11634 48.1046C9.43615 48.4605 9.88908 48.9448 9.42389 48.153C8.64285 46.8235 7.73798 45.5768 6.86635 44.3068C6.86369 44.3029 6.86104 44.299 6.85838 44.2951M8.88162 49.3877C8.69622 49.2412 8.51184 49.0932 8.32858 48.9438C7.80209 48.5143 8.81641 49.3349 8.82498 49.3418C8.84386 49.3571 8.86274 49.3724 8.88162 49.3877ZM6.85838 44.2951C6.80226 44.2133 6.74652 44.1311 6.69124 44.0487M6.85838 44.2951C6.71495 44.0308 6.56772 43.7684 6.42391 43.5052C6.37096 43.4083 6.31861 43.3109 6.26669 43.213M6.85838 44.2951C6.95907 44.4807 7.05789 44.6671 7.15232 44.8554C7.26725 45.0846 6.89448 44.4121 6.76923 44.1884C6.74318 44.1419 6.71719 44.0953 6.69124 44.0487M6.69124 44.0487C6.18315 43.2913 5.7135 42.5097 5.32859 41.6816C5.30416 41.6291 5.23665 41.4691 5.26384 41.5203C5.38702 41.7522 5.49159 41.986 5.62535 42.2142C5.77618 42.4715 5.93709 42.7222 6.10248 42.9698M6.69124 44.0487C6.49193 43.6909 6.29556 43.3313 6.10248 42.9698M6.10248 42.9698C6.15679 43.0512 6.2116 43.1322 6.26669 43.213M6.10248 42.9698C5.91072 42.6109 5.72219 42.2501 5.53726 41.8875M6.26669 43.213C6.5309 43.6007 6.80169 43.984 7.05726 44.3774M6.26669 43.213C6.14293 42.9798 6.02167 42.7441 5.90084 42.5078M7.05726 44.3774C7.12991 44.4892 7.20134 44.6018 7.27103 44.7156C7.80967 45.5949 7.25002 44.719 7.06599 44.3928C7.0631 44.3877 7.06019 44.3825 7.05726 44.3774ZM7.05726 44.3774C6.9504 44.1882 6.81358 43.9502 6.65897 43.6835M6.65897 43.6835C6.28216 43.0335 5.79977 42.2128 5.38843 41.5126M6.65897 43.6835C6.39703 43.2977 6.1433 42.9068 5.90084 42.5078M6.65897 43.6835C6.8928 44.0279 7.13317 44.3682 7.37786 44.7065M5.38843 41.5126C5.29672 41.3565 5.20853 41.2064 5.12584 41.0654M5.38843 41.5126C5.25595 41.2611 5.12062 41.0115 4.9799 40.7659M5.38843 41.5126C5.56222 41.8426 5.73111 42.1759 5.90084 42.5078M5.12584 41.0654C5.05661 40.9475 4.99123 40.8359 4.93084 40.7328M5.12584 41.0654C5.26085 41.3405 5.39803 41.6145 5.53726 41.8875M5.12584 41.0654C5.07691 40.9657 5.02825 40.8659 4.9799 40.7659M4.93084 40.7328C4.54234 40.069 4.36069 39.751 4.6919 40.283C4.71995 40.3281 4.74776 40.3733 4.77532 40.4187M4.93084 40.7328C4.87753 40.6261 4.82395 40.518 4.77532 40.4187M4.93084 40.7328C5.03369 40.9386 5.13556 41.1392 5.1991 41.262C5.30827 41.4732 5.42113 41.6815 5.53726 41.8875M4.77532 40.4187C4.84491 40.5334 4.91301 40.6492 4.9799 40.7659M4.77532 40.4187C4.61891 40.0993 4.51362 39.8702 4.63255 40.0678C4.65598 40.1068 4.6794 40.1457 4.70282 40.1847M4.9799 40.7659C4.88643 40.5727 4.79405 40.3789 4.70282 40.1847M5.90084 42.5078C5.77654 42.3033 5.65521 42.0966 5.53726 41.8875M4.70282 40.1847C4.57533 39.9132 4.45008 39.6407 4.32721 39.3671M4.70282 40.1847C5.6049 41.6849 6.49668 43.1936 7.37786 44.7065M4.32721 39.3671C4.13524 38.9398 3.94908 38.5099 3.76925 38.0775C3.74656 38.0229 3.74466 38.003 3.7582 38.0089M4.32721 39.3671C4.03238 38.8481 3.74896 38.3441 3.50604 37.9069M4.32721 39.3671C5.01252 40.5734 5.75949 41.8602 6.20269 42.5746C6.75715 43.4684 7.34761 44.3457 7.80759 45.2935M3.7582 38.0089C3.82277 38.0373 4.23863 38.6565 4.42277 38.9303M3.7582 38.0089C3.97472 38.3204 4.19669 38.627 4.42277 38.9303M3.7582 38.0089C3.74542 37.9905 3.7327 37.9722 3.71996 37.9538M4.42277 38.9303C4.46907 38.9992 4.50072 39.0462 4.50845 39.0565C4.90859 39.5902 5.31657 40.1183 5.72787 40.6434C5.87639 40.8331 5.95176 41.1736 6.1919 41.1975C6.19478 41.1978 6.19736 41.1978 6.19966 41.1977M4.42277 38.9303C4.99555 39.6988 5.59485 40.4461 6.19966 41.1977M6.19966 41.1977C6.25612 41.1935 6.14017 41.0552 6.10557 40.9931C5.89447 40.6143 5.65381 40.2527 5.4419 39.8742C5.33046 39.6751 5.22604 39.4726 5.12563 39.2681M6.19966 41.1977C6.35509 41.3908 6.5109 41.5843 6.66671 41.7785C6.78233 41.9226 7.33186 42.7643 6.96887 42.1227C6.54467 41.373 6.01543 40.6881 5.55521 39.9602C5.41054 39.7315 5.26678 39.5008 5.12563 39.2681M5.12563 39.2681C4.93728 38.8846 4.76306 38.494 4.58314 38.1063M5.12563 39.2681C4.8897 38.8792 4.66105 38.4847 4.44761 38.084M4.58314 38.1063C4.55501 38.0456 4.52675 37.9851 4.49826 37.9246M4.58314 38.1063C4.70409 38.1259 4.79059 38.1394 4.81061 38.142C4.91027 38.1552 5.00995 38.1681 5.10963 38.181M4.58314 38.1063C4.5416 38.0995 4.49599 38.092 4.44761 38.084M4.49826 37.9246C4.48429 37.895 4.47027 37.8654 4.45619 37.8358M4.49826 37.9246C4.45077 37.9192 4.40326 37.9141 4.35575 37.9092M4.49826 37.9246C4.56121 37.9318 4.62413 37.9396 4.68701 37.9478M4.45619 37.8358C4.44845 37.8195 4.44069 37.8032 4.43292 37.787C4.40225 37.7229 4.38097 37.6758 4.36809 37.6424M4.45619 37.8358C4.39565 37.8071 4.335 37.7788 4.27452 37.7507M4.45619 37.8358C4.5335 37.8724 4.61062 37.9095 4.68701 37.9478M4.36809 37.6424C4.31509 37.505 4.40447 37.6005 4.5678 37.7063C4.71876 37.8041 4.87026 37.902 5.02409 37.996M4.36809 37.6424C4.4106 37.6843 4.45289 37.7259 4.48687 37.7547C4.54879 37.8072 4.65616 37.8831 4.7681 37.9586M4.36809 37.6424C4.2223 37.4987 4.07391 37.3509 4.24946 37.7009C4.25778 37.7175 4.26614 37.7341 4.27452 37.7507M5.02409 37.996C5.15223 38.0743 5.28199 38.1498 5.41441 38.2202M5.02409 37.996C4.93886 37.9828 4.85352 37.9703 4.7681 37.9586M5.02409 37.996C5.43145 38.0591 5.83626 38.1378 6.23506 38.2173C6.28959 38.2282 7.63135 38.5758 6.88793 38.3142C5.99016 37.9983 5.10929 37.6621 4.18472 37.4266C3.97472 37.3731 3.58029 37.2962 3.23676 37.2313M5.41441 38.2202C5.45745 38.2431 5.50078 38.2655 5.54442 38.2873C5.7955 38.4124 6.06788 38.6091 6.34966 38.7783M5.41441 38.2202C6.55711 38.3665 7.69948 38.5062 8.83577 38.7015C9.62492 38.8371 8.9177 38.7113 8.60375 38.68C7.94008 38.6138 7.26126 38.6135 6.60197 38.723C6.50925 38.7384 6.42299 38.7575 6.34966 38.7783M5.41441 38.2202C5.31323 38.2073 5.21205 38.1943 5.11087 38.1812M6.34966 38.7783C6.49161 38.8635 6.63594 38.9418 6.78114 39.0004M6.34966 38.7783C6.04156 38.8659 5.96189 38.9849 6.59117 38.9973C6.65448 38.9986 6.7178 38.9996 6.78114 39.0004M6.78114 39.0004C6.95485 39.0706 7.1298 39.1126 7.3034 39.1049C8.12052 39.0687 8.93997 38.9935 9.75906 38.8891M6.78114 39.0004C7.77043 39.0129 8.76441 38.9709 9.75906 38.8891M9.75906 38.8891C12.2721 38.5687 14.7817 37.9737 17.2098 37.3889C17.5057 37.3177 18.0558 37.2051 18.5271 37.096M9.75906 38.8891C11.9734 38.7069 14.191 38.3275 16.3675 37.9131M18.5271 37.096C19.1431 36.9534 19.6244 36.8169 19.2278 36.7864C18.9891 36.7681 18.7712 36.8909 18.5965 37.0393C18.5773 37.0556 18.5536 37.0748 18.5271 37.096ZM18.5271 37.096C18.5012 37.1167 18.4725 37.1393 18.4427 37.163M18.4427 37.163C18.2392 37.3243 17.9805 37.5333 18.1487 37.518C18.3569 37.4992 18.589 37.416 18.8273 37.301M18.4427 37.163C18.388 37.1734 18.3513 37.1809 18.3375 37.1845C17.7069 37.3481 16.9577 37.5552 16.3675 37.9131M18.4427 37.163C18.5911 37.1346 18.8719 37.0843 19.1859 37.0317M18.8273 37.301C19.0063 37.2146 19.1889 37.1102 19.3675 37.0016M18.8273 37.301C18.7256 37.3792 18.6343 37.4516 18.5749 37.5033M18.8273 37.301C18.944 37.2113 19.0744 37.1139 19.1859 37.0317M19.3675 37.0016C19.7228 36.7854 20.0627 36.5522 20.3285 36.4099C21.1927 35.9471 22.0517 35.4756 22.9292 35.0381C23.356 34.8254 22.0792 35.4716 21.6666 35.7106C20.9589 36.1205 20.2602 36.5466 19.5604 36.9704M19.3675 37.0016C19.3062 37.0116 19.2455 37.0217 19.1859 37.0317M19.3675 37.0016C19.4315 36.9911 19.496 36.9806 19.5604 36.9704M19.5604 36.9704C19.3113 37.1212 19.0621 37.2718 18.8123 37.4212C18.7728 37.4448 18.7376 37.4655 18.7065 37.4835M19.5604 36.9704C20.1356 36.8789 20.6942 36.8032 20.6846 36.851C20.6229 37.1589 19.4411 37.3714 18.7065 37.4835M18.7065 37.4835C18.4642 37.6234 18.4653 37.5986 18.5749 37.5033M18.7065 37.4835C18.6608 37.4905 18.6168 37.4971 18.5749 37.5033M18.5749 37.5033C18.3678 37.5339 18.2123 37.555 18.1541 37.5664C17.5623 37.6824 16.9665 37.7991 16.3675 37.9131M19.1859 37.0317C19.3181 36.9341 19.4239 36.8578 19.449 36.8402C20.9129 35.8201 22.4798 34.9914 24.0623 34.1721C24.787 33.7969 25.5403 33.4342 26.2731 33.0378M26.2731 33.0378C27.0024 32.6433 27.7114 32.2154 28.3518 31.7083C28.3956 31.6737 28.4343 31.6429 28.4684 31.6157M26.2731 33.0378C25.8767 33.4889 25.4825 33.9408 25.0983 34.398C25.0368 34.4711 24.9748 34.5473 24.9114 34.6242M26.2731 33.0378C28.3089 30.7212 30.4042 28.4223 31.5083 25.4952C31.5319 25.4327 31.5599 25.348 31.5895 25.2522M28.4684 31.6157C28.8105 31.3422 28.68 31.4318 28.4684 31.6157ZM28.4684 31.6157C28.3995 31.6755 28.3219 31.7454 28.2493 31.8159C27.2037 32.8319 26.0223 33.6845 24.9114 34.6242M24.9114 34.6242C24.8945 34.6384 24.8777 34.6527 24.8609 34.667C24.583 34.9032 23.7417 35.589 24.0623 35.4147C24.3969 35.2328 24.6646 34.9231 24.9114 34.6242ZM31.5895 25.2522C31.7352 24.7808 31.9204 24.04 31.8105 24.3494C31.7076 24.6391 31.6378 24.9431 31.5895 25.2522ZM31.5895 25.2522C31.5165 25.7192 31.4922 26.1979 31.4759 26.6571C31.4583 27.1535 31.3184 28.0428 31.493 28.576M31.493 28.576C31.5068 28.6184 31.5226 28.6584 31.5407 28.6959C31.6162 28.8527 31.6813 28.5113 31.7438 28.2578M31.493 28.576C31.5775 28.4707 31.6612 28.3646 31.7438 28.2578M31.493 28.576C30.8238 29.4098 30.099 30.2002 29.3716 30.9606C28.6263 31.7398 27.8503 32.4894 27.0962 33.2597M31.7438 28.2578C31.7608 28.1891 31.7776 28.1268 31.7943 28.0827C32.0794 27.3302 32.3812 26.5837 32.6738 25.8341C33.7104 23.1775 34.8333 20.4905 35.7367 17.7597M31.7438 28.2578C32.6144 27.1334 33.3744 25.9291 33.8986 24.613C33.928 24.539 33.9941 24.3277 34.0474 24.1165M35.7367 17.7597C35.8793 17.3285 36.0164 16.8963 36.1469 16.4629M35.7367 17.7597C35.8416 17.16 35.9375 16.5586 36.0307 15.9566M35.7367 17.7597C35.5115 19.0472 35.245 20.3263 34.8752 21.5844C34.6369 22.3951 34.3713 23.2642 34.0474 24.1165M36.1469 16.4629C36.2333 16.1761 36.3167 15.8887 36.3969 15.6008M36.1469 16.4629C36.1911 16.6683 36.2316 16.8745 36.2673 17.0819C36.4071 17.8949 36.2229 18.9356 36.4939 19.7124C36.6676 20.2104 36.511 18.658 36.5209 18.1309C36.5385 17.1921 36.6126 16.2567 36.6126 15.3175C36.6126 15.1721 36.6678 14.6925 36.6002 14.868M36.1469 16.4629C36.1105 16.2936 36.0715 16.1249 36.0307 15.9566M36.3969 15.6008C36.4486 15.4152 36.499 15.2293 36.5479 15.0431C36.5704 14.9572 36.5875 14.901 36.6002 14.868M36.3969 15.6008C36.3991 15.8252 36.408 16.0485 36.4291 16.2696C36.441 16.3932 36.4649 16.4987 36.5155 16.3019C36.5418 16.1997 36.5596 16.095 36.5694 15.9899C36.6043 15.619 36.6089 15.2434 36.6002 14.868M36.3969 15.6008C36.3916 15.0777 36.4225 14.5493 36.4184 14.0318C36.4175 13.9276 36.4403 13.625 36.3968 13.7198C36.2322 14.0777 36.2124 14.7716 36.1594 15.1184L36.1499 15.1806C36.1103 15.4393 36.0708 15.698 36.0307 15.9566M36.6002 14.868C36.5918 14.507 36.5711 14.1462 36.5532 13.7897C36.5028 12.7839 36.3888 11.791 36.2664 10.7981M36.0307 15.9566C35.6915 14.5594 35.2221 13.1925 34.9831 11.7725C34.742 10.3397 34.6777 8.87627 34.6702 7.42598L34.67 7.42189C34.668 7.3469 34.638 6.27135 34.681 6.63522C34.7629 7.33002 34.9538 8.0233 35.1774 8.68475C35.4065 9.36288 35.7052 10.0299 36.1216 10.6159C36.1754 10.6917 36.2237 10.752 36.2664 10.7981M36.2664 10.7981C36.5159 11.0669 36.5775 10.8486 36.4723 10.3846C36.3521 9.85419 36.2029 9.32099 36.025 8.79275M36.2664 10.7981C36.1842 10.131 36.0981 9.46385 36.025 8.79275M36.025 8.79275C36.0047 8.7327 35.9841 8.67271 35.9632 8.6128M36.025 8.79275C36.023 8.77468 36.021 8.75662 36.0191 8.73854C36.005 8.60856 35.993 8.47874 35.9827 8.34898M35.9632 8.6128C35.9531 8.58407 35.943 8.55535 35.9327 8.52664M35.9632 8.6128C35.9697 8.53742 35.9764 8.44335 35.9827 8.34898M35.9632 8.6128C35.947 8.80049 35.9327 8.8724 35.9327 8.54489V8.52664M35.9327 8.52664V6.9795M31.3792 2.39779C30.9618 2.05051 30.3333 1.52346 30.8621 1.97394C31.1149 2.18933 31.2697 2.3163 31.3792 2.39779ZM35.9827 8.34898C35.9467 7.89315 35.9327 7.43809 35.9327 6.9795M35.9327 6.9795V6.94722M34.0474 24.1165C33.6231 25.2331 33.0986 26.3209 32.404 27.2112C31.6622 28.162 33.2363 24.9351 33.85 23.8975C34.2067 23.2945 34.1512 23.7054 34.0474 24.1165ZM27.0962 33.2597C26.6145 33.7518 26.1418 34.2524 25.6918 34.7746C25.6797 34.7886 25.6675 34.8025 25.6552 34.8161M27.0962 33.2597C26.4763 33.6542 25.8425 34.1635 25.4382 34.7746C25.3656 34.8842 25.3207 34.9632 25.2973 35.0168M27.0962 33.2597C27.1317 33.2371 27.1672 33.2149 27.2026 33.193C28.2927 32.5199 27.1038 33.8312 26.8249 34.043C26.4521 34.326 26.0601 34.5813 25.6552 34.8161M25.6552 34.8161C25.4436 35.0509 25.2061 35.226 25.2973 35.0168M25.6552 34.8161C25.5369 34.8847 25.4176 34.9515 25.2973 35.0168M25.2973 35.0168C24.4238 35.4908 23.5008 35.8821 22.5893 36.2593C20.8502 36.9788 19.079 37.6675 17.2314 38.056L17.2125 38.0599C16.8143 38.1437 15.7601 38.3655 16.0605 38.1259C16.1564 38.0495 16.2593 37.9787 16.3675 37.9131M5.11087 38.1812L5.10963 38.181M5.11087 38.1812C5.10108 38.1752 5.09126 38.1691 5.0814 38.1632M5.11087 38.1812C5.11871 38.1861 5.12654 38.1909 5.13435 38.1958C5.2079 38.242 5.18298 38.2274 5.10963 38.181M5.10963 38.181C5.10088 38.1755 5.09144 38.1695 5.0814 38.1632M4.44761 38.084C4.22124 38.0463 3.93432 37.9966 3.71996 37.9538M4.44761 38.084C4.41667 38.0258 4.38603 37.9676 4.35575 37.9092M3.71996 37.9538C3.6342 37.9366 3.56005 37.9206 3.50604 37.9069M3.71996 37.9538C3.69938 37.924 3.67885 37.8942 3.65836 37.8644M3.50604 37.9069C3.40128 37.8803 3.37229 37.8625 3.48127 37.8623M3.50604 37.9069C3.49774 37.892 3.48948 37.8771 3.48127 37.8623M3.48127 37.8623L3.48328 37.8623C3.54161 37.8623 3.59997 37.863 3.65836 37.8644M3.48127 37.8623C3.3521 37.6296 3.23495 37.4168 3.13434 37.232M3.65836 37.8644C3.89063 37.8698 4.1233 37.8857 4.35575 37.9092M3.65836 37.8644C3.5268 37.6727 3.39735 37.4791 3.2703 37.2832M4.35575 37.9092C4.32838 37.8565 4.3013 37.8036 4.27452 37.7507M4.68701 37.9478C4.71405 37.9513 4.74108 37.9549 4.7681 37.9586M4.68701 37.9478C4.82181 38.0153 4.95432 38.0861 5.0814 38.1632M4.7681 37.9586C4.88224 38.0356 5.00113 38.1122 5.0814 38.1632M3.23676 37.2313C3.19783 37.2239 3.15953 37.2167 3.12224 37.2098M3.23676 37.2313C3.24792 37.2486 3.2591 37.2659 3.2703 37.2832M3.23676 37.2313C3.1579 37.109 3.07997 36.9859 3.00307 36.8617C2.59983 36.2109 2.73156 36.4913 3.12224 37.2098M3.12224 37.2098C3.07567 37.201 3.03066 37.1926 2.98787 37.1846M3.12224 37.2098C3.12625 37.2171 3.13027 37.2245 3.13434 37.232M2.98787 37.1846C2.6603 37.1234 2.46299 37.0868 2.69551 37.12C2.79335 37.1339 2.89092 37.1562 2.98787 37.1846ZM2.98787 37.1846C3.03686 37.1989 3.08571 37.2148 3.13434 37.232M3.13434 37.232C3.17985 37.248 3.22519 37.2652 3.2703 37.2832M3.2703 37.2832C3.51361 37.3802 3.75039 37.5019 3.97428 37.6095C4.07306 37.657 4.17356 37.7036 4.27452 37.7507M7.80759 45.2935C7.81765 45.3142 7.82764 45.3349 7.83757 45.3557C8.02335 45.7447 7.87954 45.5701 7.74584 45.3396C7.62339 45.1285 7.50073 44.9175 7.37786 44.7065M7.80759 45.2935C7.66318 45.0982 7.51979 44.9027 7.37786 44.7065M7.80759 45.2935C7.89993 45.4183 7.9927 45.543 8.08577 45.6677C8.4927 46.213 8.87346 46.7851 9.26723 47.3448M9.26723 47.3448C9.38803 47.5166 9.51005 47.6871 9.63443 47.8554M9.26723 47.3448C9.4102 47.5369 9.56422 47.7424 9.6956 47.9178M9.26723 47.3448C9.12164 47.1492 8.98754 46.9676 8.90051 46.8458L8.89586 46.8392C8.84895 46.7725 8.47354 46.2384 8.67929 46.5768C8.97116 47.057 9.26782 47.4752 9.63443 47.8554M9.63443 47.8554C9.7369 47.994 9.84097 48.1311 9.94727 48.266C10.1277 48.4949 9.95617 48.2656 9.6956 47.9178M9.63443 47.8554C9.6546 47.8763 9.67499 47.8971 9.6956 47.9178M9.6956 47.9178C9.8605 48.0833 10.0397 48.2418 10.2386 48.3951C11.6266 49.4643 13.1288 50.3599 14.6793 51.1708C15.0293 51.3539 15.3788 51.5329 15.7206 51.7303C15.8464 51.8028 15.4943 51.5476 15.3915 51.4451C15.33 51.3839 15.2347 51.2715 15.1427 51.1606M15.1427 51.1606C14.9729 50.956 14.8144 50.7563 14.9005 50.8911C14.9619 50.9873 15.0454 51.0768 15.1427 51.1606ZM15.1427 51.1606C15.4778 51.4493 15.9765 51.6698 16.298 51.8594L16.3811 51.9084C16.6224 52.0507 16.8643 52.1934 17.108 52.3334M17.108 52.3334C17.7694 52.7136 18.4434 53.0741 19.1523 53.3548C20.1268 53.7407 18.9462 53.0991 18.699 52.9783C18.1927 52.7307 17.6509 52.5071 17.108 52.3334ZM17.108 52.3334C17.025 52.3069 16.942 52.2815 16.8591 52.2574C16.6932 52.2092 17.5671 52.8052 17.5875 52.8169C18.6857 53.445 19.7925 53.8467 21.0407 54.0541C21.0603 54.0574 21.2462 54.0835 21.4731 54.1102M21.4731 54.1102C22.0112 54.1737 22.7795 54.2411 22.1037 54.0165C21.5107 53.8194 20.8945 53.6947 20.2853 53.5592C20.2325 53.5475 19.4306 53.2737 19.8753 53.4732C20.4034 53.7101 20.936 53.9216 21.4731 54.1102Z" stroke="black" stroke-linecap="round"/>
</svg>
