<svg width="1107" height="340" viewBox="0 0 1107 340" fill="none" xmlns="http://www.w3.org/2000/svg">
<path d="M678.437 231.962C680.494 229.459 681.173 224.82 681.345 221.731C681.568 217.736 679.127 213.829 677.379 210.348C676.739 209.075 676.169 207.774 675.528 206.499C675.319 206.083 673.351 203.168 674.008 203.012C678.953 201.835 682.922 203.19 687.394 205.035C689.704 205.989 692.351 206.824 694.203 208.572C695.813 210.092 697.354 211.465 699.194 212.717C700.285 213.459 701.117 214.293 701.987 215.266C703.352 216.795 705.322 217.561 706.68 219.083C707.537 220.043 708.365 221.118 709.308 221.994C710.387 222.997 712.872 222.488 714.199 222.488C718.028 222.488 722.539 223.184 726.23 222.043C734.504 219.488 743.259 220.216 750.788 215.447C753.48 213.742 754.936 210.464 756.523 207.832C758.437 204.657 760.262 201.429 760.902 197.748C760.968 197.373 760.988 196.349 761.167 196.038C761.387 195.653 762.819 198.339 762.919 198.538C765.031 202.743 767.899 206.943 769.463 211.368C772.316 219.438 774.018 227.885 774.884 236.403C775.237 239.887 774.775 243.077 773.628 246.404C772.603 249.373 772.194 251.795 770.074 254.168C769.402 254.921 768.55 256.012 767.678 256.471C765.759 257.482 767.562 255.806 767.959 255.188C769.053 253.487 769.545 251.479 770.653 249.793C771.285 248.831 771.848 247.885 772.272 246.799C773.565 243.49 773.033 239.588 773.033 236.107C773.033 234.452 773.053 232.795 773.033 231.14C773.006 228.915 772.242 226.889 771.843 224.725C770.816 219.155 768.554 213.881 766.637 208.572C765.772 206.177 765.028 202.481 763.216 200.578C761.913 199.208 760.823 196.903 759.084 196.038C758.608 195.801 758.772 199.683 758.754 200.216C758.68 202.419 757.472 205.003 756.539 206.943C753.931 212.372 747.668 215.256 742.195 217.323C736.47 219.484 730.689 220.861 724.611 221.534C721.479 221.88 718.156 221.599 715.009 221.599C713.574 221.599 711.627 221.827 710.266 221.237C709.301 220.82 708.433 220.051 707.523 219.527C705.571 218.404 702.767 217.357 701.491 215.382C700.456 213.779 698.415 212.578 696.88 211.533C695.217 210.4 693.557 209.327 691.84 208.276C690.862 207.677 688.98 206.96 688.253 206.055C687.839 205.54 686.517 205.266 685.94 205.019C684.167 204.259 682.28 203.79 680.453 203.176C677.681 202.245 675.684 202.058 672.785 202.058C670.977 202.058 671.665 202.425 672.553 203.538C673.509 204.736 674.744 205.79 675.313 207.239C676.11 209.266 677.181 211.349 678.139 213.309C678.703 214.463 679.763 215.866 679.908 217.158C680.286 220.545 679.225 223.798 678.718 227.077C678.553 228.144 677.804 229.184 677.412 230.186C676.963 231.335 676.725 232.617 676.057 233.673C674.773 235.702 674.892 238.442 673.677 240.483C672.444 242.554 671.595 245.898 671.595 248.312C671.595 251.174 671 253.939 671 256.767C671 262.772 671.218 268.299 674.041 273.71C675.363 276.245 676.545 277.968 678.668 279.697C680.304 281.029 682.378 281.148 684.089 282" stroke="black" stroke-width="5" stroke-linecap="round"/>
<path d="M694.895 243.257C694.12 243.645 693.278 243.736 692.486 243.298C690.494 242.195 695.22 239.258 695.929 238.862C696.638 238.466 702.633 235.472 703.046 237.27C703.295 238.352 702.355 239.73 701.842 240.577C701.039 241.902 700.114 243.332 698.719 244.101C698.149 244.415 697.43 244.622 696.773 244.605C696.316 244.592 696.346 243.854 696.31 243.536C696.051 241.207 697.119 239.77 699.045 238.597C700.331 237.814 701.693 237.196 703.073 236.603C703.994 236.208 703.333 236.91 703.039 237.42C702.011 239.2 700.89 240.924 699.576 242.509C698.826 243.414 697.858 244.68 696.732 245.169C696.453 245.291 696.408 242.493 696.446 242.25C696.8 240.032 698.597 237.797 700.814 237.188C701.547 236.987 701.478 237.604 701.318 238.141C700.727 240.121 699.467 241.992 698.066 243.482C697.036 244.577 695.791 245.587 694.283 245.897C693.755 246.006 693.915 245.461 693.915 245.095C693.915 242.093 695.229 239.844 697.671 238.073C698.697 237.329 699.837 236.618 700.957 236.018C701.351 235.807 700.801 237.522 700.787 237.569C700.075 240.039 698.79 244.007 695.739 244.333C695.117 244.399 695.385 242.704 695.385 242.278" stroke="black" stroke-width="5" stroke-linecap="round"/>
<path d="M735.895 241.257C735.12 241.645 734.278 241.736 733.486 241.298C731.494 240.195 736.22 237.258 736.929 236.862C737.638 236.466 743.633 233.472 744.046 235.27C744.295 236.352 743.355 237.73 742.842 238.577C742.039 239.902 741.114 241.332 739.719 242.101C739.149 242.415 738.43 242.622 737.773 242.605C737.316 242.592 737.346 241.854 737.31 241.536C737.051 239.207 738.119 237.77 740.045 236.597C741.331 235.814 742.693 235.196 744.073 234.603C744.994 234.208 744.333 234.91 744.039 235.42C743.011 237.2 741.89 238.924 740.576 240.509C739.826 241.414 738.858 242.68 737.732 243.169C737.453 243.291 737.408 240.493 737.446 240.25C737.8 238.032 739.597 235.797 741.814 235.188C742.547 234.987 742.478 235.604 742.318 236.141C741.727 238.121 740.467 239.992 739.066 241.482C738.036 242.577 736.791 243.587 735.283 243.897C734.755 244.006 734.915 243.461 734.915 243.095C734.915 240.093 736.229 237.844 738.671 236.073C739.697 235.329 740.837 234.618 741.957 234.018C742.351 233.807 741.801 235.522 741.787 235.569C741.075 238.039 739.79 242.007 736.739 242.333C736.117 242.399 736.385 240.704 736.385 240.278" stroke="black" stroke-width="5" stroke-linecap="round"/>
<path d="M66.0139 44.6979C57.0998 53.3574 44.962 58.3891 34.3285 64.4769C27.2497 68.5297 21.3873 74.1168 14.4845 78.3352C14.098 78.5714 11.7055 79.8507 12.923 78.4978C16.4851 74.5399 20.8073 71.0621 25.2198 68.1204C33.3532 62.6981 42.3317 58.9184 51.3424 55.238C58.1667 52.4506 66.8107 49.852 72.5202 44.9582C73.71 43.9383 72.7698 45.3056 72.325 45.869C69.9506 48.8766 66.1029 50.9763 62.956 53.0259C57.6421 56.4869 52.3261 59.8675 46.4302 62.2648C39.2284 65.1929 31.7015 67.2677 24.6017 70.4626C21.7363 71.7521 19.2527 73.5141 16.599 75.1471C15.5573 75.7882 15.5525 77.3515 14.4845 77.9448C12.4927 79.0514 13.3134 72.114 13.3134 71.1133C13.3134 64.1928 14.0419 84.9508 13.8339 91.8682C13.6192 99.0065 12.7484 106.18 11.2965 113.176C10.2706 118.119 10.3856 113.092 10.3856 111.062C10.3856 100.296 9.72497 89.3066 10.4181 78.5629C11.123 67.6369 10.5001 100.514 9.21446 111.387C8.07794 120.999 5.58856 149.888 5.70109 140.21C5.86649 125.985 7.45778 111.786 7.45778 97.5286C7.45778 94.1237 7.45778 90.7187 7.45778 87.3138C7.45778 78.4404 7.40027 105.075 6.74209 113.924C5.53968 130.09 1.77668 146.06 3.32631 162.331C3.5784 164.978 3.48781 157.014 3.65162 154.361C4.04761 147.946 4.22097 141.535 4.85528 135.135C5.38647 129.774 6.80124 124.583 7.39271 119.259C7.42155 119 7.45382 118.218 7.45778 118.479C7.51763 122.429 7.80565 126.371 7.91321 130.32C8.15265 139.111 7.49402 147.649 5.83122 156.28C4.75564 161.863 3.94441 167.341 3.94441 173.034C3.94441 180.679 5.1257 157.788 5.70109 150.164C6.29287 142.323 7.567 134.766 9.08433 127.067C9.6472 124.211 10.217 120.845 9.53977 126.156C7.63361 141.104 3.94441 155.569 3.94441 170.756C3.94441 171.743 3.94441 174.703 3.94441 173.717C3.94441 171.901 5.77616 170.26 6.87221 168.967C8.91838 166.554 11.9257 164.859 14.5496 163.177C25.0477 156.447 36.1633 150.689 47.3736 145.252C54.1665 141.957 61.6867 139.219 67.3477 134.061C68.789 132.748 72.3407 128.292 71.6744 130.125C70.2941 133.921 64.1637 136.968 61.0041 138.746C51.7079 143.975 41.02 147.123 32.5068 153.677C28.5516 156.723 31.6204 154.052 33.4177 152.636C43.4819 144.712 54.3022 137.564 65.1681 130.808C76.4477 123.795 88.043 117.383 99.5536 110.769C102.424 109.12 105.272 107.44 107.979 105.531C109.49 104.466 108.798 105.008 108.044 105.857C103.797 110.635 98.1115 113.961 92.6245 117.112C80.6467 123.991 68.0839 129.887 55.604 135.785C47.7409 139.501 38.0985 142.897 31.8562 149.253C29.7107 151.438 35.968 146.032 36.6057 145.61C42.6075 141.637 48.3964 137.323 54.2376 133.118C57.1324 131.034 59.9068 128.859 62.5656 126.481C63.4584 125.683 64.2586 124.77 65.2332 124.074C65.5094 123.877 64.9898 124.72 64.7777 124.985C58.8835 132.353 51.4796 139.111 44.0228 144.829C34.4171 152.194 23.5167 157.054 13.476 163.632C6.44104 168.241 26.4807 152.722 34.0032 148.96C42.9332 144.495 20.2056 164.236 11.0362 168.186C9.13076 169.007 8.34589 161.303 8.17346 159.923C6.99623 150.506 7.64194 140.997 8.33612 131.556C8.60187 127.942 8.73337 126.273 8.59637 131.068C8.40363 137.814 7.43617 144.498 6.28665 151.14C5.50102 155.679 4.27432 160.226 3.97694 164.836C3.75987 168.2 5.01233 160.804 5.11553 160.379C7.81038 149.282 11.3239 138.226 16.8918 128.173C18.9893 124.386 21.7839 121.19 25.0897 118.414C26.1255 117.544 21.1929 121.846 19.8847 122.578C17.7578 123.767 15.4244 125.103 18.9738 122.773C26.1807 118.041 32.9445 112.867 40.5095 108.654C45.8805 105.663 51.421 103 56.8727 100.164C59.8016 98.6398 63.5547 97.0573 66.079 94.796C70.9499 90.4324 54.7404 101.32 48.9676 104.393C42.5445 107.811 35.8901 110.783 29.579 114.412C27.4198 115.654 29.8623 113.862 30.0344 113.729C33.9966 110.666 38.4386 108.447 42.9168 106.247C51.5663 101.997 60.6992 98.4707 69.1369 93.82C69.6934 93.5133 71.2062 92.347 70.6659 92.6814C67.5065 94.6373 64.5028 96.9789 61.5246 99.1877C51.6637 106.501 41.775 113.611 31.4983 120.333C28.6437 122.2 25.6785 124.019 23.0077 126.156C22.2093 126.795 22.2684 127.025 23.1378 126.156C27.4046 121.889 31.3847 117.808 36.4105 114.347C44.9756 108.45 54.4179 103.971 62.8909 97.919C65.23 96.2482 57.672 102.73 57.3606 102.994C47.1438 111.647 36.0905 118.44 23.5282 123.163C22.3661 123.6 21.1974 124.021 20.0148 124.399C19.1352 124.68 17.595 125.724 17.2822 124.855C17.0473 124.202 20.2351 121.536 20.4377 121.341C25.659 116.321 31.2735 112.442 37.7769 109.24C40.5406 107.879 43.3258 106.57 46.0723 105.173C46.9507 104.727 48.8704 102.989 48.7724 103.97C48.6413 105.281 46.7611 105.674 45.7145 106.475C42.3942 109.014 39.0566 111.53 35.6298 113.924C31.6515 116.705 27.567 119.32 23.4957 121.96C22.7873 122.419 20.441 124.374 19.2991 124.66C18.7622 124.794 19.8654 123.698 20.2425 123.293C22.1549 121.239 24.2628 119.331 26.5211 117.665C27.1981 117.166 35.4548 111.544 36.0202 112.298C36.7552 113.278 21.9516 121.291 20.9257 121.732C19.3352 122.415 11.8372 125.148 12.0772 124.985C16.1836 122.193 20.6909 119.074 25.4801 117.6C27.3765 117.017 20.1297 122.421 18.9738 123.066C18.6347 123.255 12.6032 126.063 14.1592 124.79C17.7441 121.857 22.4316 119.864 26.6187 117.991C27.7864 117.468 29.9912 116.12 31.4007 116.071C31.6484 116.063 28.7509 118.238 28.538 118.349C26.4079 119.451 24.0696 120.659 21.6414 120.821C21.0236 120.862 18.8245 121.816 19.9498 120.691C22.1587 118.482 24.828 116.676 27.2693 114.738C31.541 111.345 23.014 116.789 22.0968 117.308C21.2781 117.771 13.9646 121.083 18.1931 119.259C24.978 116.333 31.7387 113.158 38.2974 109.76C46.8184 105.346 55.8299 100.596 63.0211 94.1453C63.3834 93.8203 69.2871 88.2047 66.1115 91.3802C62.6039 94.8878 58.3951 97.737 54.4979 100.782C53.3337 101.691 49.6447 103.791 51.1146 103.644C53.1265 103.443 56.849 99.6538 58.4016 98.5696C65.0317 93.9396 71.7642 89.4941 78.636 85.2318C80.0469 84.3567 84.4602 82.4992 82.8 82.4992C81.1367 82.4992 77.3719 85.9614 76.0335 86.7933C70.8965 89.9866 65.3394 92.8653 59.6703 94.9912C59.1403 95.1899 60.2378 93.9797 60.6788 93.6248C62.7443 91.9629 64.895 90.3781 67.0549 88.8428C71.7768 85.4863 77.0998 83.0528 81.7916 79.7015C84.8094 77.5459 75.9091 84.2207 72.9105 86.4029C69.2947 89.0345 58.3774 96.7891 62.2403 94.5357C66.5123 92.0437 70.8327 89.6252 75.0576 87.0535C78.9447 84.6875 69.9272 90.6693 69.3972 90.9898C65.7554 93.1918 60.8631 96.8129 56.6449 96.8129" stroke="black" stroke-width="5" stroke-linecap="round"/>
<path d="M117.274 74.0375C117.449 77.7061 118.495 81.7856 119.422 85.32C120.958 91.1742 121.281 97.2375 122.892 103.023C124.77 109.771 126.558 116.548 128.321 123.322C130.006 129.797 131.338 137.033 134.788 142.865C135.831 144.628 135.745 147.1 136.653 144.447C139.883 135.005 142.729 125.497 149.068 117.657C150.016 116.485 151.613 114.956 152.042 113.455C152.902 110.448 149.094 118.977 147.77 121.811C144.688 128.41 133.319 146.92 138.045 141.378C141.668 137.131 144.8 132.608 147.723 127.854C153.348 118.705 159.389 110.096 166.086 101.701C167.932 99.3869 169.672 96.9683 171.562 94.6906C172.023 94.1355 172.424 93.6199 172.058 94.6198C171.669 95.6832 170.839 97.2671 170.359 98.1603C164.966 108.188 157.642 116.663 150.272 125.257C146.09 130.133 140.66 135.467 138.706 141.78C138.659 141.932 138.57 142.397 138.635 142.252C139.59 140.152 141.209 138.266 142.554 136.422C148.402 128.399 154.358 120.461 160.61 112.747C167.934 103.712 175.985 95.2568 183.175 86.1225C185.292 83.4338 190.409 74.5146 188.793 77.5308C184.197 86.11 178.31 93.9374 172.436 101.677C165.002 111.473 156.99 120.553 148.856 129.742C147.573 131.19 146.342 132.686 145.457 134.415C145.27 134.78 145.055 135.243 144.961 135.666C144.92 135.852 145.157 135.34 145.244 135.171C154.821 116.581 168.428 100.536 181.759 84.6119C186.406 79.0611 191.577 73.3999 193.891 66.3899C194.872 63.4189 192.167 70.8921 191.909 71.3939C188.538 77.9331 184.114 83.9759 179.54 89.7102C170.937 100.498 162.451 111.382 153.812 122.142C149.343 127.708 144.826 133.237 140.217 138.688C139.164 139.933 137.754 142.007 136.346 143.054C133.722 145.006 139.132 137.102 140.996 134.415C152.374 118.013 167.031 105.214 180.673 90.8432C181.711 89.7502 180.934 90.9421 180.602 91.5513C179.279 93.9851 177.773 96.3131 176.189 98.5852C169.065 108.803 160.489 117.92 152.585 127.523C151.716 128.579 145.101 135.32 146.448 137.437C146.859 138.083 151.548 129.017 151.783 128.562C154.538 123.2 157.497 117.83 159.454 112.11C159.778 111.161 159.659 111.389 159.194 112.086C157.132 115.18 155.267 118.36 153.482 121.622C150.823 126.482 147.38 131.084 145.079 136.115C144.237 137.955 143.384 138.771 141.704 139.891C139.639 141.268 137.161 142.265 135.213 143.715C133.93 144.67 133.787 144.384 133.419 142.771C132.424 138.405 131.655 133.99 130.634 129.624C127.558 116.473 122.373 104.256 122.373 90.6072C122.373 87.1217 122.373 83.6363 122.373 80.1508C122.373 79.8597 122.373 78.9864 122.373 79.2775C122.373 81.8907 122.397 84.5012 122.467 87.1138C122.858 101.675 121.423 116.733 124.874 130.969C126.125 136.129 123.851 120.364 122.609 115.202C119.528 102.402 115.071 89.7428 113.875 76.5867" stroke="black" stroke-width="5" stroke-linecap="round"/>
<path d="M245.158 56.618C245.026 57.9339 243.898 59.2803 243.175 60.3002C239.059 66.1119 234.086 71.3004 229.769 76.9643C222.729 86.1987 216.173 95.8141 209.328 105.194C205.953 109.819 202.113 114.083 198.706 118.625C197.989 119.581 194.519 126.004 193.089 125.163C190.537 123.662 212.761 93.4522 213.978 91.8817C223.146 80.0516 234.922 68.0503 238.124 52.9123C238.422 51.5064 238.785 49.6424 238.785 52.2278C238.785 55.2223 238.801 57.9624 237.747 60.8195C231.45 77.877 223.477 94.9554 211.216 108.522C205.121 115.267 199.125 121.796 193.419 128.845C186.865 136.941 176.825 143.871 172.318 153.487C170.079 158.263 166.016 162.928 162.711 167.059C162.213 167.681 159.136 171.106 161.129 169.113C163.597 166.645 165.744 164.17 167.809 161.347C168.221 160.784 171.649 155.052 171.043 156.839C169.13 162.477 165.005 167.415 161.059 171.756C159.423 173.555 153.914 178.309 155.913 176.925C159.673 174.322 164.137 172.879 168.447 171.473C181.168 167.323 194.209 164.239 207.156 160.898C210.477 160.042 220.369 157.338 216.975 157.83C210.393 158.784 203.764 161.621 197.337 163.306C187.382 165.916 177.297 167.911 167.314 170.387C166.872 170.497 163.754 171.02 163.112 171.662C162.29 172.484 165.305 170.856 166.322 170.293C185.374 159.741 206.281 153.871 226.983 147.492C227.407 147.361 231.995 146.316 232.648 145.533C233.25 144.81 230.784 145.868 229.91 146.217C221.092 149.744 213.401 155.692 204.489 159.199C198.986 161.365 193.315 163.144 187.66 164.864C186.516 165.212 185.371 165.554 184.214 165.855C182.84 166.212 182.463 166.301 183.647 165.572C191.965 160.453 201.306 156.648 210.178 152.637C223.235 146.735 236.624 141.598 249.596 135.501C252.99 133.905 256.624 132.339 259.698 130.143C262.138 128.4 259.253 129.333 258.494 129.647C251.585 132.51 245.004 136.22 238.148 139.23C232.289 141.803 226.294 144.141 220.634 147.138C217.428 148.835 226.642 143.058 229.792 141.26C242.002 134.295 255.174 129.162 267.534 122.472C270.485 120.875 273.524 119.206 276.268 117.256C276.454 117.123 276.787 117.036 276.787 116.807C276.787 116.205 275.632 117.163 275.087 117.421C267.185 121.164 259.898 126.046 251.861 129.553C248.746 130.912 245.555 132.049 242.373 133.235C241.689 133.49 239.718 134.404 240.319 133.99C244.51 131.11 248.967 129.065 253.703 127.24C253.977 127.134 260.19 124.375 258.046 125.635C254.339 127.812 250.826 130.293 247.094 132.433C242.679 134.964 238.077 137.732 233.356 139.655C216.224 146.635 197.779 151.051 179.965 155.965C176.131 157.023 172.643 159.074 168.777 160.19C167.243 160.633 162.351 163.62 165.378 160.946C172.689 154.488 176.256 145.3 182.302 137.814C185.439 133.93 189.159 130.829 192.546 127.216C193.386 126.32 194.313 124.075 195.543 123.652C198.72 122.56 202.25 122.267 205.504 121.433C216.124 118.711 226.694 115.588 236.826 111.378C244.638 108.133 252.691 104.8 259.981 100.473C260.602 100.105 265.129 97.037 264.489 97.5702C259.854 101.433 254.166 104.267 248.864 107.059C238.051 112.753 226.787 117.277 215.134 120.914C214.754 121.033 214.37 121.142 214.001 121.292C213.797 121.375 214.45 121.327 214.662 121.268C216.935 120.64 219.112 119.62 221.271 118.695C235.644 112.543 250.276 107.009 264.537 100.591C274.526 96.0963 284.303 91.1308 293.829 85.7212C295.753 84.6283 298.897 83.0462 294.962 85.4616C287.225 90.2103 278.744 93.7265 270.555 97.5938C259.441 102.843 248.261 107.857 236.944 112.653C236.11 113.006 233.621 114.097 234.442 113.715C236.992 112.529 239.51 111.278 242.042 110.056C254.041 104.267 266.097 98.6193 278.014 92.6606C281.776 90.7796 292.744 84.5429 289.155 86.7362C284.264 89.7252 280.219 94.3586 275.607 97.7826C260.474 109.016 242.922 115.317 226.086 123.369C226.064 123.38 229.704 119.588 230.5 118.955C238.406 112.666 247.415 107.949 256.441 103.495C265.292 99.1262 274.264 94.9701 282.877 90.1351C286.744 87.9641 290.371 85.416 294.206 83.1956C295.638 82.3666 297.233 81.8167 298.691 81.0241C299.213 80.7402 302.152 78.5638 301.665 79.2302C300.452 80.8898 298.557 81.5591 296.708 82.2987C289.591 85.1454 282.139 86.837 274.851 89.1673C266.917 91.7044 258.894 94.2355 251.271 97.6174C245.917 99.993 240.927 103.048 235.811 105.879C231.035 108.521 225.845 110.589 220.846 112.7C219.215 113.389 197.217 122.676 196.582 121.009C196.092 119.723 200.671 113.798 201.255 112.842C205.565 105.788 210.731 99.6031 216.267 93.4868C221.424 87.7903 226.471 82.0373 231.421 76.1618C232.053 75.4113 234.536 71.1333 234.536 73.8486C234.536 75.0672 234.539 76.233 234.324 77.4364C234.059 78.9223 233.698 79.7222 235.009 78.3333C239.606 73.4612 246.072 70.4307 251.861 67.2868C264.539 60.4022 277.254 53.627 289.674 46.2797C289.867 46.1656 298.735 41.209 294.655 42.9752C286.044 46.7022 277.317 50.1539 268.714 53.9036C261.39 57.0965 251.824 60.1367 246.126 66.1067C242.641 69.7578 254.348 60.2342 258.659 57.6094C270.089 50.6505 282.597 45.9282 294.867 40.7092C298.267 39.2633 301.719 37.8411 304.899 35.9413C305.631 35.5037 307.622 33.8942 306.999 34.4779C303.088 38.1446 297.541 40.362 292.79 42.6447C288.527 44.6927 284.205 46.6217 279.997 48.7817C279.387 49.0948 273.959 52.2616 274.332 52.0389C287.661 44.0738 300.782 36.1618 315.19 30.2293C318.384 28.9139 309.436 34.0585 306.48 35.8469C303.834 37.4478 301.201 39.0709 298.549 40.662C295.091 42.7371 299.123 39.8412 299.588 39.5291C304.675 36.1167 310.241 33.4555 315.969 31.315C317.083 30.8987 319.836 29.1361 319.368 30.2293C318.942 31.2229 315.956 32.0345 315.072 32.3536C314.153 32.6851 311.802 33.9829 312.239 33.1089C312.624 32.3401 314.905 31.539 315.567 31.1734C317.962 29.8523 320.394 28.7749 322.908 27.7273" stroke="black" stroke-width="5" stroke-linecap="round"/>
<path d="M320.784 144.565C320.784 145.023 321.005 143.674 321.162 143.243C322.35 139.968 323.682 136.74 324.891 133.471C329.375 121.345 333.239 109 337.495 96.7913C338.138 94.9479 338.979 89.343 340.564 87.9163C340.997 87.5263 340.696 89.0811 340.658 89.663C340.555 91.2639 340.298 93.362 340.044 94.903C337.749 108.882 332.743 122.054 327.959 135.312C326.972 138.049 326.049 140.784 325.505 143.644C325.337 144.522 325.804 141.877 326.071 141.024C329.929 128.707 337.208 117.422 342.594 105.761C348.796 92.3309 353.004 77.8957 355.953 63.4159C356.211 62.148 356.85 58.3454 356.85 59.6393C356.85 62.9913 355.48 66.7082 354.49 69.836C349.592 85.3037 342.228 99.424 334.285 113.503C332.281 117.055 330.272 120.584 328.715 124.36C328.02 126.045 328.167 125.602 328.526 124.219C331.032 114.551 334.235 104.964 337.448 95.5167C343.672 77.214 352.728 58.9748 354.985 39.5999C355.409 35.9632 355.805 31.7451 354.985 28.105C354.697 26.8249 354.052 30.5813 353.876 31.8815C351.414 50.0713 348.06 67.6825 342.216 85.1311C340.249 91.0047 338.125 96.8962 337.354 103.07C337.21 104.22 337.526 100.744 337.826 99.6237C339.607 92.9724 342.575 86.4727 345.096 80.08C350.626 66.0566 357.798 52.658 362.232 38.2073C363.333 34.6195 364.22 30.9584 364.498 27.208C364.689 24.626 364.355 27.7035 364.332 28.0105C363.827 34.8905 364.44 41.8095 363.223 48.64C362.226 54.2322 360.178 59.7666 358.691 65.2569C357.543 69.4972 358.159 60.6914 358.172 59.8281C358.287 52.4033 360.763 45.7968 363.176 38.8682C364.239 35.8139 365.099 32.7412 365.725 29.5684C365.922 28.5686 365.662 25.9282 366.433 26.5943C367.614 27.6144 368.387 29.7766 369.313 31.0318C372.316 35.1052 375.835 38.8016 379.037 42.7155C386.325 51.6221 391.313 61.1429 395.253 71.9131C396.139 74.3336 397.056 76.777 397.779 79.2538C397.958 79.8685 396.414 77.877 396.315 77.7668C391.385 72.2885 386.259 67.0258 381.587 61.3151C378.137 57.0992 371.768 50.9608 371.768 45.0051C371.768 43.5683 377.735 49.0174 378.424 49.5842C385.269 55.2131 392.094 60.8526 398.463 67.0272C400.847 69.3376 403.301 71.7937 405.072 74.6275C406.235 76.4879 404.639 75.3631 403.963 74.84C395.3 68.1388 388.766 60.6773 383.569 50.9532C379.848 43.9891 376.818 36.6601 373.561 29.474C372.908 28.0315 373.648 30.4467 373.656 30.4653C374.539 32.5998 375.835 34.558 377.055 36.5078C381.388 43.4325 385.451 50.4719 389.423 57.6094C390.89 60.2444 392.442 62.8801 393.577 65.6818C393.917 66.5198 394.047 68.3747 395.206 68.4906C396.459 68.6159 400.241 68.5142 398.982 68.5142C391.049 68.5142 382.951 74.9708 376.701 79.065C366.43 85.7921 355.174 92.0843 345.827 100.096C345.743 100.168 344.706 101.035 345.591 100.521C346.688 99.884 347.717 99.1374 348.778 98.4435C355.994 93.725 363.504 89.576 371.154 85.6032C377.971 82.0627 384.887 78.7401 391.783 75.3593C393.809 74.3663 394.886 73.8314 396.74 72.8101C397.104 72.6095 398.012 71.8245 397.826 72.1964C397.351 73.1465 395.009 74.3098 394.238 74.84C389.925 77.8054 385.39 80.3849 380.784 82.8652C373.52 86.7766 351.26 97.5252 358.927 94.4781C366.556 91.4463 373.22 86.3854 380.501 82.6763C381.779 82.0251 385.586 80.1653 384.514 81.1185C381.54 83.7618 378.025 85.8708 374.812 88.1996C369.956 91.7196 365.227 95.4091 360.343 98.892C359.956 99.1682 352.903 103.351 354.065 104.392C355.604 105.77 357.987 106.69 359.73 107.791C363.161 109.958 366.537 112.219 369.832 114.588C379.244 121.354 387.042 128.998 392.822 139.112C393.284 139.922 394.781 141.768 393.176 139.868C390.474 136.668 387.12 134.014 383.805 131.488C378.137 127.168 372.162 123.307 366.221 119.38C362.297 116.786 357.896 114.194 354.867 110.505C353.547 108.897 351.912 104.863 355.505 106.54C359.682 108.489 363.483 111.382 367.212 114.045C376.332 120.559 385.059 127.544 393.719 134.651C398.145 138.284 402.552 141.954 407.078 145.462C407.517 145.801 410.906 148.313 408.448 146.075C403.107 141.215 397.352 136.791 391.972 131.961C386.187 126.765 380.339 121.348 375.591 115.155C373.622 112.587 369.211 104.013 370.163 107.106C371.529 111.547 376.081 116.103 379.368 119.097C385.527 124.707 393.021 128.363 399.502 133.518C399.719 133.692 400.333 134.246 400.092 134.108C399.222 133.611 398.412 133.017 397.566 132.48C393.072 129.625 388.396 127.189 383.522 125.045C371.064 119.563 356.314 116.757 345.096 108.829C344.736 108.575 343.102 106.609 342.546 106.516C341.646 106.366 343.976 107.662 344.765 108.121C351.576 112.084 358.716 114.669 366.174 117.09C372.059 119.001 364.168 115.815 362.704 115.202C359.02 113.66 353.003 112.182 350.524 108.876" stroke="black" stroke-width="5" stroke-linecap="round"/>
<path d="M447.745 32.2115C452.206 33.3269 453.659 40.0291 454.965 43.5336C456.439 47.4911 458.592 51.1272 460.385 54.9395C461.747 57.8352 462.101 60.8844 463.273 63.7712C463.342 63.94 464.399 65.4996 463.901 64.5036C462.646 61.993 461.816 59.1956 460.699 56.6137C457.514 49.2518 447.829 27.2302 451.323 34.4508C457.361 46.9296 461.56 60.1049 466.831 72.8958C470.167 80.9923 483.868 103.477 480.079 95.582C477.019 89.2082 473.764 82.8892 470.263 76.7466C466.992 71.0077 463.687 65.3843 461.097 59.2925C460.214 57.2155 458.235 50.8101 458.46 53.0559C458.722 55.6725 460.698 58.9153 461.704 61.2389C465.23 69.3838 469.246 77.3492 473.34 85.2225C475.126 88.6576 477.064 91.98 479.137 95.2471C479.705 96.1431 478.555 92.1079 478.467 91.8568C477.212 88.2576 475.729 84.7504 474.554 81.1206C474.415 80.6931 472.351 73.6762 473.465 77.3535C475.192 83.0522 477.052 88.7312 478.969 94.3681C479.996 97.3851 480.735 100.905 482.025 103.807C482.52 104.922 482.897 101.525 483.239 100.354C484.917 94.6098 486.273 88.7778 487.759 82.9832C490.787 71.18 493.941 59.3472 497.596 47.7193C498.042 46.3002 497.546 50.698 497.386 52.177C496.343 61.8465 494.157 71.317 491.736 80.723C489.924 87.7599 487.715 94.8061 487.006 102.07C486.734 104.861 487.178 102.197 487.466 101.191C491.248 88.0048 494.452 74.6469 498.412 61.5109C500.343 55.1029 502.529 48.7888 504.837 42.5081C505.569 40.5141 506.192 38.4636 506.95 36.4808C507.352 35.4309 506.769 38.7264 506.553 39.8293C502.479 60.5768 493.591 80.0393 488.031 100.375C486.355 106.507 485.039 112.785 485.039 119.168C485.039 120.781 485.126 115.941 485.269 114.334C486.095 105.059 488.778 96.3399 490.522 87.2526C492.465 77.1252 486.866 107.581 484.097 117.515C482.485 123.296 480.314 128.911 478.802 134.718C478.71 135.072 477.484 141.194 477.504 139.196C477.635 126.27 480.824 113.146 483.281 100.521C483.454 99.6317 483.336 98.6526 483.741 97.8422C484.68 95.9653 483.205 102.005 482.883 104.079C481.359 113.9 479.022 123.642 476.353 133.211C474.354 140.379 471.702 147.301 469.468 154.39C468.707 156.805 468.167 159.279 467.417 161.694C466.777 163.756 467.039 160.66 467.04 160.627C467.651 148.347 470.334 136.201 474.951 124.819C475.21 124.181 475.469 123.544 475.747 122.914C475.978 122.388 476.028 121.261 476.584 121.407C476.754 121.452 476.667 121.754 476.667 121.931C476.667 122.971 476.39 125.093 476.291 125.886C475.126 135.138 472.813 143.902 469.489 152.611C467.936 156.68 466.065 160.658 465.157 164.938C465.098 165.217 464.452 169.327 465.157 167.24C467.239 161.071 469.369 155.004 471.791 148.949C474.532 142.097 466.683 162.806 464.571 169.877C464.499 170.117 463.943 173.233 463.943 172.556C463.943 171.19 464.112 169.928 464.32 168.579" stroke="black" stroke-width="5" stroke-linecap="round"/>
<path d="M521.203 51.4235C521.203 51.6704 521.132 52.0643 521.537 51.8421C524.647 50.1393 527.393 47.1398 530.055 44.873C541.387 35.226 553.215 26.9546 566.575 20.3661C569.164 19.0891 567.681 20.8185 566.659 21.9985C562.923 26.3118 558.527 30.1321 554.06 33.6555C546.611 39.5298 538.724 44.8382 530.746 49.9586C527.277 52.1846 523.51 54.1864 520.261 56.7393C519.332 57.4694 521.56 54.7488 522.375 53.8931C525.991 50.0953 530.461 46.9951 534.743 44.015C540.414 40.0682 546.212 36.2072 552.176 32.7138C553.016 32.2218 553.8 31.305 554.771 31.3744C554.937 31.3862 554.612 31.6703 554.499 31.7929C554.069 32.2625 551.607 34.5655 551.507 34.6601C546.425 39.4364 541.021 43.6444 535.141 47.4053C531.111 49.9829 525.936 52.0467 522.437 55.379C520.129 57.5773 526.968 50.8886 529.365 48.7866C532.99 45.6061 537.058 42.6062 541.105 39.9758C541.233 39.8926 542.125 39.0813 542.214 39.4108C542.865 41.7954 542.384 45.0279 542.507 47.4681C543.297 63.0317 543.133 79.2631 546.128 94.5774C546.841 98.2256 550.574 108.701 548.911 105.376C547.54 102.634 546.953 99.1247 546.233 96.1889C542.572 81.2665 541.216 66.1407 540.226 50.8585C540.124 49.2761 539.441 43.3669 539.829 48.661C540.466 57.3609 541.169 66.0525 541.733 74.7584C542.89 92.613 543.428 110.426 543.428 128.314C543.428 129.124 543.536 131.424 543.345 129.193C542.901 124.014 542.647 118.824 542.235 113.643C540.971 97.7113 538.55 81.9406 538.071 65.9477C537.962 62.3144 537.778 58.6796 537.778 55.0441C537.778 54.4759 537.844 59.7186 537.861 60.1715C538.243 70.0499 539.44 79.8908 540.415 89.7221C541.5 100.671 542.343 111.672 543.805 122.579C544.324 126.456 545.169 130.261 545.835 134.111C545.942 134.726 545.979 136.484 546.149 134.843C547.612 120.702 547.867 106.456 549.33 92.3172C549.936 86.4597 550.665 80.4561 552.051 74.7166C552.111 74.4676 552.401 73.7921 552.427 74.0469C552.719 76.8941 552.469 79.9756 552.469 82.8158C552.469 103.036 552.876 123.297 552.176 143.507C552.102 145.647 551.752 148.194 552.281 150.309C552.373 150.677 552.469 146.992 552.469 146.605C552.469 134.457 550.727 122.91 548.493 110.985C547.736 106.945 547.38 102.925 546.84 98.8677C546.206 94.1169 546.824 108.455 546.986 113.245C547.504 128.563 549.079 143.784 549.079 159.12C549.079 159.776 549.079 160.431 549.079 161.087C549.079 161.171 549.079 160.92 549.079 160.836C549.079 157.613 549.079 154.39 549.079 151.167C549.079 138.416 549.469 125.618 548.242 112.91C547.52 105.439 547.195 98.095 547.195 90.6011C547.195 86.8829 547.072 83.1659 547.488 79.4673C547.526 79.135 547.682 76.3338 547.195 77.793" stroke="black" stroke-width="5" stroke-linecap="round"/>
<path d="M610.105 22.4171C609.518 40.0419 607.096 57.5722 607.552 75.2398C607.608 77.4041 607.762 79.5571 608.013 81.7066C608.15 82.8834 608.261 83.8678 608.201 81.7903C608.002 74.9141 607.233 68.0853 606.422 61.2598C605.466 53.2109 604.923 45.2942 604.811 37.1924C604.755 33.1562 603.444 21.1397 604.246 25.0959C604.795 27.808 604.87 30.7045 604.999 33.4462C605.476 43.5606 605.624 53.6939 605.983 63.813C606.559 80.0616 607.211 96.3076 607.824 112.555C607.997 117.121 607.845 103.416 607.845 98.8468C607.845 85.0219 608.19 71.1464 607.217 57.3462C606.686 49.8099 606.361 41.5558 604.748 34.1369C604.609 33.4967 604.489 35.4282 604.476 36.0832C604.343 42.4765 604.65 48.8868 604.852 55.2743C605.785 84.7397 604.796 114.273 606.694 143.696C606.942 147.532 606.721 136.008 606.799 132.164C607.108 116.845 607.939 101.554 608.599 86.248C608.764 82.3987 608.975 70.8428 608.975 74.6956C608.975 84.5598 608.989 94.424 608.975 104.288C608.953 120.361 608.398 168.579 608.599 152.507C608.747 140.66 610.431 128.796 610.022 116.929C609.961 115.175 609.85 113.389 609.561 111.655C609.33 110.27 609.352 114.457 609.352 115.861C609.352 125.328 608.757 134.72 608.054 144.156C608.011 144.741 607.845 151.014 607.845 147.777C607.845 144.099 607.918 140.417 607.636 136.748C607.017 128.707 607.468 120.859 607.468 112.827C607.468 112.79 607.368 110.698 607.531 110.671C608.05 110.585 607.968 111.632 608.117 112.136C608.676 114.032 608.969 115.303 609.31 117.347C610.86 126.648 610.482 136.206 610.482 145.6C610.482 146.954 610.482 148.307 610.482 149.66C610.482 150.728 610.482 147.526 610.482 146.458C610.482 135.899 610.22 125.351 610.126 114.794C609.999 100.408 609.903 86.1272 611.236 71.8076C611.789 65.8594 612.645 83.6773 613.035 89.6384C613.996 104.305 614.249 118.998 614.249 133.692C614.249 139.559 614.249 145.426 614.249 151.293C614.249 154.174 614.249 148.573 614.249 148.195C614.249 139.629 614.296 131.062 614.249 122.496C614.158 105.8 612.389 89.2594 610.943 72.6447C610.143 63.4581 609.47 54.2605 608.034 45.1451C607.316 40.5915 606.297 36.0943 605.585 31.5418C604.735 26.1138 605.592 32.5767 605.815 34.3043C607.408 46.631 607.535 59.0995 608.682 71.4727C609.951 85.157 611.421 98.8039 612.135 112.534C612.199 113.755 611.913 116.909 612.366 118.268C612.586 118.93 612.414 116.873 612.449 116.175C612.626 112.67 612.528 115.075 612.742 111.194C614.189 84.9718 612.697 58.7676 609.729 32.7137C609.426 30.0578 609.109 27.4006 608.682 24.761C608.675 24.7139 608.222 21.4345 608.222 23.6309C608.222 35.0138 608.895 46.3983 608.954 57.7857C609.072 80.3769 607.845 148.143 607.845 125.551C607.845 120.469 608.571 115.465 609.268 110.441C609.958 105.47 611.259 99.9829 610.838 94.9332C610.836 94.9074 603.827 100.101 602.948 100.772C600.618 102.551 598.323 104.346 596.209 106.381C594.514 108.012 596.826 105.966 597.046 105.795C604.826 99.7638 613.244 94.6092 621.093 88.6757C624.933 85.7721 628.597 82.6726 631.871 79.1324C631.978 79.0163 636.17 74.6601 635.638 73.9004C635.085 73.11 634.34 75.3315 633.754 76.0978C630.718 80.0685 627.72 84.0449 624.337 87.7339C620.943 91.4341 617.188 94.7577 613.705 98.3654C612.708 99.3984 613.089 99.1497 613.977 98.4282C615.398 97.2734 617.063 95.7556 618.372 94.5565C626.321 87.275 634.252 80.028 642.628 73.2307C646.691 69.9335 659.379 60.8368 654.724 63.227C652.461 64.3891 650.317 66.2243 648.32 67.7475C643.512 71.4145 638.861 75.2634 634.55 79.5091C632.848 81.1849 628.146 86.586 629.61 84.6993C632.183 81.3841 635.137 78.3586 638.233 75.5328C647.2 67.349 657.37 60.4219 667.511 53.7884C668.742 52.9831 670.189 51.8951 671.551 51.2142C673.038 50.4705 668.883 53.2023 667.574 54.2279C661.659 58.8616 655.428 62.939 648.509 65.9267C647.885 66.1962 645.991 66.9012 646.562 66.5337C649.327 64.7565 652.557 63.5794 655.478 62.0969C662.771 58.395 669.658 53.9878 677.034 50.4399C681.832 48.1318 676.52 50.5738 674.899 51.5491C664.034 58.0864 654.265 66.1224 644.574 74.2562C639.564 78.4608 624.07 90.4925 629.359 86.6456C642.707 76.9386 685.07 51.2284 671.132 60.0669C662.967 65.2447 654.975 70.7883 647.692 77.1652C645.15 79.3916 642.443 81.7705 640.368 84.4691C639.257 85.9124 643.43 82.4904 644.867 81.3717C653.199 74.8843 661.792 68.6848 670.42 62.5992C673.106 60.7047 675.814 58.8368 678.331 56.7184C678.591 56.4994 680.688 53.8095 680.508 55.5673C680.429 56.336 679.725 62.0275 678.959 62.1806C678.493 62.2738 679.101 50.7303 679.127 50.419C679.841 41.7443 680.844 33.0315 682.412 24.4681C682.49 24.0432 684.044 13.9203 683.94 13.9203C683.755 13.9203 679.361 28.8384 679.147 29.4699C675.909 39.0603 672.356 48.9622 671.509 59.1251C671.406 60.36 671.786 56.6602 672.011 55.4417C672.962 50.2989 674.596 45.2909 676.092 40.2897C679.31 29.5332 683.398 18.3542 684.066 7.05582C684.108 6.33153 684.095 5.60478 684.086 4.87929C684.079 4.21988 684.524 3.04137 683.877 2.91204C683.107 2.75798 683.28 4.37032 683.082 5.13042C682.386 7.79769 681.979 9.8039 681.429 12.6018C677.911 30.4904 677.074 48.6599 674.062 66.5965C672.308 77.043 668.034 86.4213 664.226 96.2098C663.368 98.4144 662.54 100.64 662.007 102.949C661.895 103.434 661.714 104.912 661.714 104.414C661.714 90.6964 666.508 77.3044 667.281 63.6037C667.32 62.9211 667.408 60.9104 667.574 61.5737C668.205 64.0989 668.246 66.929 668.495 69.5055C669.52 80.1189 669.258 90.602 667.658 101.149C666.094 111.459 664.176 121.579 663.995 132.039C663.988 132.456 663.975 135.715 663.975 135.701C663.975 133.63 663.95 131.557 664.016 129.486C664.717 107.758 668.199 85.6332 673.141 64.4827C673.333 63.662 673.993 61.2542 673.978 62.0969C673.917 65.4993 672.727 69.2427 672.011 72.5191C668.421 88.9399 664.052 105.125 658.429 120.968C656.822 125.495 655.037 130.012 653.845 134.676C653.835 134.716 653.391 139.203 653.427 139.154C653.933 138.469 654.084 136.826 654.285 136.099C655.472 131.796 657.085 127.617 658.638 123.437C663.747 109.687 668.222 95.8601 671.551 81.5601C672.714 76.5621 673.502 71.4532 674.815 66.4918C675.714 63.0964 675.604 66.8755 675.569 67.9568C674.853 90.1374 672.078 112.36 667.909 134.132C667.696 135.245 666.979 138.915 667.616 135.555C669.123 127.608 670.658 119.667 672.262 111.739C674.307 101.635 676.327 91.4182 677.285 81.1415C677.411 79.7886 677.419 78.4316 677.536 77.0815C677.715 75.022 677.791 81.2093 677.829 83.2762C678.04 94.7617 676.666 106.07 674.355 117.305C673.445 121.729 672.342 126.129 671.781 130.616C671.63 131.823 671.135 135.4 671.551 134.257C673.459 129.01 674.478 123.146 675.736 117.724C678.524 105.712 681.125 93.4667 682.329 81.1834C682.857 75.7882 683.187 59.5222 683.187 64.9431C683.187 71.2601 682.655 77.552 681.575 83.7785C679.734 94.3871 676.55 104.677 674.397 115.213C673.012 121.988 674.762 112.746 675.192 111.215C681.287 89.4933 690.269 68.5458 692.06 45.8566C692.167 44.5063 692.498 38.9717 691.432 43.4708C689.845 50.1727 689.194 57.0253 686.493 63.4363C684.796 67.4646 682.057 71.6541 678.771 74.6119C678.192 75.1329 678.305 73.0856 678.373 72.3098C678.733 68.2211 679.589 64.1716 680.571 60.1924C682.142 53.8255 684.336 47.5971 685.279 41.085C686.071 35.6238 683.092 45.5065 682.873 46.1078C679.736 54.7199 676.579 63.326 672.011 71.3053C671.189 72.7411 671.092 72.4382 671.216 71.0541C671.378 69.2281 671.858 67.5157 672.262 65.7384" stroke="black" stroke-width="5" stroke-linecap="round"/>
<path d="M749.346 82.7507C748.253 94.2882 743.028 105.079 737.714 115.243C732.696 124.841 726.969 134.053 722.047 143.701C720.762 146.22 720.081 147.662 719.043 150.139C718.708 150.938 718.323 152.606 717.755 153.402C716.863 154.65 718.597 150.449 719.107 149.002C720.813 144.161 723.01 139.547 725.524 135.074C729.476 128.042 733.846 121.239 738.294 114.514C742.155 108.674 746.545 102.741 748.23 95.8207C748.871 93.1897 748.473 93.8268 748.187 96.0138C747.478 101.45 746.151 106.735 744.496 111.96C741.454 121.563 737.715 130.975 733.637 140.181C731.954 143.979 730.151 147.722 728.55 151.556C728.376 151.973 727.882 153.829 727.413 154.346C726.376 155.487 727.936 151.301 728.357 149.817C729.652 145.258 731.068 140.727 732.435 136.19C737.543 119.232 744.051 102.734 749.196 85.7982C749.884 83.5351 751.09 76.5396 750.806 78.8876C750.216 83.7521 750.065 88.6579 749.454 93.5243C748.447 101.54 746.82 109.466 744.539 117.218C742.816 123.073 740.472 128.74 738.852 134.623C738.584 135.595 738.143 138.571 738.143 137.563C738.143 134.683 738.219 131.84 738.594 128.978C740.004 118.228 741.938 107.674 742.007 96.7864C742.02 94.6356 742.045 93.6032 741.792 96.5718C741.335 101.92 740.601 107.193 739.775 112.496C738.907 118.064 738.012 123.631 737.414 129.236C737.031 132.823 737.197 125.867 737.285 125.309C737.938 121.174 739.669 117.293 740.762 113.269C741.761 109.589 742.504 105.824 743.144 102.066C744.156 96.1177 744.946 90.1918 746.256 84.2959" stroke="black" stroke-width="5" stroke-linecap="round"/>
<path d="M758.618 7.4212C758.618 14.8705 758.07 22.1719 757.158 29.5694C756.602 34.082 756.034 38.5972 755.699 43.1329C755.529 45.4333 755.675 47.9103 755.141 50.1723C754.808 51.5823 754.492 49.8479 754.454 49.4855C754.234 47.3722 754.158 45.2118 754.068 43.09C753.735 35.2329 755.005 27.6191 755.914 19.8473C756.251 16.9616 756.686 14.0268 756.686 11.1126C756.686 10.8007 756.705 13.2951 756.708 13.4089C756.925 21.014 757.621 28.475 757.073 36.0936C756.84 39.3216 757.043 49.0084 756.665 45.7942C756.381 43.3846 756.519 41.6733 756.987 39.227C757.848 34.7213 758.232 30.2009 758.232 25.6205C758.232 24.8654 758.309 24.9118 758.06 25.5346C757.373 27.2527 756.229 28.7868 754.969 30.1273C751.218 34.1208 746.126 36.9727 740.805 38.2398C739.031 38.662 739.565 37.8293 740.59 36.9091C744.272 33.6056 748.928 31.1975 753.21 28.7967C758.991 25.5551 764.928 22.7547 771.065 20.2551C775.649 18.3885 780.497 16.8242 784.693 14.1386C785.363 13.7098 787.213 12.255 786.475 12.5505C784.748 13.241 783.085 14.677 781.56 15.6838C774.055 20.64 766.673 26.162 758.253 29.4835C756.84 30.0408 753.277 31.914 753.81 30.4922C754.57 28.4678 758.645 26.1602 760.206 25.0195C768.508 18.9537 777.637 14.1004 786.475 8.88058C787.869 8.05721 788.367 7.69837 786.689 8.5372C783.714 10.0251 780.778 11.5949 777.804 13.087C773.405 15.2943 768.926 17.3888 764.67 19.8688C763.273 20.6825 759.845 22.2043 758.961 23.7748C758.631 24.3618 760.269 23.4435 760.936 23.3456C761.769 23.223 762.941 23.2685 763.704 22.8519C764.118 22.6264 761.422 21.2717 761.408 21.2638C759.148 20.0044 756.86 18.8237 754.562 17.6368C750.097 15.3309 746.913 12.7184 743.981 8.68743C743.671 8.26165 742.561 7.1323 742.908 7.52851C743.888 8.64876 745.073 9.65041 746.213 10.5975C752.715 15.9993 760.26 19.9965 767.159 24.8478C771.076 27.6014 768.411 25.7335 765.915 24.7191C759.093 21.9462 751.896 20.1583 745.312 16.7784C745.194 16.7181 742.161 14.9003 744.282 16.0916C746.786 17.4988 749.414 18.6484 752.051 19.783C756.141 21.5429 760.35 23.0937 764.327 25.1054C765.748 25.8243 769.664 27.5423 770.1 29.505C770.297 30.3941 768.595 28.4782 767.846 27.9597C765.172 26.1081 762.357 24.4755 759.541 22.8519C756.672 21.198 753.784 19.5682 750.978 17.8085C750.362 17.4226 748.705 16.0621 749.132 16.6496C752.131 20.7731 759.581 22.4393 764.026 24.1611C765.549 24.7509 767.934 25.3111 769.22 26.436C769.617 26.7836 768.301 25.9073 767.889 25.5775" stroke="black" stroke-width="5" stroke-linecap="round"/>
<path d="M808.065 122.154C811.991 111.57 817.362 101.365 821.864 91.0133C826.923 79.3821 831.719 67.6529 836.222 55.7951C838.868 48.828 841.014 41.0885 844.721 34.5698C846.842 30.8399 843.769 43.1191 842.789 47.2964C839.736 60.3122 834.951 72.8013 829.698 85.0685C825.188 95.6012 819.859 105.925 816.392 116.874C815.433 119.902 814.291 123.658 814.653 126.918C814.879 128.951 816.163 123.115 816.907 121.209C819.841 113.695 823.125 106.344 826.5 99.0184C836.495 77.3211 848.968 54.9969 852.683 31.1145C852.927 29.5437 853.177 27.5236 853.177 25.8565C853.177 24.8679 852.464 27.707 852.232 28.6679C850.09 37.5325 847.225 46.0747 843.326 54.3358C837.835 65.9668 830.812 76.6477 823.86 87.4292C820.084 93.286 815.521 99.466 813.838 106.358C813.373 108.262 813.277 109.396 814.031 106.959C815.481 102.274 817.731 97.9304 820.062 93.6316C825.484 83.6289 830.988 73.6955 836.007 63.4783C839.387 56.5986 842.549 49.6741 844.249 42.1672C844.871 39.4186 846.575 31.2733 845.279 33.7758C842.753 38.6538 841.77 44.6834 839.828 49.8074C834.971 62.6158 828.635 74.9184 821.671 86.6995C816.469 95.4996 810.287 103.585 804.781 112.174C804.755 112.215 802.404 117.037 803.043 114.385C803.92 110.743 805.426 107.371 807.035 103.997C815.538 86.1647 828.642 70.6358 835.857 52.2325C838.774 44.7927 840.548 37.1279 841.587 29.2259C841.74 28.0631 841.795 24.8377 842.446 25.8136C843.15 26.8699 843.662 28.2086 844.163 29.3547C846.882 35.5755 849.312 41.9385 851.889 48.2193C859.763 67.4127 868.796 86.2569 875.883 105.757C877.754 110.905 879.319 116.127 880.239 121.531C880.832 125.014 880.956 124.363 880.347 121.424C877.582 108.083 869.483 96.0567 864.637 83.4374C858.799 68.234 857.258 51.7365 853.134 36.0507C851.778 30.8942 852.87 35.9067 853.327 37.8534C855.279 46.1817 857.073 54.5462 859.014 62.8774C861.713 74.4641 864.49 86.0315 867.599 97.5161C869.848 105.825 872.06 114.238 875.496 122.154C875.588 122.366 878.163 129.177 878.372 126.296C878.709 121.669 879.433 117.169 880.39 112.625C884.377 93.6734 891.901 75.6836 895.799 56.7394C897.018 50.8144 898.031 44.5928 898.031 38.5187C898.031 38.2514 897.94 37.5093 897.816 37.7461C896.952 39.3951 896.653 41.8793 896.185 43.6051C890.669 63.9664 883.277 83.6061 876.183 103.439C875.819 104.458 875.793 105.685 875.067 106.487C874.032 107.631 875.572 103.432 876.033 101.959C878.546 93.9298 882.392 86.3665 886.184 78.8876C894.274 62.9342 903.337 46.9029 902.151 28.4104C902.145 28.3115 901.464 22.2926 901.143 25.3414C900.552 30.9491 899.711 36.4966 898.331 41.974C895.52 53.1307 891.247 63.8105 886.764 74.3807C883.731 81.53 880.093 88.723 878.415 96.3572C877.136 102.176 879.198 95.105 879.681 93.6959C882.125 86.5687 884.971 79.5689 887.558 72.4921C889.165 68.0952 890.658 63.6625 892.215 59.2504C892.221 59.2339 891.984 60.7087 891.893 61.1176" stroke="black" stroke-width="5" stroke-linecap="round"/>
<path d="M975.334 39.0982C966.752 50.8588 956.717 65.5409 956.32 80.4972C956.266 82.5101 956.89 89.7606 959.968 90.0905C962.675 90.3805 962.252 87.1404 962.586 84.8968C963.812 76.6697 963.879 68.3185 964.99 60.0874C965.634 55.3206 969.441 41.3801 968.059 45.9873C965.63 54.0835 961.931 61.7384 960.612 70.1743C959.232 78.999 960.479 87.7155 965.076 95.4129C967.538 99.5361 970.351 103.545 974.862 105.457C976.372 106.096 976.811 105.622 976.45 103.997C976.044 102.168 973.126 102.19 971.729 101.98C971.623 101.964 970.138 101.774 970.999 101.594C975.074 100.739 979.031 99.7213 982.953 98.2887C987.743 96.5391 992.436 94.4577 996.86 91.9147C997.711 91.4257 1003.87 87.0226 999.242 89.4466C990.814 93.8665 982.82 99.4891 974.884 104.727C973.27 105.792 974.37 104.749 974.905 104.255C977.665 101.708 980.392 99.1255 983.146 96.5718C986.479 93.4813 989.779 90.3609 992.933 87.0859C994.05 85.9259 996.429 82.1336 997.998 81.5059C998.506 81.3025 997.387 82.4153 997.096 82.8794C996.423 83.9547 995.446 85.5871 994.864 86.6566C992.896 90.2798 990.771 94.4293 990.701 98.6536C990.697 98.8967 990.858 100.754 991.388 99.5979C992.394 97.4026 992.891 94.8416 993.577 92.5371C995.764 85.1849 999.014 76.3618 998.126 68.6076C996.895 57.8513 987.039 49.2451 981 40.901C978.871 37.9592 976.888 34.9361 975.206 31.7155C975.01 31.3403 973.191 27.2248 973.682 30.063C975.031 37.8567 979.721 45.2031 983.104 52.2326C988.544 63.5404 992.858 75.327 997.161 87.1073C997.565 88.2155 998.629 91.5747 998.427 90.4124C998.056 88.281 997.069 86.1563 996.324 84.1457C993.211 75.748 990.916 67.5336 990.486 58.5422C990.409 56.9348 990.18 55.049 990.4 53.4344C990.439 53.152 990.588 53.9737 990.658 54.25C991.274 56.6696 991.847 59.0999 992.439 61.5254C996.848 79.5812 1002.01 97.3672 1005.77 115.587C1006.38 118.546 1006.78 121.917 1008 124.729C1009.05 127.158 1006.58 119.63 1005.77 117.11C1001.46 103.709 996.471 90.745 994.435 76.7415C994.037 74.0038 992.686 69.7697 993.062 66.9551C993.153 66.2677 993.617 68.2281 993.834 68.8866C995.029 72.507 996.075 76.1797 997.01 79.8748C1001.82 98.8724 1004.75 118.364 1006.54 137.863C1007 142.861 1007.44 147.874 1007.7 152.886C1007.8 154.793 1007.66 154.898 1007.4 153.101C1006.18 144.836 1005.37 136.439 1004.93 128.099C1004.5 119.994 1004.69 111.853 1004.69 103.74C1004.69 93.7695 1005.34 123.67 1005.66 133.636C1006.1 147.282 1006.24 160.911 1006.24 174.562C1006.24 176.65 1006.19 176.125 1006.5 174.391C1007.39 169.362 1008.65 164.356 1010.14 159.475C1011.34 155.594 1012.63 151.619 1014.69 148.101C1015.76 146.284 1017.62 143.709 1016.8 147.607C1013.76 162.009 1008.31 175.126 1002.01 188.341C1000.45 191.625 999.12 194.981 998.405 198.556C998.302 199.075 998.263 199.606 998.148 200.123C998.095 200.361 998.156 199.634 998.191 199.393C998.989 193.937 1001.42 188.7 1004.05 183.92C1004.29 183.486 1003.09 187.464 1003.06 187.568C1001.4 193.424 999.321 199.057 996.581 204.501C993.824 209.98 990.88 215.488 985.679 218.902C982.313 221.111 978.782 222.656 975.034 224.138C972.114 225.293 965.666 224.184 963.359 222.207C962.57 221.53 961.856 220.663 961.428 219.717C960.564 217.813 960.427 215.624 960.183 213.579C959.477 207.685 958.77 201.756 958.831 195.809C958.984 180.769 963.334 166.936 970.355 153.745C977.696 139.954 986.143 127.636 997.075 116.445C1001.9 111.505 1005.86 106.588 1008.47 100.177C1008.72 99.5563 1008.28 101.51 1008.08 102.152C1007.15 105.251 1005.21 107.897 1003.13 110.329C994.492 120.419 983.829 128.332 973.789 136.919C970.365 139.848 967.047 142.864 963.874 146.062C960.474 149.488 964.482 143.277 964.947 142.564C973.303 129.766 983.626 118.122 994.671 107.603C1000.59 101.966 1006.97 96.8685 1012.96 91.3138C1013.04 91.2373 1020.01 83.7353 1018.94 83.3087C1018.59 83.1653 1015.07 89.7575 1014.95 89.9617C1011.81 95.2281 1008.19 99.9989 1004.2 104.641C1004.17 104.677 1001.74 107.692 1001.93 107.453C1004.31 104.332 1006.3 100.846 1008.51 97.6019C1020.03 80.683 1034.25 66.3668 1048.39 51.696C1051.33 48.6426 1054.17 45.5736 1055.75 41.5877C1056.26 40.3106 1057.62 37.5164 1055.69 40.0425C1050.63 46.6356 1033.1 64.4236 1038.84 58.4135C1047.55 49.2908 1056.74 40.6926 1066.24 32.4023C1074.1 25.5526 1082.47 18.9994 1089.64 11.413C1090.02 11.0045 1091.45 9.67918 1090.15 11.1984C1086.59 15.3637 1081.9 18.6323 1077.4 21.693C1072.75 24.8623 1067.92 27.7045 1062.85 30.1703C1059.07 32.0138 1059.36 31.349 1062.17 29.0114C1070.92 21.7275 1081.14 16.4974 1090.37 9.88927C1091.15 9.33034 1093.2 7.35209 1092.66 8.1509C1091.25 10.2713 1089.17 12.062 1087.11 13.5162C1084.42 15.4094 1081.39 16.8617 1078.31 17.9802C1074.16 19.4838 1078.04 15.9074 1079.14 14.6752C1081.4 12.1612 1083.7 9.68379 1085.9 7.12075C1086.7 6.19836 1087.46 5.3156 1088.14 4.30931C1088.46 3.82635 1088.39 2.48223 1088.91 2.74263C1090.63 3.60152 1082.24 15.3995 1081.83 15.9414C1079.38 19.1672 1076.56 22.0098 1073.76 24.9122C1073.28 25.4087 1071.96 26.8856 1072.6 26.6291C1073.98 26.0757 1075.26 24.4815 1076.31 23.5172C1080.49 19.681 1085.01 16.3836 1089.77 13.3016C1093.8 10.6901 1097.91 8.20672 1101.96 5.61845C1106 3.03452 1101.4 7.42623 1100.56 8.19382C1087.25 20.3316 1070.18 27.7461 1055.64 38.2398C1048.81 43.1714 1042.14 48.5143 1036.28 54.5933C1035 55.9233 1033.08 58.1385 1031.91 59.7011C1031.57 60.1536 1030.85 61.62 1031.31 61.2893C1032.64 60.3263 1033.68 58.8317 1034.72 57.5765C1036.81 55.0495 1034.45 58.7986 1034.1 59.4007C1026.5 72.4025 1016.97 84.4693 1005.62 94.3827C1004.67 95.2114 1001.87 97.6173 1002.5 96.5289C1003.56 94.7151 1005.05 93.0715 1006.24 91.3352C1007.31 89.7682 1008.39 88.0789 1009.76 86.7425C1010.88 85.649 1008.13 89.4338 1007.1 90.6055C995.568 103.653 979.335 111.359 967.501 124.064C967.451 124.118 962.458 129.336 964.475 130.223C966.234 130.997 968.342 127.021 968.896 125.974C969.548 124.742 970.062 123.423 970.527 122.111C970.707 121.604 968.488 126.584 968.317 126.897C962.714 137.104 954.556 146.013 951.04 157.308C950.491 159.073 950.795 159.213 951.555 157.651C953.588 153.477 955.664 149.34 958.015 145.332C960.076 141.82 962.304 138.382 964.883 135.224C965.952 133.915 966.49 133.181 965.806 135.159C961.542 147.487 957.921 160.114 955.375 172.91C954.853 175.535 954.363 178.184 954.109 180.851C954.042 181.557 954.866 179.65 955.204 179.026C960.756 168.776 965.354 157.953 970.57 147.521C972.425 143.812 971.12 146.454 970.355 148.38C967.041 156.728 964.247 165.458 962.544 174.283C960.977 182.399 960.235 190.75 959.99 199.007C959.932 200.933 960.247 206.707 960.269 204.78C960.345 198.008 960.006 191.173 959.646 184.413C959.361 179.058 958.767 173.751 957.715 168.489C957.225 166.043 956.804 164.215 956.105 161.879C955.894 161.174 955.002 159.332 954.86 160.055C954.134 163.761 954.492 167.904 954.474 171.644C954.434 179.98 954.187 188.311 954.109 196.646C954.073 200.519 954.001 204.412 954.281 208.278C954.307 208.642 954.581 211.791 954.774 209.545C955.307 203.348 954.86 196.96 954.86 190.744C954.86 190.028 954.848 187.889 954.946 188.598C955.561 193.026 955.84 197.481 956.663 201.883C958.375 211.035 961.566 221.352 970.634 225.619C972.808 226.642 974.873 225.535 976.923 224.696C980.711 223.146 982.75 220.875 984.584 217.206C986.519 213.337 988.948 209.764 990.958 205.939C995.116 198.029 998.882 189.712 1002.48 181.537C1006.2 173.1 1007.28 164.772 1007.38 155.612C1007.49 144.387 1007.47 133.013 1006.63 121.81C1006.02 113.773 1003.86 105.956 1003.56 97.8809C1003.54 97.5091 1003.53 96.3929 1003.53 96.765C1003.53 100.835 1003.5 104.908 1003.62 108.976C1004.06 123.677 1008.12 137.64 1009.65 152.178C1010.44 159.71 1010.38 167.243 1008.34 174.562C1008.31 174.675 1007.8 177.328 1007.78 175.55C1007.74 171.502 1007.78 167.443 1008.02 163.403C1008.6 153.656 1009.87 143.835 1011.26 134.172C1011.34 133.637 1012.03 129.626 1012.03 129.837C1012.03 133.905 1011.53 138.003 1011 142.027C1008.67 159.857 1005.67 177.666 1000.34 194.865C999.042 199.042 996.134 211.815 997.611 207.699C998.383 205.549 999.141 203.397 1000.06 201.303C1000.43 200.454 1000.85 199.604 1001.26 198.771C1001.59 198.11 1001.59 198.121 1001.3 198.921C999.024 205.303 995.192 210.901 989.37 214.524C986.887 216.068 990.953 211.359 991.409 210.618C992.122 209.459 989.539 212.595 988.576 213.558C986.257 215.877 983.787 218.178 981 219.932C979.633 220.792 976.95 222.55 975.206 222.55C972.919 222.55 972.294 223.702 970.699 225.297C968.362 227.634 961.991 225.268 959.711 224.439C955.931 223.064 954.942 222.039 954.259 218.129C954.017 216.74 953.723 215.354 953.165 214.051C952.783 213.161 953.715 215.666 953.787 215.811C955.018 218.274 956.819 221.912 959.238 223.452C961.178 224.686 956.942 219.462 955.633 217.571" stroke="black" stroke-width="5" stroke-linecap="round"/>
<path d="M53.2085 250.3C53.4484 249.79 53.4494 249.474 53.6517 250.315C54.9359 255.649 56.1937 260.974 57.6839 266.257C60.2942 275.512 63.2522 284.66 66.2486 293.796C67.0727 296.308 67.8921 298.821 68.6793 301.345C68.7834 301.679 69.1368 302.639 69.1368 302.289C69.1368 297.475 68.3654 292.536 67.6784 287.79C66.2462 277.898 64.4276 268.046 62.7455 258.193C61.709 252.122 60.6169 246.069 59.7142 239.977C59.5511 238.875 60.1874 242.153 60.4435 243.237C61.5 247.708 62.7319 252.132 63.9465 256.563C66.4293 265.619 68.8357 274.689 70.5381 283.93C71.683 290.145 72.3654 296.413 73.2834 302.661C73.5191 304.265 73.658 306.071 74.1127 307.637C74.3919 308.598 75.3632 306.929 75.5711 306.693C79.1259 302.653 83.2938 299.217 86.8668 295.197C93.975 287.2 99.0372 277.536 103.567 267.916C105.814 263.145 108.415 258.213 109.916 253.131C110.039 252.715 110.105 252.305 109.744 252.945C109.01 254.247 108.439 255.644 107.8 256.992C104.855 263.2 101.198 268.958 97.519 274.75C92.323 282.93 87.2268 291.187 81.3476 298.9C81.2182 299.07 76.8955 305.323 78.5308 301.86C80.5933 297.492 83.2299 293.45 85.8516 289.406C90.7637 281.829 95.7142 274.247 100.379 266.515C104.148 260.265 108.068 253.723 110.187 246.683C110.282 246.367 110.376 246.05 110.43 245.725C110.455 245.579 110.18 245.906 110.116 246.039C109.237 247.875 108.471 249.769 107.614 251.616C103.2 261.115 98.6183 270.567 93.8872 279.912C90.2379 287.12 86.3221 294.177 82.4915 301.288C81.7757 302.617 81.0768 303.949 80.4468 305.32C80.1305 306.009 80.3192 305.48 80.4039 305.234C85.5689 290.274 94.2541 276.871 102.452 263.455C104.898 259.451 107.377 255.458 109.558 251.301C110.406 249.686 111.633 247.602 111.975 245.725C112.11 244.981 111.041 246.922 110.673 247.584C108.976 250.638 107.366 253.742 105.712 256.82C99.377 268.612 92.916 280.337 86.8668 292.28C84.1025 297.738 80.7325 303.427 78.8597 309.295C78.4261 310.654 80.0994 306.726 80.7042 305.435C83.5746 299.305 86.3959 293.142 89.1545 286.961C93.3237 277.62 97.1021 268.096 101.451 258.836C104.319 252.73 108.288 246.999 110.716 240.706C111.141 239.605 111.715 236.042 111.889 239.219C112.044 242.05 112.341 244.835 113.076 247.584C114.237 251.926 116.577 255.883 118.538 259.894C122.248 267.488 125.482 275.186 128.403 283.115C129.34 285.658 130.109 289.198 131.649 291.508C131.89 291.869 131.706 290.641 131.706 290.207C131.706 289.163 131.715 288.119 131.706 287.076C131.699 286.104 131.331 284.942 131.506 283.987C132.151 280.463 135.069 276.945 136.997 274.093C142.851 265.43 149.305 257.185 155.213 248.556C160.201 241.27 165.327 234.08 170.312 226.794C177.976 215.593 154.142 248.597 145.919 259.394C141.808 264.792 136.731 270.323 133.708 276.466C132.223 279.484 137.609 270.978 139.771 268.402C149.703 256.563 161.057 245.928 172.428 235.501C175.112 233.04 177.919 230.58 180.12 227.652C180.671 226.919 182.249 225.013 181.35 225.192C180.686 225.325 179.005 227.593 178.748 227.88C176.162 230.763 173.643 233.702 171.012 236.545C167.654 240.175 164.202 243.724 160.532 247.04C159.764 247.734 158.973 248.401 158.173 249.056C157.623 249.506 156.425 250.923 156.385 250.214C156.341 249.417 158.817 246.911 159.159 246.468C161.078 243.986 162.956 241.477 164.793 238.933C168.185 234.236 171.354 229.309 174.987 224.792C177.081 222.189 171.073 230.21 168.996 232.828C166.576 235.878 164.105 238.889 161.661 241.921C160.498 243.365 159.367 245.059 158.044 246.382C156.06 248.366 160.574 241.373 161.933 238.919C164.426 234.415 167.328 230.211 170.426 226.107C170.469 226.051 171.929 224.111 170.455 226.05C168.995 227.971 167.553 229.904 166.022 231.77C162.031 236.631 157.713 241.249 153.182 245.61C152.613 246.159 151.567 247.941 151.395 247.169C151.315 246.807 152.107 245.673 152.239 245.41C152.902 244.084 153.559 242.8 154.355 241.55" stroke="black" stroke-width="5" stroke-linecap="round"/>
<path d="M198.88 247.212C196.164 258.854 190.351 270.129 184.925 280.67C181.313 287.685 177.145 294.245 172.757 300.788C171.516 302.638 170.373 304.313 169.283 306.235C168.735 307.2 167.414 310.259 167.91 309.267C168.725 307.637 169.002 305.542 169.626 303.833C171.97 297.404 174.9 291.173 177.533 284.859C182.381 273.229 186.652 261.297 191.902 249.843C191.987 249.658 193.252 246.831 192.732 248.956C191.604 253.565 190.096 258.12 188.757 262.668C186.724 269.573 184.749 276.48 182.98 283.458C181.61 288.864 180.464 294.435 178.462 299.658C177.884 301.166 177.737 300.546 177.947 299.372C178.642 295.49 180.144 291.698 181.436 287.991C183.823 281.144 186.365 274.357 188.843 267.544" stroke="black" stroke-width="5" stroke-linecap="round"/>
<path d="M209.69 212.982C208.987 213.998 208.439 215.026 207.931 216.156C207.642 216.798 207.438 217.484 207.073 218.086C207.006 218.196 206.88 217.885 206.873 217.757C206.715 214.755 207.66 212.485 209.161 209.922C209.815 208.803 210.418 207.601 211.177 206.547C211.438 206.184 210.968 207.43 210.748 207.82C208.425 211.93 205.231 215.544 202.469 219.359C201.157 221.17 203.766 215.074 204.556 212.982C204.801 212.334 207.625 205.576 208.975 206.476C210.524 207.509 206.476 215.952 206.044 217.314C206.017 217.396 205.185 219.607 205.929 219.545C207.03 219.453 208.586 217.882 209.375 217.271C212.724 214.678 216.016 211.83 219.069 208.892C221.515 206.54 214.236 213.676 211.577 215.784C210.807 216.394 208.577 218.32 209.289 217.643C210.449 216.541 211.719 215.574 212.95 214.554C216.474 211.635 226.5 202.245 223.187 205.404C219.641 208.785 215.509 211.686 211.377 214.297C210.257 215.005 209.591 215.305 210.948 214.154C212.632 212.725 214.473 211.491 216.267 210.208C217.402 209.396 218.703 208.601 219.698 207.605C220.458 206.846 217.9 208.785 216.953 209.293C213.498 211.144 209.854 212.677 206.086 213.754" stroke="black" stroke-width="5" stroke-linecap="round"/>
<path d="M256.016 202.429C256.016 209.298 255.145 216.065 254.586 222.905C253.803 232.506 253.398 242.138 252.928 251.759C252.418 262.196 251.575 272.716 251.841 283.172C251.895 285.301 251.65 289.259 252.871 291.265C253.026 291.521 253.024 290.678 253.014 290.378C252.931 288.076 252.741 285.772 252.613 283.472C251.659 266.326 250.707 249.175 250.626 231.998C250.593 225.173 250.611 218.348 250.611 211.523C250.611 207.473 251.115 202.876 250.154 198.883C249.901 197.834 249.431 200.951 249.382 202.029C248.64 218.415 249.88 235.081 251.026 251.416C251.785 262.235 252.804 273.056 254.057 283.83C254.458 287.273 254.696 289.102 255.187 292.366C255.396 293.759 256.31 297.871 255.845 296.541C255.125 294.484 255.02 291.926 254.787 289.792C254.07 283.247 253.803 276.646 253.442 270.075C253.122 264.236 252.845 258.392 252.413 252.559C252.251 250.378 251.933 243.868 251.669 246.039C251.237 249.61 251.79 253.604 251.913 257.163C252.265 267.381 252.444 277.595 252.356 287.819C252.306 293.584 252.095 299.354 252.213 305.12C252.216 305.262 252.486 311.115 252.856 310.897C254.069 310.183 254.893 309.286 256.274 308.695C261.568 306.426 267.401 305.186 272.974 303.833C285.787 300.722 298.705 298.033 311.923 297.671C322.271 297.387 291.202 297.355 280.867 297.942C274.581 298.299 268.317 299.08 262.279 300.916C261.439 301.172 260.524 301.336 259.82 301.86C258.803 302.615 262.31 301.386 263.537 301.074C269.377 299.588 275.207 298.025 280.724 295.597" stroke="black" stroke-width="5" stroke-linecap="round"/>
<path d="M443.381 296.777C443.381 293.654 442.521 290.518 442.653 287.354C442.805 283.684 443.358 280.044 443.12 276.351C442.735 270.395 442.131 264.492 441.526 258.563C441.072 254.114 441.095 249.571 440.784 245.101C440.476 240.657 440.019 236.257 439.548 231.832C439.064 227.281 438.981 222.321 437.584 217.931C437.139 216.533 437.173 214.893 436.828 213.439C436.39 211.589 436.457 209.736 436.457 207.848C436.457 205.925 436.39 211.704 436.581 213.618C436.78 215.607 437.345 214.631 438.339 213.563C440.169 211.597 441.351 209.279 443.889 208.137C447.346 206.581 450.639 204.902 454.37 203.947C456.445 203.416 458.441 203.416 460.551 203.192C461.921 203.046 463.529 202.732 464.892 202.944C469.012 203.588 472.716 206.238 475.757 208.975C476.41 209.562 477.164 209.997 477.776 210.637C478.887 211.798 481.047 212.318 481.815 213.714C482.367 214.718 482.837 215.632 483.546 216.543C484.143 217.311 483.733 219.86 483.806 220.76C484.2 225.556 483.815 229.696 480.661 233.48C478.351 236.252 475.517 237.924 472.254 239.414C462.643 243.805 451.391 243.325 441.073 242.876C435.38 242.628 452.462 242.381 458.161 242.381C462.464 242.381 466.525 242.884 470.661 244.112C471.758 244.438 472.671 245.39 473.6 246.035C474.851 246.903 476.342 247.441 477.447 248.508C478.368 249.397 478.9 250.402 479.48 251.53C480.351 253.224 481.502 254.766 482.447 256.42C484.123 259.354 484.981 263.079 485.661 266.365C486.347 269.682 487.357 272.757 487.392 276.2C487.466 283.528 484.013 289.761 479.287 295.184C477.01 297.798 474.321 299.696 471.513 301.722C468.853 303.642 466.134 305.456 463.106 306.667C461.022 307.501 458.702 307.71 456.485 307.849C453.699 308.023 450.951 308.645 448.161 308.645C444.735 308.645 441.349 309.14 437.941 309.14" stroke="black" stroke-width="5" stroke-linecap="round"/>
<path d="M562.062 201.832C558.972 203.377 556.074 205.042 552.639 205.76C548.999 206.522 545.32 207.047 541.691 207.89C538.975 208.521 536.34 209.002 533.545 209.002C529.978 209.002 526.757 207.835 523.271 207.299C522.674 207.207 521.767 207.152 521.169 207.285C520.77 207.374 521.022 209.751 521.032 210.019C521.19 214.298 522.012 218.665 522.364 222.945C522.792 228.145 522.396 233.359 521.636 238.508C520.936 243.253 520.081 247.975 519.411 252.739C518.923 256.204 518.945 259.611 518.669 263.082C518.055 270.825 518.051 278.623 518.051 286.393C518.051 290.508 517.77 294.698 518.545 298.755C518.973 300.995 519.475 303.661 519.534 305.926C519.548 306.456 519.187 310.169 519.644 310.321C520.132 310.484 521.051 310 521.485 309.882C523.243 309.401 525.042 309.036 526.842 308.755C530.49 308.187 534.175 307.86 537.831 307.354C541.649 306.826 545.335 306.193 549.205 306.173C552.399 306.157 555.576 306.42 558.765 306.42C559.546 306.42 566.255 306.74 566.54 305.981C566.55 305.954 565.016 305.926 564.974 305.926C563.939 305.926 562.904 305.917 561.87 305.926C560.099 305.941 558.373 306.303 556.609 306.42C553.818 306.606 551.015 306.583 548.23 306.805C546.537 306.939 544.377 306.819 542.79 307.533C541.82 307.969 540.717 308.09 539.658 308.137C533.435 308.414 527.191 308.162 520.977 308.659C520.132 308.727 519.996 309.015 519.658 308C519.116 306.372 518.372 304.828 517.831 303.206C516.905 300.427 516.567 297.331 516.567 294.415C516.567 291.503 516.567 288.59 516.567 285.678C516.567 283.371 517.112 281.155 517.295 278.865C517.721 273.548 519.449 268.446 519.534 263.096C519.546 262.377 519.443 258.92 519.947 258.398C521.687 256.594 524.306 256.33 526.622 255.925C529.692 255.39 532.793 254.732 535.908 254.552C539.097 254.367 542.199 254.187 545.331 253.508C548.144 252.898 551.226 253.261 554.095 253.261C556.532 253.261 558.881 254.002 561.32 254.002" stroke="black" stroke-width="5" stroke-linecap="round"/>
<path d="M823.805 293.356C823.308 292.611 823.377 291.644 823.309 290.784C823.068 287.756 822.797 284.732 822.496 281.711C821.262 269.327 820.288 257.009 818.547 244.675C816.672 231.398 815.934 217.87 815.297 204.48C815.121 200.788 816.171 208.179 816.312 208.791C818.91 220.048 819.625 231.635 821.052 243.073C822.737 256.582 824.605 269.982 826.987 283.381C827.355 285.45 827.173 287.574 827.552 289.61C827.715 290.489 827.966 293.162 827.868 292.273C827.571 289.608 826.73 287.021 826.468 284.329C825.38 273.133 824.618 261.77 824.618 250.521C824.618 248.82 824.618 247.12 824.618 245.42C824.618 241.689 827.48 240.36 830.44 238.243C840.455 231.083 849.623 224.274 857.433 214.636C860.919 210.334 864.441 206.117 868.085 201.952" stroke="black" stroke-width="5" stroke-linecap="round"/>
<path d="M845.169 229.938C846.913 235.991 847.067 242.476 848.577 248.615C851.064 258.723 855.037 268.227 856.768 278.527C857.549 283.174 859.56 287.327 861.829 291.361C862.52 292.59 862.67 293.932 862.942 295.291C863.295 297.056 863.809 297.587 863.429 295.169C862.302 287.996 860.419 280.94 859.255 273.762C857.806 264.827 856.114 256.09 854.142 247.259C853.263 243.317 852.966 239.314 851.603 235.485C851.135 234.169 850.759 232.855 850.421 231.503C850.163 230.471 849.857 229.461 849.551 228.442C848.824 226.018 848.888 226.956 849.464 229.086C851.363 236.103 852.037 243.358 853.655 250.441C855.533 258.657 858.443 266.594 860.368 274.805C861.315 278.844 861.742 283.055 862.072 287.187C862.126 287.852 862.385 291.24 862.385 288.787" stroke="black" stroke-width="5" stroke-linecap="round"/>
<path d="M894.94 292.544C895.017 290.926 895.681 289.468 896.193 287.952C897.525 284.008 898.236 279.864 899.323 275.849C902.814 262.955 907.025 250.172 911.201 237.485C913.973 229.061 915.095 219.954 918.696 211.852C919.557 209.915 920.337 207.988 920.591 205.87C920.693 205.021 920.792 202.078 921.235 204.548C923.512 217.254 928.827 229.059 933.373 241.068C935.695 247.2 937.942 253.351 939.564 259.71C940.864 264.802 941.855 269.974 943.755 274.892C944.974 278.046 945.982 281.274 947.529 284.283C949.603 288.316 950.597 292.814 952.851 296.822C953.179 297.405 953.738 299.263 953.79 298.595C953.93 296.776 953.333 294.95 952.712 293.274C949.134 283.631 944.173 274.728 939.669 265.519C936.95 259.961 934.351 254.115 932.365 248.267C932.188 247.747 931.942 247.254 931.756 246.737C931.675 246.511 931.735 245.871 931.565 246.041C930.677 246.929 930.249 250.036 929.721 251.189C927.223 256.653 923.982 261.678 920.087 266.249C915.177 272.012 910.058 277.921 904.575 283.153C902.407 285.221 899.732 286.434 898.071 288.926C897.753 289.402 897.377 289.794 896.975 290.196C896.093 291.078 897.07 288.346 897.132 288.161" stroke="black" stroke-width="5" stroke-linecap="round"/>
<path d="M1005.75 229.938C1006.03 231.334 1006.87 232.683 1007.53 233.92C1009.31 237.281 1011.29 240.528 1013.27 243.781C1018.38 252.22 1023.14 260.589 1027.16 269.606C1027.95 271.377 1028.72 273.159 1029.47 274.944C1029.59 275.228 1029.89 276.499 1030.19 276.649C1031.14 277.124 1038.81 263.471 1039.14 262.91C1042.51 257.23 1045.99 251.612 1049.7 246.146C1052.67 241.771 1055.79 237.479 1058.2 232.755C1060.31 228.618 1062.37 224.222 1064.13 219.921C1064.47 219.093 1065.39 217.176 1064.51 219.312C1059.28 232.128 1050.14 243.509 1042.06 254.598C1035.44 263.683 1028.98 272.892 1023.35 282.631C1020.91 286.863 1017.5 290.317 1014.97 294.457C1011.01 300.93 1006.47 306.667 1003.25 313.586C1001.76 316.778 999.911 319.773 998.309 322.907C997.15 325.176 996.006 327.656 994.64 329.794C993.039 332.299 991.114 334.655 989.788 337.307" stroke="black" stroke-width="5" stroke-linecap="round"/>
</svg>
