<svg width="50" height="50" viewBox="0 0 50 50" fill="none" xmlns="http://www.w3.org/2000/svg">
<path d="M15.3669 1.22563C12.4859 5.43956 8.32514 8.15052 4.36506 10.6008C3.74817 10.9824 3.14447 11.3459 2.54509 11.7639C2.23971 11.9769 1.37133 12.3266 1.67307 12.4893C1.88429 12.6032 2.12054 12.2407 2.34197 12.11C3.756 11.2758 5.17801 10.467 6.61384 9.69395C10.5425 7.57872 14.4915 5.55013 18.3934 3.35331C18.4999 3.29338 22.7433 0.690505 20.5803 2.47022C17.8466 4.7195 15.1587 7.03429 12.3618 9.17017C9.45522 11.3898 6.36826 13.361 3.58636 15.8141C3.06567 16.2733 2.56404 16.8111 3.48096 16.1547C6.3097 14.1298 9.266 12.4107 12.2366 10.7379C15.8262 8.71648 19.441 6.69758 23.1116 4.92241C25.0595 3.98037 22.7887 5.56888 22.2905 6.00644C18.677 9.18029 15.0911 12.3712 11.3332 15.296C9.49542 16.7262 9.0111 17.0479 7.26307 18.3473C6.92556 18.5982 6.5831 18.8399 6.25424 19.1074C5.73552 19.5292 5.8707 19.5009 6.37688 19.3003C14.0462 16.2612 21.1248 10.8376 28.3444 6.48926C28.4877 6.40294 29.4593 5.74212 28.8243 6.43059C28.3201 6.97729 26.676 8.46176 26.3689 8.74135C22.0502 12.6726 17.6423 16.4584 13.1907 20.1666C9.96989 22.8495 12.2029 20.9706 9.46803 23.2432C8.95536 23.6692 7.38839 24.5466 7.98458 24.6118C8.37761 24.6548 8.76524 24.3362 9.14533 24.1574C10.9726 23.298 12.761 22.2966 14.5432 21.298C19.523 18.5075 24.4398 15.5781 29.2603 12.3767C30.0584 11.8467 32.0923 10.4638 33.0632 9.83903C33.3395 9.66127 33.6154 9.48098 33.9004 9.32669C34.0466 9.24757 33.6839 9.6191 33.5485 9.72391C28.9729 13.2675 24.1577 16.3891 19.4294 19.606C14.5315 22.9383 9.33167 26.0481 4.72603 29.9839C2.98219 31.4741 8.67834 28.098 10.632 27.0821C15.4521 24.5756 20.3739 22.1361 24.8973 18.8421C26.3243 17.8031 27.7744 16.5831 29.0913 15.3392C29.4737 14.9779 29.8391 14.591 30.199 14.1984C30.9638 13.3644 30.4103 13.8179 29.958 14.1986C25.3408 18.0856 20.8921 22.2577 16.2422 26.0923C12.9668 28.7934 9.43334 31.8563 5.6936 33.5353C5.27309 33.7241 5.42629 33.5936 5.69798 33.3823C6.93254 32.4223 8.23981 31.5707 9.5074 30.6826C14.9214 26.8896 20.3122 23.0397 25.7777 19.3603C28.4772 17.543 30.4281 16.2572 33.151 14.5856C34.8045 13.5705 37.5377 11.4511 39.4763 11.139C40.0011 11.0546 38.8456 12.2034 38.4314 12.622C37.4465 13.6173 33.6493 17.2143 32.9754 17.8448C26.383 24.0125 19.7141 30.329 12.4399 35.2902C10.7081 36.4713 9.41515 37.2636 7.64674 38.14C5.60993 39.1495 6.90151 38.2135 7.56648 37.8033C12.3093 34.8775 17.1052 32.1416 21.7961 29.0736C28.2159 24.8748 34.6321 20.5704 40.8322 15.89C41.4924 15.3916 43.4882 13.9899 42.7565 14.2898C42.4194 14.4279 42.1235 14.6954 41.8129 14.9114C40.4577 15.8536 37.7748 17.8137 36.658 18.6373C29.4126 23.9808 22.2635 29.6013 15.6361 36.034C14.1875 37.4399 12.1047 39.5972 10.7381 41.2745C10.2317 41.8961 8.99786 43.6243 9.70174 43.5295C10.2765 43.452 11.5248 42.571 11.8159 42.3788C14.6167 40.5296 17.3562 38.4978 20.0657 36.4563C26.9622 31.26 33.5143 25.5323 39.9985 19.6177C41.6936 18.0715 43.328 16.5527 45.0581 15.0798C45.3761 14.8091 45.6735 14.4809 46.0311 14.3015C46.8548 13.8885 44.6694 15.7074 43.9742 16.3898C37.9766 22.2768 32.184 28.4715 26.1235 34.2644C24.2237 36.0804 23.347 36.8456 21.4332 38.3996C21.2366 38.5593 19.3473 40.3061 18.7749 40.3828C18.6282 40.4025 18.9323 40.0729 19.0399 39.9456C20.1114 38.6786 21.3785 37.5539 22.5748 36.4778C27.4182 32.1213 32.6382 28.3565 38.1806 25.5166C39.77 24.7022 41.9791 23.7445 43.6815 23.134C43.9894 23.0236 45.9313 22.1283 44.9561 23.3132C42.5305 26.2603 39.7024 28.8818 37.0575 31.5332C32.667 35.9345 28.2025 40.2008 23.6206 44.3115C23.2883 44.6096 22.6584 44.7839 22.6562 45.2554C22.6557 45.3511 22.8211 45.2381 22.9005 45.2079C23.4471 44.9998 24.3939 44.4786 24.816 44.2504C29.0807 41.9446 33.1874 39.2645 37.2441 36.4381C43.2998 32.2189 37.504 36.2029 43.3079 32.1688C44.2776 31.4948 46.6852 29.3372 47.9512 29.1388C48.4189 29.0655 47.3177 30.0131 46.9531 30.3923C44.5901 32.8505 42.0888 35.1174 39.5565 37.3173C37.2265 39.3415 34.9625 41.1976 32.5911 43.1423C30.9291 44.5053 28.9758 45.8286 27.4502 47.449C26.1991 48.7778 30.5081 45.8536 31.9458 44.8361C35.2064 42.5284 38.318 39.8408 41.7647 37.96C41.9144 37.8783 45.9812 35.5678 44.92 37.3273C43.0033 40.5052 40.4023 43.1554 37.764 45.4648C36.5979 46.4855 36.0702 46.8781 34.9395 47.774C34.5741 48.0635 33.4692 48.8119 33.8926 48.7271C35.1027 48.485 36.4936 46.9466 37.4837 46.1678C38.4168 45.4339 39.9766 43.8571 41.1335 43.6994C41.2663 43.6813 40.3035 45.2701 40.2406 45.3534C39.7223 46.0394 39.2717 46.4066 38.6116 46.7932" stroke="#ADADAD" stroke-width="2" stroke-linecap="round"/>
</svg>
