<svg width="48" height="45" viewBox="0 0 48 45" fill="none" xmlns="http://www.w3.org/2000/svg">
<path d="M16.0942 4.0439C11.5561 3.69482 7.10195 2.8584 2.52673 2.8584C-0.0917386 2.8584 7.77134 2.56472 10.3423 2.06806C11.5487 1.83501 14.8115 0.408896 13.9427 1.27773C13.0365 2.18392 10.3305 2.30066 9.20068 2.46323C8.59263 2.55072 2.16393 3.58667 5.20509 3.64874C8.79985 3.7221 12.4503 3.40997 16.0283 3.84632C17.9514 4.08084 14.1727 4.40359 13.8549 4.41712C11.4026 4.52147 8.93268 4.43907 6.47841 4.43907C4.03635 4.43907 3.78702 5.10639 3.86591 7.5126C3.9775 10.916 4.23912 14.2901 4.23912 17.6992C4.23912 18.548 4.23912 19.3969 4.23912 20.2458C4.23912 21.4211 4.00717 17.9061 3.93177 16.7332C3.72113 13.4565 3.61721 10.1721 3.36097 6.8979C2.91824 1.2407 3.52725 8.30789 3.62442 10.0153C4.20455 20.2092 4.23912 30.6254 4.23912 40.8384C4.23912 41.097 4.23688 39.2941 4.19522 38.9504C3.94324 36.8716 3.15418 34.9696 3.07557 32.8473C2.98981 30.5317 3.05362 28.2049 3.05362 25.8879C3.05362 23.6142 3.19651 26.2963 3.2512 26.9636C3.53951 30.481 3.44879 34.0196 3.44879 37.5454C3.44879 38.435 2.82489 42.6998 3.62442 43.3851C4.36573 44.0205 7.42132 42.3039 8.1908 42.0678C9.2229 41.7512 12.3872 41.2269 11.3082 41.1897C8.97236 41.1091 6.62027 41.1897 4.28303 41.1897C1.85324 41.1897 7.54825 41.1897 8.1908 41.1897C8.89018 41.1897 12.1258 41.1787 11.8132 41.2117C10.8611 41.3119 9.69825 41.495 8.84942 41.98C8.53976 42.157 10.9777 42.3752 11.3521 42.3752" stroke="black" stroke-width="2" stroke-linecap="round"/>
<path d="M32.755 40.2234C37.2054 40.4801 41.5831 41.2182 46.0632 41.1307C48.6273 41.0806 40.9333 41.52 38.4253 42.058C37.2485 42.3105 34.0808 43.7765 34.9149 42.9047C35.7848 41.9955 38.4323 41.8289 39.5356 41.6473C40.1293 41.5495 46.4045 40.407 43.4254 40.4041C39.9039 40.4006 36.3353 40.7776 32.8233 40.4166C30.9356 40.2225 34.6296 39.8326 34.9406 39.8132C37.3399 39.6636 39.76 39.6975 42.1633 39.6506C44.5546 39.6039 44.7859 38.9423 44.6624 36.5756C44.4878 33.2281 44.1667 29.9122 44.1012 26.5569C44.0849 25.7215 44.0686 24.886 44.0523 24.0505C44.0297 22.8937 44.3244 26.3488 44.4207 27.5018C44.69 30.7227 44.8549 33.9533 45.1687 37.1709C45.711 42.7304 44.9788 35.7864 44.8508 34.1077C44.0868 24.0859 43.8528 13.8347 43.6565 3.78286C43.6515 3.52842 43.6884 5.30275 43.7358 5.64024C44.0225 7.68145 44.8317 9.53832 44.9494 11.6257C45.0779 13.903 45.0602 16.1943 45.1047 18.4747C45.1484 20.7125 44.9569 18.0755 44.8905 17.4198C44.5406 13.9634 44.5614 10.479 44.4937 7.00884C44.4766 6.13327 45.0055 1.92387 44.2095 1.26466C43.4713 0.653455 40.5122 2.40134 39.7633 2.64841C38.7587 2.97982 35.6703 3.55633 36.7275 3.57232C39.0164 3.60693 41.3181 3.48267 43.6067 3.43798C45.986 3.39152 40.4094 3.50042 39.7802 3.51271C39.0953 3.52608 35.9272 3.59873 36.2326 3.56037C37.163 3.44352 38.2982 3.24106 39.12 2.74744C39.4199 2.56736 37.0284 2.3992 36.6617 2.40636" stroke="black" stroke-width="2" stroke-linecap="round"/>
<path d="M24.4844 14.1821C24.4844 19.0232 24.7204 23.3705 23.9355 28.1667C23.7755 29.1449 23.7322 32.1209 23.6941 31.1304C23.6184 29.1623 23.3175 27.2213 23.2989 25.2468C23.2691 22.0934 23.2989 18.9383 23.2989 15.7847C23.2989 12.0283 23.5576 23.2931 23.6941 27.047C23.7095 27.4726 23.9762 28.7614 24.0673 27.4861C24.2589 24.8038 23.7885 22.0666 23.716 19.3852C23.6637 17.4499 23.5409 15.4076 23.7819 13.4796C23.8447 12.9768 23.9891 11.2122 24.177 12.6454C24.6938 16.5853 24.4844 20.6004 24.4844 24.5663C24.4844 25.8323 24.4934 23.5687 24.5722 23.271C25.1266 21.1765 24.9427 21.8128 22.4866 21.6684C19.9154 21.5171 17.716 21.5181 15.1321 21.6903C12.1311 21.8904 21.1474 21.6903 24.1551 21.6903C26.4261 21.6903 28.6563 21.7461 30.8949 22.1733C31.3155 22.2536 36.2027 23.5559 34.188 23.0954C29.6899 22.0672 25.1936 21.8771 20.6644 21.2732C19.381 21.1021 18.1465 20.9176 16.8445 20.9C14.1615 20.8637 18.8072 21.1843 19.2155 21.2073C21.9396 21.3608 24.6773 21.2951 27.4042 21.2951C28.5682 21.2951 29.7723 21.2368 30.9388 21.2951C31.21 21.3087 30.4147 21.4395 30.1485 21.4927C26.8854 22.1453 23.4499 22.0855 20.1375 22.0855" stroke="black" stroke-width="2" stroke-linecap="round"/>
</svg>
