<svg width="189" height="118" viewBox="0 0 189 118" fill="none" xmlns="http://www.w3.org/2000/svg">
<path d="M74.8383 30.5686C74.3929 36.5168 74.1049 42.469 73.6196 48.4143C72.4751 62.4367 74.6676 76.2598 73.4684 90.2676C72.177 105.353 71.0721 60.101 72.0647 44.9919C72.3434 40.75 72.5905 36.5179 72.7475 32.2878C72.7981 30.9256 72.8441 29.4087 72.8651 28.0292C72.8684 27.8135 72.8309 28.466 72.8245 28.6827C72.4431 41.6402 75.6264 54.5095 74.7768 67.5281C74.2627 75.4044 72.3625 99.007 73.0918 91.1538C74.0631 80.6952 71.2543 70.3339 72.2254 59.8693C73.1889 49.4866 74.6859 37.7969 74.0989 27.6761C74.0174 26.27 73.8772 25.1281 73.8207 27.5849C73.7012 32.7779 73.7316 37.9036 73.5805 43.1124C73.191 56.5473 76.4691 70.4353 74.5878 83.7158C74.2588 86.0386 73.8238 88.3507 73.577 90.7212C73.4708 91.7415 73.7306 88.6693 73.8074 87.6434C74.5615 77.5708 71.3158 67.5388 72.0699 57.4661C72.3633 53.5476 72.7103 49.5813 72.8782 45.6624C72.9076 44.975 72.9296 44.2828 72.8289 45.4243C72.677 47.1469 72.5613 48.8748 72.4164 50.5986C71.4908 61.6055 73.7555 72.1376 72.6667 83.0562C72.578 83.9462 72.2965 86.5725 72.466 85.7376C72.9182 83.5098 73.4771 81.5071 74.131 79.6253C77.0475 71.2331 80.9877 65.4583 84.7692 61.7344C86.634 59.8981 88.5547 58.477 90.4512 57.5173C91.6611 56.9051 90.7859 57.5027 90.2267 57.8288C86.1364 60.2134 82.1188 62.2842 78.0252 63.7853C76.9555 64.1775 74.2234 64.0659 73.12 66.1379C72.5996 67.1152 74.1565 67.1413 74.7157 67.3359C78.2005 68.5491 81.6844 66.5468 85.2873 64.4462C86.1684 63.9325 88.808 62.7731 87.9311 62.9559C86.4118 63.2727 84.882 63.8007 83.3598 64.2081C80.673 64.9273 77.9878 65.5996 75.2994 66.3714C74.8149 66.5105 71.897 67.4177 74.3674 66.7237C79.6927 65.2277 84.8799 61.2218 90.1871 57.6851C90.7134 57.3344 92.2906 56.3735 91.7638 56.5605C90.2324 57.104 88.6541 58.5197 87.127 59.4725C83.8989 61.4866 74.2113 67.3397 77.4396 65.3358C80.2617 63.584 83.0756 61.5023 85.8998 59.8495C86.9071 59.26 89.8116 56.7155 88.9236 58.4346C87.599 60.9988 85.4654 62.243 84.0327 63.5082C81.6856 65.5808 79.3213 67.3036 76.9757 69.4043C75.441 70.7788 73.4408 72.2476 72.0117 74.8945C71.1695 76.4542 73.8903 73.4734 74.8263 72.6901C77.2378 70.6721 79.6125 68.2373 81.9807 65.6055C83.8424 63.5366 85.717 61.4717 87.5437 59.0582C88.9108 57.252 87.2308 59.2093 87.0941 59.3528C85.1293 61.4138 83.1299 62.9485 81.1448 64.6754C79.5698 66.0454 77.7174 67.2367 76.2438 69.7716C75.9303 70.311 76.9369 69.5884 77.278 69.2863C79.3118 67.4846 81.3196 65.4268 83.3199 63.1735C85.6622 60.5349 92.7256 53.0359 90.3679 55.4946C86.6749 59.346 82.9381 61.9613 79.2146 65.2577C78.788 65.6354 77.8632 66.4424 77.3701 67.1595C76.9685 67.7435 77.3003 67.6639 77.4971 67.5911C78.7812 67.1159 80.124 65.6278 81.3808 64.4351C84.4064 61.5637 87.4121 58.4105 90.4505 55.7353C90.9182 55.3235 92.317 54.0185 91.8525 54.4803C91.121 55.2075 90.4722 56.5178 89.8528 57.8946C89.069 59.6371 88.3273 61.534 87.5727 63.3746C87.0599 64.6256 86.3479 66.8641 85.7235 67.6911C85.0336 68.605 86.7575 64.4654 87.2974 62.9085C88.9252 58.214 90.5779 53.5736 92.0839 48.589C93.2403 44.7616 94.3044 40.7824 95.2082 36.5366C95.2691 36.2507 96.4876 29.583 96.3819 30.7158C95.109 44.3543 93.8412 57.9325 92.8163 71.6219C92.6223 74.2133 92.3892 76.8914 92.3031 79.4852C92.2972 79.6618 92.3089 80.1784 92.3147 80.0019C92.331 79.5026 92.3226 77.9446 92.3221 77.775C92.2912 66.1938 93.142 54.6901 94.066 42.946C94.2831 40.1856 94.5091 37.4245 94.7941 34.6768C94.9288 33.3776 94.6304 37.2902 94.5342 38.5964C93.42 53.7238 92.4908 68.8965 91.7376 84.015C91.7341 84.0846 91.6067 86.7052 91.6099 87.288C91.6121 87.6859 91.7047 86.4835 91.734 86.0781C92.0847 81.2298 92.2774 76.4022 92.3827 71.5895C92.74 55.265 92.4628 39.3404 92.223 23.3235C92.0844 14.0658 93.6971 40.8828 94.0408 50.0016C94.4143 59.9093 94.6765 69.9392 94.8218 80.002C94.861 82.7146 95.1093 87.1882 94.7264 90.124C94.5703 91.321 94.6625 87.7669 94.6481 86.5776C94.5695 80.0961 94.4635 73.6302 94.3925 67.1443C94.2849 57.3064 94.3184 47.3793 94.1405 37.5822C94.0457 32.3604 93.8527 27.2212 93.2232 22.5074C92.9082 20.1481 92.9361 22.554 92.9542 23.6361C93.0803 31.141 93.5108 38.5031 93.8846 45.8164C94.5884 59.5837 95.6701 73.2824 95.8746 87.4432C95.9859 95.1529 94.7679 72.7047 94.5128 65.09C94.2647 57.6847 94.1296 50.2175 94.0417 42.7097C94.0093 39.9387 94.0031 38.5664 93.9406 35.9962C93.9246 35.3378 93.9976 33.421 93.8604 34.0441C93.6726 34.8968 93.8474 39.4408 93.8527 39.8584C93.9664 48.6953 94.1979 57.463 94.3219 66.2949C94.4302 74.0071 94.5128 81.7334 94.6353 89.4372C94.688 92.758 94.6499 91.9836 94.5449 89.5242C94.0499 77.9288 93.8596 66.1116 93.4121 54.4798C93.1564 47.8336 92.8513 41.2268 92.4889 34.6683C92.4417 33.8141 92.3359 31.2335 92.3272 32.1239C92.2308 41.9585 92.5225 51.6547 93.0348 61.0871C93.3705 67.2671 93.8554 73.3102 94.1712 79.5078C94.2385 80.8288 94.4859 84.6808 94.2712 83.5482C94.208 83.2147 94.0261 79.8774 93.8912 81.4564C93.7427 83.1938 93.8363 84.5518 93.9958 86.1067" stroke="black" stroke-width="2"/>
<path d="M103.559 38.5425C102.181 41.5085 100.916 45.2821 99.7308 49.1369C99.5942 49.581 98.4137 54.1091 99.421 51.8304C103.437 42.7461 107.226 32.574 111.331 23.913C111.878 22.7594 113.241 19.6541 111.869 23.0062C109.697 28.3149 107.35 32.6309 104.881 36.2478C103.562 38.1802 102.605 39.3937 101.268 41.1039C100.735 41.786 99.0352 42.8889 98.5803 44.6791C98.1489 46.377 99.883 43.7146 100.515 43.0708C101.859 41.702 103.188 40.2078 104.508 38.6549C107.308 35.3611 110.052 31.639 112.898 28.6923C113.838 27.7189 114.429 27.1752 115.359 26.4395C115.707 26.1638 116.616 24.9145 116.445 26.0198C116.31 26.8899 116.041 27.3143 115.818 27.8623C114.798 30.3663 113.695 32.4555 112.566 34.3511C109.179 40.0368 105.537 44.0444 102.022 48.871C101.975 48.9365 100.877 50.4883 100.623 50.793C100.183 51.3222 100.658 50.1592 100.706 50.003C101.276 48.1519 101.825 46.7993 102.577 45.929C103.088 45.3388 102.734 46.449 102.551 47.3546C102.041 49.8783 101.466 51.5625 100.674 52.8237C100.394 53.2688 99.5593 53.0685 99.8214 54.0707C100.579 56.9698 101.945 59.4496 102.805 61.6632C105.329 68.1569 107.801 75.0145 110.241 82.0406C110.681 83.3086 113.428 91.2547 111.316 85.9222C109.208 80.5987 107.062 75.6011 104.904 70.6792C103.214 66.8268 101.524 62.9249 99.7971 59.4189C99.3835 58.579 98.1545 56.2509 98.5172 57.4394C100.342 63.4198 102.45 68.626 104.392 73.938C105.835 77.8875 107.291 81.7535 108.738 85.6838C109.063 86.5679 109.387 87.4613 109.712 88.3516C109.951 89.0079 110.57 91.2492 110.435 90.2802C110.284 89.1949 109.943 88.5831 109.689 87.7719C108.75 84.7774 107.79 81.89 106.836 78.9796C105.181 73.9362 103.375 69.0102 101.907 63.1166C99.8954 55.0463 106.202 78.3116 108.129 86.6534C108.539 88.4308 108.815 89.6454 109.175 91.4667C109.316 92.1799 109.556 94.409 109.579 93.6486C109.717 89.2025 110.094 86.3228 110.96 83.4465C113.921 73.6184 125.77 59.026 121.917 64.1633C120.363 66.2363 118.889 68.9799 117.418 71.5762C114.829 76.1459 112.19 80.8312 109.988 87.4328C109.25 89.645 109.134 91.0442 110.125 89.1963C112.28 85.1798 114.049 79.1196 115.872 73.5368C117.353 69.0017 118.848 64.5141 120.545 60.9985C120.682 60.7152 121.106 59.9584 120.952 60.1293C120.347 60.7991 119.781 62.0621 119.217 62.9739C115.362 69.2094 103.088 82.956 107.316 79.4712C111.796 75.7787 115.756 67.9216 120.294 64.5889C121.385 63.7873 124.584 61.269 123.678 63.3218C122.135 66.8196 120.185 68.2328 118.541 71.1541C117.977 72.1557 117.56 73.062 117.06 74.3309C116.879 74.7892 116.429 76.4837 116.524 75.7317C116.744 73.9821 117.106 72.6742 117.292 70.7998C118.196 61.7053 116.319 49.5026 115.068 40.1735C114.445 35.5275 113.521 30.2204 113.2 25.3019C113.059 23.144 114.088 26.6596 114.098 26.6962C117.322 38.9847 122.699 85.9435 120.708 70.9254C119.043 58.3634 114.211 20.505 115.734 33.2143C116.518 39.7498 117.788 46.0922 118.823 52.2485C119.492 56.23 121.304 68.2852 120.935 63.995C120.497 58.9066 119.59 53.7558 118.872 48.9909C117.567 40.3442 116.213 31.7511 114.978 23.0065C114.939 22.7348 113.899 15.4038 114.593 19.8644C115.981 28.7788 117.344 37.8638 118.197 47.3497C118.238 47.8102 118.764 55.0752 118.594 53.6582C117.872 47.6561 117.556 40.9842 117.248 34.8879C117.199 33.9069 116.873 26.0106 117.224 31.5479C117.486 35.671 117.611 39.7946 117.761 43.8912" stroke="black" stroke-width="2"/>
<path d="M126.615 24.8831C126.848 36.1891 127.113 56.4474 126.946 67.6908C126.837 75.0674 126.828 82.4381 126.855 89.8457C126.862 91.4669 126.844 93.1324 126.913 94.7578C126.938 95.3283 126.969 95.4765 126.959 94.8784C126.756 82.4933 126.429 70.1091 126.243 57.7225C126.144 51.1138 126.027 44.5111 126.057 37.917C126.066 35.9137 125.723 24.7505 125.737 22.7484C125.739 22.4935 125.689 20.736 125.765 20.4214C125.899 19.8694 128.018 23.6495 128.142 23.8274C130.895 27.7573 133.781 30.3216 136.641 33.097C138.438 34.8412 140.363 36.4359 142.006 39.6012C142.026 39.6396 143.014 49.8372 142.775 50.2814C142.404 50.9714 141.829 51.3481 141.43 51.7674C139.032 54.2873 136.551 55.7438 134.028 56.8157C131.143 58.0414 127.84 57.9763 125.153 61.5992C124.85 62.0074 125.019 62.0007 125.23 61.9448C125.878 61.7733 126.52 61.2457 127.145 60.7769C129.032 59.3621 130.911 57.8535 132.796 56.4244C134.458 55.1647 136.118 53.8246 137.802 52.8143C138.194 52.5791 139.278 51.5088 138.995 52.3731C138.768 53.0631 137.725 53.2873 137.5 53.4282C135.24 54.8455 132.983 56.309 130.721 57.7171C129.409 58.5343 128.097 59.3604 126.801 60.3673C126.555 60.5583 126.309 60.748 126.066 60.9727C125.921 61.1071 125.548 61.3129 125.668 61.6406C125.858 62.1581 126.149 62.0034 126.391 62.0424C127.326 62.1926 128.252 61.8712 129.162 61.4124C131.899 60.0331 134.578 57.8816 137.32 56.5396C139.436 55.5041 141.571 54.7553 143.71 54.151C143.858 54.1095 144.005 54.0753 144.152 54.0378C144.202 54.025 144.354 53.9989 144.303 54C144.245 54.0012 144.188 54.0233 144.131 54.0382C143.509 54.1995 142.89 54.4285 142.268 54.5974C140.515 55.0737 138.748 55.2787 136.983 55.3833C136.677 55.4014 134.876 56.0433 135.935 54.4674C137.884 51.5652 139.87 52.0775 142.026 51.7899C142.402 51.7398 143.522 51.7145 143.147 51.5064C142.348 51.0627 142.683 37.129 141.895 36.4784C139.503 34.5021 135.619 36.5379 133.274 33.9476C132.243 32.8091 131.229 31.5333 130.232 30.0865C129.931 29.6502 129.26 28.9477 129.015 28.0456C128.941 27.7749 130.986 28.3044 131.106 28.3671C133.425 29.5757 135.735 31.4608 138.021 33.329C138.68 33.8673 140.629 35.743 139.96 35.4419C139.494 35.2321 138.979 34.5027 138.544 33.978C137.301 32.4801 136.074 30.8337 134.826 29.3843C132.301 26.4522 129.728 24.0272 127.147 21.7818C126.519 21.2351 126.244 29.8445 125.607 29.4539C125.283 29.2558 125.749 29.9338 125.786 30.0058C126.817 32.0288 127.506 24.7684 128.558 26.6661C130.137 29.513 131.942 32.0257 133.334 35.8387C133.799 37.1122 133.612 37.2593 133.162 36.6582C131.576 34.5451 130.037 31.757 128.532 29.0798C127.104 26.538 126.043 33.0815 124.645 30.3592C124.502 30.0802 124.07 29.2534 124.216 29.5173C124.785 30.5461 125.355 31.562 125.921 32.6072C127.269 35.0983 128.261 28.3649 129.647 30.6194C129.929 31.0774 131.168 33.6087 130.341 31.1607C129.619 29.0261 128.832 27.1333 128.032 25.3227C127.22 23.4824 126.733 30.1122 125.836 28.7374C125.561 28.317 125.828 33.2621 125.835 33.4424C126.23 43.4638 126.641 53.4395 126.876 63.4908C127.071 71.8028 127.164 80.0499 127.035 88.3142C127.017 89.4797 127.032 90.7592 126.996 91.9262C126.969 92.7678 126.924 90.2264 126.889 89.3763C126.21 72.9019 125.401 56.5583 125.05 40.0211C124.979 36.7007 124.628 26.7854 124.861 30.0596C125.438 38.1613 125.841 46.4016 126.275 54.5621C126.877 65.8603 128.513 99.759 127.663 88.5791C126.516 73.4843 126.483 57.5304 126.168 42.2551C126.087 38.2985 126.076 39.9703 126.056 42.6046C125.976 53.4495 126.11 64.3619 126.284 75.2393C126.384 81.4628 126.597 87.7272 126.647 93.9473C126.654 94.7532 126.279 92.2697 126.215 91.8728" stroke="black" stroke-width="2"/>
<path d="M49.3043 86.02C52.2613 85.9899 55.2507 90.4689 58.2064 90.4123C60.2634 90.373 66.3485 86.9834 64.3266 85.4334C63.3282 84.668 62.3889 90.6091 61.4202 91.3436C60.6033 91.9631 58.1019 92.7904 58.9087 92.044C61.132 89.987 63.5276 84.3071 65.819 83.5866C65.8488 83.5773 68.2162 82.4655 68.2142 82.4537C68.1057 81.8217 66.1233 82.7904 66.007 82.8135C62.9317 83.4264 59.9219 88.5376 56.8378 87.9199C56.6696 87.8862 56.5007 87.8988 56.3331 87.8286C56.272 87.8031 56.4533 87.7561 56.514 87.7304C57.3049 87.3957 58.1044 87.387 58.9031 87.3687C61.519 87.309 64.0815 81.9655 66.6978 81.9389C68.5047 81.9205 65.4696 82.3852 65.1631 82.3883C61.3858 82.4267 57.632 86.7094 53.8701 87.8055C52.5075 88.2026 51.028 83.5238 49.7273 84.9553C49.7246 84.9582 49.3204 85.3915 49.6347 85.4864C49.9453 85.5802 50.7009 85.3622 50.934 85.2804C56.5415 90.4293 63.3003 87.7096 63.5321 80.236C64.1619 80.013 66.0476 79.3893 65.4121 79.3493C64.4139 79.2863 63.4009 79.6181 62.4084 79.8136C61.3849 87.8737 56.7824 89.6863 52.5128 86.4214C51.444 86.6767 52.9615 86.4237 53.0164 86.4163C54.7308 86.1848 56.4622 87.8398 58.1799 87.8099C60.2131 87.7744 62.1922 82.391 64.2257 82.3979C65.208 82.4012 65.0806 82.4764 64.3291 82.927C63.643 83.3383 62.9571 83.7495 62.2706 84.1529C61.9238 84.3568 61.8863 89.8853 62.0798 88.7824C62.7507 84.9591 63.2547 75.0308 63.2507 70.4544C63.2502 69.902 63.0705 64.2478 63.0846 66.5038C63.117 71.6919 63.2046 76.8821 63.2429 82.0705C63.2596 84.3385 63.1309 82.2261 63.0816 81.3491C62.7938 76.2219 62.6989 71.0007 62.518 65.8348C62.3296 60.4528 62.0706 55.1068 61.8366 49.7432C61.7736 48.2976 61.7213 47.3154 61.8032 49.2133C62.0912 55.8832 62.6513 62.4484 62.9851 69.1075C63.1368 72.1337 63.2482 75.3367 63.554 78.2596C63.6398 79.0801 63.6725 76.5669 63.6539 75.704C63.5487 70.8362 63.4281 65.9471 63.2255 61.104C63.1599 59.5341 62.5445 53.5384 62.7691 51.9991C62.8515 51.4345 62.9074 53.2054 62.9556 53.8287C63.0912 55.581 63.171 56.9935 63.2859 58.7899C63.61 63.8521 63.9659 68.8752 64.4878 73.7676C64.6648 75.4279 65.286 80.292 65.1109 78.6293C64.759 75.287 64.3243 72.0189 63.8776 68.8093C63.036 62.7622 60.147 45.2326 61.0673 51.1488C61.9615 56.8968 63.2854 62.3475 64.533 67.212C65.3542 70.4141 66.217 73.5059 67.0771 76.585C67.6626 78.6812 67.301 77.1555 66.9598 76.056C64.6169 68.507 61.861 62.6425 58.9167 58.4487C58.7398 58.1967 57.8864 57.0464 57.6399 56.7266C57.5143 56.5637 57.1892 55.8976 57.2577 56.2966C57.438 57.3466 58.3693 58.6792 58.6448 59.2227C60.3586 62.6044 62.2234 65.824 64.0676 68.2289C64.38 68.6363 64.3084 68.2987 64.1182 67.6982C63.4139 65.4748 62.6015 63.6576 61.7928 61.938C60.3481 58.8662 58.849 56.1069 57.3537 53.3555C56.6768 52.1101 54.8391 47.7115 55.2892 49.858C55.758 52.0937 56.7337 53.883 57.3618 55.5244C59.0149 59.8442 60.7078 63.9753 62.3612 68.2945C63.866 72.2256 65.3741 76.2101 66.822 80.3953C67.6193 82.6999 66.8639 80.8548 66.5807 80.0603C64.1328 73.1931 61.4241 67.626 58.9152 61.0515C58.7313 60.5695 57.538 57.8507 57.6514 56.4854C57.6963 55.9446 59.0198 57.8771 59.0513 57.9172C60.4745 59.7336 64.758 65.0342 63.3441 63.1272C63.0524 62.7339 62.7768 61.6125 62.5385 60.9664C61.6317 58.5079 60.6685 56.2914 59.6986 54.1511C57.5527 49.4158 56.9614 44.7427 54.7699 40.2717C54.6424 40.0115 55.4523 42.2414 55.6339 42.6728C55.6713 42.7616 56.3316 44.2939 56.3612 44.015C56.4125 43.5301 55.1742 41.1832 55.128 41.0874C54.1484 39.0571 53.1329 37.3288 52.093 35.72C51.9908 35.5619 51.4968 34.8123 51.3257 34.571C51.2746 34.499 51.1325 34.5131 51.1698 34.3798C51.2534 34.0804 52.2037 34.3677 52.2471 34.3688C53.588 34.4048 57.4979 22.1942 58.8364 22.5908C62.4023 23.6474 63.5148 37.6563 67.0729 36.4834C69.1361 35.8033 62.8571 27.1248 60.7773 26.9576C57.4219 26.6878 54.0936 33.4798 50.7525 31.8777C48.6261 30.8581 54.9406 23.6107 57.0792 23.8141C60.091 24.1005 69.1984 32.0274 66.1884 32.0581C62.3781 32.0968 58.4943 24.9083 54.684 24.947C54.045 24.9535 53.4797 32.2009 52.8407 32.1938C52.6818 32.1921 52.2502 32.4715 52.364 32.1023C52.7783 30.7578 54.6102 23.7821 55.0625 23.6418C59.2999 22.327 63.6482 28.6136 67.916 28.5702C70.033 28.5486 63.6275 22.3512 61.5186 22.8049C59.7569 23.184 54.4792 24.3025 56.2218 23.4372C59.2671 21.925 62.4494 29.3292 65.5026 27.9199C65.5071 27.9179 67.1394 27.2265 66.0699 27.2876C64.6087 27.3709 63.0859 20.7455 61.6443 21.4059C60.0212 22.1494 58.4033 23.011 56.7859 23.8653C56.7859 23.8653 55.9844 24.2797 55.8259 24.4052C55.7126 24.4948 56.0591 24.3553 56.1747 24.3053C59.2676 22.9668 62.4503 30.575 65.5681 30.2328C66.0939 30.1751 67.6894 29.8954 65.9844 29.8912C63.8718 29.886 61.6845 22.671 59.5738 22.8247C57.9362 22.944 56.3023 23.2013 54.6697 23.5494C54.3073 23.6267 54.0146 23.7315 54.5578 23.5505C55.9451 23.0883 57.3429 22.4269 58.6598 21.0024" stroke="black" stroke-width="2"/>
<path d="M50.6834 77.4141C51.4457 78.9148 51.5354 83.1328 52.7913 84.247C53.6835 85.0385 54.6279 85.619 55.6906 86.1359C55.8885 86.2321 56.0756 86.3533 56.2716 86.4498C56.4415 86.5334 55.9868 86.1984 55.8398 86.0782C53.7827 84.3965 51.5312 82.9492 49.5166 81.2125C49.0307 80.7936 49.5878 81.3668 49.6949 81.4915C50.1937 82.0726 50.6577 82.7188 51.0025 83.4053C51.1758 83.7504 51.8498 85.4676 50.9617 84.4427C50.2391 83.6089 49.7285 82.5802 49.2806 81.5779C49.7147 77.3696 49.257 76.1092 49.1931 74.7849C49.1334 73.5484 49.6711 77.2324 48.6805 81.4803C48.6615 82.5933 48.5953 81.3338 48.5817 81.0233C49.5166 77.2219 49.5179 76.4292 49.5099 75.6372" stroke="black" stroke-width="2" stroke-linecap="round"/>
<path d="M52.8595 48.1158C52.1918 46.3865 52.2427 44.1353 52.1758 42.2648C52.1306 41.0027 52.1111 39.7384 52.0345 38.4781C52.0124 38.1128 51.8849 37.5535 52.0636 38.2316C53.0384 41.9292 54.7084 45.2177 56.336 48.4924C56.4991 48.8206 56.6764 49.1595 56.8086 49.5125C56.892 49.7353 56.647 49.0632 56.5804 48.8315C55.7555 45.9599 55.2904 42.9084 54.6413 39.9688C54.2165 38.045 53.7252 36.1271 53.3893 34.1738C53.3655 34.0352 53.2775 32.8292 53.2803 33.552C53.2907 36.312 53.1752 44.5627 53.4672 41.8296C53.6419 40.194 53.4898 38.3734 53.4391 36.7356C53.3581 34.1262 53.1082 31.5696 52.5116 29.0633C52.4685 28.882 52.2442 27.6211 52.3125 28.5228C52.3694 29.2739 52.5723 30.0134 52.6829 30.7547" stroke="black" stroke-width="2" stroke-linecap="round"/>
<path d="M21.2809 22.162C17.0063 21.4613 12.8093 19.774 8.50072 19.7799C6.03483 19.7833 13.4389 19.1787 15.8587 18.1701C16.9941 17.6968 20.0629 14.8059 19.2471 16.5657C18.3962 18.4011 15.8482 18.6409 14.7847 18.9714C14.2123 19.1493 8.16108 21.2545 11.0252 21.3762C14.4107 21.52 17.8475 20.8835 21.2183 21.7621C23.03 22.2343 19.4724 22.8925 19.1731 22.9203C16.864 23.1347 14.5378 22.9711 12.2265 22.9743C9.92676 22.9774 9.69382 24.3285 9.7748 29.1989C9.88935 36.0876 10.1451 42.9169 10.1546 49.8173C10.157 51.5355 10.1593 53.2537 10.1617 54.972C10.1649 57.351 9.93674 50.2365 9.86247 47.8624C9.65499 41.2302 9.54799 34.5823 9.29758 27.9553C8.86491 16.505 9.45809 30.8091 9.55434 34.265C10.129 54.8979 10.1905 75.9816 10.2189 96.6541C10.2197 97.1774 10.2125 93.5282 10.1723 92.8325C9.92927 88.625 9.1809 84.7762 9.10097 80.4804C9.01377 75.7936 9.06739 71.0837 9.06094 66.3939C9.05462 61.7917 9.19664 67.2204 9.25001 68.571C9.5313 75.6903 9.4557 82.8529 9.4655 89.9895C9.46798 91.7902 8.89229 100.423 9.64714 101.81C10.347 103.095 13.2198 99.6163 13.9438 99.1375C14.9149 98.4951 17.8933 97.4298 16.8771 97.3559C14.6771 97.1959 12.4623 97.362 10.2613 97.365C7.97306 97.3682 13.3362 97.3608 13.9413 97.36C14.6 97.3591 17.647 97.3327 17.3527 97.3997C16.4563 97.6038 15.3618 97.976 14.5638 98.9589C14.2726 99.3174 16.5691 99.756 16.9218 99.7555" stroke="black" stroke-width="3" stroke-linecap="round"/>
<path d="M168.199 96.2743C172.276 96.9274 176.293 98.5816 180.392 98.5178C182.737 98.4814 175.703 99.1935 173.415 100.248C172.342 100.743 169.464 103.715 170.215 101.92C170.998 100.048 173.418 99.771 174.425 99.4217C174.967 99.2337 180.693 97.0184 177.967 96.9335C174.744 96.833 171.484 97.5243 168.265 96.6788C166.534 96.2244 169.909 95.5095 170.193 95.4773C172.387 95.229 174.602 95.3637 176.801 95.3295C178.989 95.2955 179.191 93.9227 179.043 88.9865C178.835 82.0047 178.493 75.0849 178.384 68.0898C178.357 66.348 178.33 64.6062 178.303 62.8644C178.265 60.4527 178.585 67.662 178.69 70.0676C178.983 76.7882 179.181 83.5261 179.515 90.2408C180.093 101.843 179.321 87.3499 179.18 83.8478C178.335 62.9391 177.971 41.5664 177.646 20.6102C177.637 20.0797 177.697 23.7789 177.745 24.4836C178.037 28.7457 178.805 32.6374 178.943 36.9911C179.094 41.7412 179.111 46.5165 179.185 51.2708C179.257 55.9361 179.044 50.4347 178.973 49.0662C178.603 41.8529 178.571 34.5908 178.459 27.3562C178.43 25.5308 178.853 16.7712 178.115 15.3762C177.431 14.0827 174.748 17.6474 174.066 18.1426C173.152 18.8068 170.334 19.9266 171.301 19.9879C173.397 20.1206 175.501 19.9226 177.595 19.89C179.772 19.8562 174.67 19.9355 174.094 19.9445C173.468 19.9542 170.569 20.0218 170.848 19.9499C171.698 19.731 172.734 19.3391 173.479 18.332C173.751 17.9646 171.56 17.5508 171.224 17.556" stroke="black" stroke-width="3" stroke-linecap="round"/>
</svg>
