              <svg class="strikethrough" xmlns="http://www.w3.org/2000/svg" width="135" height="11" viewBox="0 0 135 11" fill="none">
                <path d="M13.0467 4.71508C19.3446 4.04823 25.6948 4.1238 32.0198 4.11488C48.0918 4.09221 64.164 4.13043 80.2361 4.11488C92.6978 4.10281 105.157 3.64805 117.615 3.64805C118.687 3.64805 121.775 3.46887 120.816 3.94815C119.987 4.36275 117.836 4.11981 117.082 4.11488C104.87 4.03506 92.6745 2.83249 80.4695 2.44764C62.4156 1.87838 44.3447 2.01416 26.2845 2.01416C20.916 2.01416 15.5475 2.01416 10.179 2.01416C9.76778 2.01416 9.35637 2.00275 8.94528 2.01416C8.23385 2.03393 10.3684 2.04772 11.0793 2.08085C25.2471 2.74122 39.3844 3.94564 53.5604 4.54836C73.6298 5.40165 93.7267 6.00757 113.814 6.18224C119.294 6.22989 124.773 6.20062 130.253 6.21559C130.948 6.21749 131.643 6.2149 132.337 6.23226C133.668 6.26553 132.401 6.34558 131.887 6.38231C119.337 7.27873 106.617 6.78291 94.0574 6.48234C75.2041 6.03115 56.3627 5.67302 37.5049 5.46533C31.6973 5.40137 25.8904 5.3281 20.0824 5.31528C18.436 5.31165 16.2195 5.07211 14.5305 5.33195C13.3002 5.52123 17.0073 5.58688 18.2484 5.68207C22.8617 6.03589 27.4792 6.31109 32.1031 6.48234C47.7519 7.06193 63.448 6.89043 79.1024 6.64907C88.7882 6.49973 98.7999 5.52423 108.479 6.21559C115.176 6.69393 95.0523 6.52171 88.3388 6.449C71.5313 6.26697 54.7115 5.73238 37.9218 4.94849C32.0019 4.67211 26.081 4.3609 20.1657 3.99817C18.7334 3.91034 14.4924 3.94359 15.881 3.58136C17.6136 3.12937 22.313 3.96987 23.5335 4.08153C30.4357 4.71296 37.2991 5.655 44.1905 6.38231C60.7804 8.13318 77.4636 8.7688 94.1408 8.48302C98.0857 8.41542 102.186 8.43413 106.128 8.04954C108.014 7.86553 102.338 8.0247 100.443 8.0162C86.4002 7.95323 72.3667 7.20233 58.3287 6.88248C42.4714 6.52117 26.4132 7.00748 10.5958 5.63206C4.54993 5.10633 22.7366 5.44655 28.802 5.64873C43.0784 6.12461 57.3296 6.65574 71.6165 6.34897C74.2736 6.29191 78.1212 6.61365 80.8363 5.91549C82.2444 5.55341 77.9528 5.51854 76.5015 5.43199C62.8024 4.61507 49.111 4.18945 35.3876 4.13155C24.851 4.08709 14.184 4.60589 3.66015 3.94815C0.581931 3.75576 2.42187 3.22785 4.07696 3.08119C8.80091 2.66262 13.6185 2.94916 18.3485 3.06452C22.2439 3.15953 26.6379 3.76217 30.4526 2.91447" stroke="black" stroke-width="3" stroke-linecap="round"/>
              </svg>