<svg width="45" height="53" viewBox="0 0 45 53" fill="none" xmlns="http://www.w3.org/2000/svg">
<path d="M1 10.3545C10.6564 10.3545 20.3053 10.2309 29.9604 10.1317C32.358 10.107 39.5421 10.032 37.1527 10.23C34.0255 10.4891 30.7635 10.0604 27.6465 9.90876C21.686 9.61876 15.7215 9.53705 9.75471 9.52853C8.28462 9.52644 6.81449 9.52853 5.34439 9.52853C4.9337 9.52853 4.8555 9.53298 5.15981 9.52198C5.64839 9.50431 6.26098 9.48193 6.72221 9.46953C12.4954 9.31437 18.274 9.56384 24.047 9.62031C28.6823 9.66565 33.3373 9.49952 37.9702 9.65309C38.0452 9.65558 38.1371 9.62458 38.1943 9.67276C38.3433 9.79806 37.8198 9.78493 37.6274 9.81698C36.4643 10.0108 35.2913 10.0717 34.1136 10.0989C27.5193 10.2508 20.9253 9.92799 14.343 9.58098C10.5803 9.38261 -0.711146 8.95164 3.05683 8.95164C9.131 8.95164 15.2181 9.37568 21.2914 9.50231C28.1997 9.64635 35.1086 9.64653 42.0179 9.64653C42.4289 9.64653 42.8398 9.64653 43.2507 9.64653C43.4287 9.64653 43.6067 9.64653 43.7847 9.64653C43.8682 9.64653 43.6177 9.64653 43.5342 9.64653C40.9478 9.64653 38.3614 9.64653 35.7749 9.64653C28.0816 9.64653 20.3882 9.63573 12.6949 9.64653C11.2677 9.64854 9.82948 9.62211 8.40327 9.70554C8.32066 9.71037 8.0766 9.75143 8.15935 9.75143C8.57715 9.75143 8.99433 9.71911 9.41191 9.70554C19.355 9.38241 29.3407 9.64653 39.2887 9.64653C39.4601 9.64653 39.6315 9.64653 39.8029 9.64653C39.9523 9.64653 39.504 9.64653 39.3546 9.64653C36.9151 9.64653 34.4759 9.6265 32.037 9.56787C23.3941 9.36008 14.7596 8.90372 6.11571 8.70252C5.43011 8.68656 4.7445 8.67114 4.05888 8.65663C3.71169 8.64928 3.36452 8.63367 3.01728 8.63696C2.90048 8.63807 3.25004 8.65708 3.36667 8.66319C5.63122 8.78171 7.89812 8.86307 10.1634 8.96475C19.228 9.3716 28.2831 9.88874 37.3571 10.0464C39.3706 10.0814 41.389 10.0672 43.4023 10.1185C46.3724 10.1943 37.4603 10.1222 34.4894 10.1448C26.3311 10.2066 18.1617 10.2308 10.0052 10.4201C9.15093 10.4399 6.63523 10.3262 7.44737 10.5905C8.33718 10.8801 9.87116 10.7427 10.7238 10.7676C18.1123 10.9829 25.5185 11.022 32.9072 10.8003C34.8749 10.7413 36.8464 10.6653 38.8074 10.4857C40.4437 10.3358 39.0935 10.3551 38.491 10.348C31.6914 10.2675 24.8986 9.83914 18.1007 9.67276C15.1324 9.60011 12.1635 9.55477 9.19436 9.53509C8.33514 9.52939 5.77502 9.38306 6.61673 9.55476C7.54454 9.74401 8.77864 9.63459 9.6822 9.64653C13.945 9.70287 18.2083 9.74392 22.4715 9.75798C26.2928 9.77058 30.1143 9.76454 33.9357 9.76454C35.6409 9.76454 37.3461 9.7581 39.0514 9.76454C39.4733 9.76613 39.8954 9.76522 40.3171 9.77765C40.4889 9.78271 40.7008 9.70573 40.8313 9.81698C40.9285 9.89982 40.5825 9.87972 40.4555 9.89565C39.5082 10.0145 38.2504 10.0727 37.3637 10.112C32.635 10.3216 27.8961 10.3549 23.1637 10.407C17.1065 10.4737 11.0394 10.5533 4.98181 10.466C4.77956 10.4631 4.57667 10.4654 4.37531 10.4463C4.31962 10.4411 4.43919 10.3396 4.49397 10.3283C5.98363 10.0223 7.58567 10.0496 9.09547 10.0268C15.7114 9.92657 22.3352 10.1126 28.9518 10.1185C32.9973 10.1222 45.1339 10.1185 41.0884 10.1185C36.199 10.1185 31.3097 10.1185 26.4203 10.1185C18.6847 10.1185 10.9027 9.88501 3.17549 10.3283C2.76727 10.3517 1.547 10.4594 1.9559 10.4594C3.54618 10.4594 5.14683 10.3458 6.73539 10.289C12.4342 10.0853 18.1361 9.8686 23.8229 9.43675C24.7747 9.36448 25.7745 9.32746 26.7236 9.18764C27.1496 9.12487 25.8622 9.17164 25.4315 9.17453C22.7114 9.19274 19.9956 9.3596 17.2964 9.69898C15.7757 9.89019 14.2746 9.96802 12.7345 9.82354C12.349 9.78737 12.0457 9.84316 12.2994 9.43675C12.9696 8.36295 13.5798 7.26119 14.2244 6.17204C14.6058 5.52757 15.0085 4.89818 15.4374 4.28401C15.4904 4.20802 15.7904 3.77475 15.9054 3.65466C16.0424 3.51165 15.9959 3.67638 15.9779 3.78578C15.7298 5.30158 15.2415 6.83784 14.7649 8.29607C14.5851 8.84622 14.3302 9.82639 14.4617 8.61074C14.6611 6.76797 14.7677 4.92286 14.9363 3.07776C15.0948 1.34493 14.8752 3.55377 14.8045 4.03489C14.5135 6.01451 13.9966 7.9732 13.8222 9.96776C13.7315 11.0058 13.9214 7.88577 14.0068 6.84727C14.0891 5.84698 14.2057 4.85283 14.3826 3.86444C14.4609 3.42706 14.6014 2.15673 14.7386 2.57954C14.8573 2.94568 14.7574 3.64892 14.732 3.98245C14.6211 5.43779 14.3027 6.85709 13.9475 8.26985C13.9089 8.42318 13.1596 11.4314 13.3937 9.93498C13.8183 7.22074 15.2422 3.26033 18.2194 2.3632C19.9812 1.8323 22.2987 2.43986 24.0602 2.6582C24.9826 2.77253 25.9334 2.85535 26.8356 3.09088C27.8306 3.35061 26.6128 3.38171 26.4071 3.38588C23.4143 3.44662 20.4344 3.03782 17.4546 2.82865C16.5117 2.76246 15.2022 2.88979 14.2639 2.63198C13.4173 2.39936 15.9755 2.21994 16.8481 2.12064C20.6359 1.68958 24.3687 2.01967 28.1343 2.48776C28.5211 2.53583 28.9081 2.58185 29.2946 2.63198C29.5776 2.66869 30.4064 2.6785 30.1384 2.7762C29.7752 2.90864 29.365 2.80112 28.9782 2.80243C28.1168 2.80533 27.2553 2.80425 26.3939 2.80243C23.2752 2.79584 20.1362 2.59646 17.0195 2.71065C16.8939 2.71525 16.7681 2.7247 16.6438 2.74343C16.573 2.75408 16.7832 2.78509 16.8547 2.78276C18.1605 2.74019 19.4694 2.55527 20.7706 2.44842C23.429 2.23015 26.1172 2.02512 28.787 2.10097C30.4015 2.14684 25.5451 2.26073 23.9416 2.06819C23.7158 2.04109 21.6489 1.67461 21.8056 1.64863C23.3523 1.39228 25.008 1.69553 26.5192 1.99608C27.1815 2.1278 30.7217 2.46143 30.178 3.77266C29.8284 4.61558 29.0724 5.15963 29.0243 6.13926C29.0221 6.18506 29.1232 6.89556 29.1232 6.6506C29.1232 5.60077 28.9452 4.54537 29.0573 3.49733C29.0804 3.28157 29.1079 2.82766 29.2485 2.63198C29.4874 2.29933 29.7094 3.32007 29.8418 3.70711C30.2892 5.01583 30.7845 6.58169 30.7845 7.9814C30.7845 8.73669 30.4777 6.49431 30.4549 5.73936C30.4312 4.95686 30.4681 4.17498 30.6197 3.40555C30.6845 3.0766 30.9872 2.18367 31.0746 2.50742C31.5591 4.30335 31.2975 6.63427 31.0218 8.44029C30.9762 8.7393 30.8279 9.5245 30.6592 9.27286C30.2569 8.67275 30.197 7.62092 30.0857 6.93249C29.9275 5.95366 29.6749 4.72223 29.8418 3.72678C29.8788 3.50601 29.9296 4.16639 29.9538 4.3889C30.1017 5.74645 30.121 7.11692 30.1912 8.47963C30.2209 9.05723 30.2569 9.63387 30.3032 10.2103C30.3181 10.3954 30.1704 9.42884 30.1648 9.40398C29.798 7.7624 29.1936 6.18626 28.7277 4.57246C28.5322 3.89539 28.9757 4.96567 29.0836 5.12313C29.6494 5.94876 30.2416 6.75812 30.8109 7.5815C31.2768 8.25551 30.2835 6.02982 29.9538 5.28047C29.4546 4.14563 29.1198 3.0646 29.0045 1.83219C28.921 0.939335 27.4442 1.56064 26.8818 1.62241C22.9682 2.05218 19.0001 2.00248 15.0682 2.06819C14.0141 2.08581 12.9577 2.07145 11.9038 2.10097C11.8142 2.10348 11.552 2.13719 11.6401 2.15342C11.9214 2.20521 12.4367 2.19615 12.6554 2.19275C15.8248 2.1435 18.9632 1.59619 22.1353 1.53063C24.4799 1.48217 26.8847 1.5636 29.2023 1.95019C29.3894 1.9814 29.8387 2.0813 29.3012 2.0813C28.0727 2.0813 26.8358 1.9677 25.6094 1.91086C22.4536 1.76458 12.9769 1.62241 16.1362 1.62241C18.9313 1.62241 21.7265 1.62241 24.5217 1.62241C26.3303 1.62241 31.7391 1.4434 29.9473 1.68797C27.2731 2.05297 24.4315 1.7635 21.7529 1.59619C20.8686 1.54095 19.9345 1.52894 19.0566 1.38641C18.7778 1.34113 20.5875 1.11163 20.6981 1.10451C21.6724 1.04178 22.6492 1.03616 23.6251 1.0324C24.1306 1.03045 25.6339 0.945591 25.1414 1.05862C23.8022 1.36593 22.3363 1.36527 20.975 1.50441C19.733 1.63135 18.4921 1.76353 17.2635 1.98953C16.4112 2.14629 14.9133 2.29357 14.3892 3.13021C14.1107 3.57479 14.2686 4.09794 14.4353 4.54623C14.4819 4.67156 14.8519 5.71314 15.0682 5.71314C15.2043 5.71314 15.9582 3.44556 16.0439 3.20888C16.3653 2.32106 16.095 3.15 15.9648 3.55633C15.2635 5.74468 14.1765 7.79148 13.2355 9.88254C13.1518 10.0685 12.9035 10.5831 12.8795 10.3808C12.8234 9.90669 12.8705 9.39756 12.9257 8.92541C13.0061 8.23755 13.0112 8.78951 12.8136 9.05653C11.8313 10.3839 9.27793 10.0147 7.89566 10.702C7.41825 10.9394 6.83426 11.0303 6.8145 11.6395C6.75651 13.4272 6.8145 15.2267 6.8145 17.0151C6.8145 18.1798 6.87288 21.6722 6.80791 20.5093C6.7115 18.7836 6.51056 17.0761 6.19481 15.3762C6.02179 14.4447 5.82961 13.5178 5.71357 12.5769C5.6685 12.2114 5.62787 11.1073 5.62787 11.4756C5.62787 14.1638 5.52417 16.8259 5.29825 19.5062C5.0791 22.1062 7.04763 24.7239 6.43302 27.2681C6.39952 27.4068 6.36335 27.5449 6.32095 27.6812C6.25103 27.9058 6.24664 27.8311 6.25502 27.6353C6.30362 26.4996 6.53344 25.3445 6.74945 24.2329C7.44087 20.6747 6.3427 17.2024 7.39463 13.7373C7.48851 13.428 7.73244 12.5098 7.74403 12.8326C7.80294 14.4729 7.57779 16.1491 7.46715 17.7821C7.21605 21.4882 7.17049 25.1939 7.17049 28.9071C7.17049 29.4971 7.17049 30.0871 7.17049 30.6771C7.17049 31.2933 7.17049 29.4446 7.17049 28.8284C7.17049 25.0691 7.07071 21.3272 6.88702 17.5723C6.87045 17.2337 6.85518 16.895 6.84087 16.5562C6.83035 16.3071 7.01503 15.6593 6.8145 15.8089C6.59199 15.9748 6.76554 16.3599 6.73539 16.6349C6.58802 17.9791 6.58731 17.8494 6.40577 19.362C5.88138 23.7313 5.64532 28.0872 5.62787 32.4864C5.62354 33.5768 5.62787 34.6673 5.62787 35.7577C5.62787 36.0246 5.62787 36.6352 5.62787 35.9085C5.62787 32.9261 5.78342 29.9479 5.83882 26.9666C5.87185 25.1896 5.74346 19.8766 5.99045 21.6368C6.32487 24.0201 6.22795 26.47 6.35962 28.8677C6.53408 32.0445 6.91481 35.2017 7.14412 38.3734C7.24911 39.8256 7.49227 37.503 7.52648 37.2327C7.95114 33.8779 6.12593 30.4923 6.19394 27.1108C6.21085 26.2701 6.24171 25.4083 6.18075 24.5672C6.17665 24.5105 6.12451 24.077 6.08846 24.4623C5.74975 28.0832 7.84544 31.7644 7.79018 35.3972C7.75846 37.4821 7.73554 43.7348 7.65174 41.6513C7.57689 39.7905 7.76381 37.9151 7.76381 36.0527C7.76381 33.502 7.73654 30.9195 7.44737 28.3826C7.31775 27.2455 7.10637 26.1256 6.84087 25.013C6.70638 24.4494 6.54923 23.6433 6.59036 24.8294C6.74709 29.3494 6.88571 33.888 7.19686 38.3997C7.30251 39.9316 7.47273 41.4547 7.62537 42.9821C7.69524 43.6812 7.88218 44.5959 7.70448 45.3028C7.46725 46.2464 7.65093 43.3581 7.63855 42.3855C7.6118 40.2839 7.61093 38.1654 7.52648 36.0658C7.42678 33.5873 7.1681 41.0195 7.19027 43.5C7.20086 44.6851 7.25826 45.8638 7.40782 47.04C7.45952 47.4467 7.46633 48.3738 7.73744 48.7445C8.31063 49.5282 7.24969 46.8617 6.88042 45.9649C6.1884 44.2842 7.5283 42.7045 7.07248 40.9367C6.96276 40.5112 6.86813 40.0779 6.73627 39.6583C6.72027 39.6074 6.64308 39.4739 6.64397 39.5272C6.64715 39.7167 6.75207 40.4558 6.76264 40.5237C7.22416 43.4892 5.80515 46.5546 7.57263 49.0395C7.97568 49.6061 8.42551 50.1342 8.93726 50.6063C9.02948 50.6914 9.28736 50.9011 9.27347 50.7767C9.1688 49.84 8.19679 48.7556 7.72425 47.984C7.49388 47.6078 7.2873 47.204 7.03205 46.8433C6.83335 46.5626 7.53117 47.7812 7.54626 47.8005C8.64113 49.198 10.2369 50.238 11.9698 50.6587C12.2643 50.7303 12.3366 50.6417 12.128 50.4227C11.3174 49.5719 9.75862 49.2447 8.69334 48.8363C8.93726 45.565 7.51927 48.3774 7.81655 48.4823C8.74788 48.8109 9.64667 49.2014 10.5985 49.4787C13.3206 50.2717 16.3844 50.921 19.2346 50.921C20.6582 50.921 16.4514 50.2914 15.0352 50.1474C14.1338 50.0557 13.2313 50.0153 12.3258 50.0032C12.2159 50.0017 11.8863 50.001 11.9961 50.0032C12.4794 50.0128 12.3241 50.0072 12.9323 50.0294C17.1048 50.1817 29.6289 49.9599 25.4578 50.1474C22.6403 50.274 19.8241 50.2144 17.0064 50.1212C15.9383 50.0858 14.8651 50.0163 13.7959 50.0163C13.3868 50.0163 13.8435 50.0632 13.9475 50.0753C14.5652 50.1471 15.244 50.2003 15.8527 50.2457C20.8052 50.6157 25.7731 50.7815 30.7317 51.0521C31.9305 51.1175 33.1902 51.2702 34.3971 51.2487C35.8491 51.223 31.5123 50.9125 30.0725 50.7243C25.0345 50.0659 20.0047 49.3413 14.9232 49.1116C14.5828 49.0962 14.2421 49.0854 13.9013 49.0854C13.1651 49.0854 14.198 49.1968 14.198 49.1968C16.5105 49.4935 18.8459 49.6355 21.1728 49.7606C26.1161 50.0263 31.0803 50.2392 36.032 50.2392C39.0852 50.2392 29.9364 49.8778 26.8884 49.7016C24.1357 49.5425 21.3832 49.3691 18.6281 49.2558C17.7075 49.218 16.1845 49.3867 15.233 49.164C14.5178 48.9967 16.6948 49.0092 17.4283 48.9674C20.2588 48.806 23.0981 48.7652 25.9325 48.7314C28.1518 48.7049 30.3713 48.7051 32.5908 48.7051C33.5514 48.7051 36.3862 48.4849 35.4717 48.7773C34.7265 49.0154 33.7264 48.9999 32.9732 49.0592C30.4631 49.2566 27.9454 49.3722 25.4446 49.6754C24.6165 49.7758 23.5712 49.8486 22.7681 50.1539C22.4601 50.2711 23.4279 50.2086 23.757 50.1867C27.3256 49.9493 30.8753 49.4564 34.4433 49.1903C35.4606 49.1144 36.4783 49.0446 37.4956 48.9674C38.0623 48.9243 37.6114 48.9656 37.3901 49.046C36.3064 49.4398 35.131 50.1347 34.2323 50.8554C33.7787 51.2192 35.2697 50.2446 35.3794 50.1539C36.2169 49.4619 38.641 47.3095 37.9438 48.1414C37.4081 48.7806 36.834 49.363 36.3485 50.0622C36.292 50.1435 36.1729 50.398 36.2562 50.3441C36.8708 49.9455 37.3779 49.2677 37.8384 48.7183C38.8231 47.5431 39.8367 46.3041 40.5281 44.9291C41.1061 43.7794 39.4991 47.2919 38.8734 48.4167C38.6258 48.8617 38.346 49.2929 38.1284 49.7541C38.0547 49.9103 38.0125 50.2101 38.0229 49.8458C38.0575 48.644 38.5011 47.5205 38.8931 46.3976C38.9958 46.1036 39.2972 44.819 39.1305 45.919C39.0218 46.636 38.8885 47.3488 38.7613 48.0627C38.6811 48.5127 38.6075 48.9638 38.524 49.4132C38.4943 49.5726 38.534 49.9847 38.4053 49.8852C38.0843 49.6369 38.4221 49.0765 38.4383 48.6724C38.5021 47.0735 38.4976 45.4735 38.4976 43.8736C38.4976 42.4156 38.5937 38.0431 38.6163 39.501C38.6563 42.0903 38.2682 49.8251 38.6888 47.2695C39.08 44.8921 39.2895 42.4961 39.4205 40.091C39.5734 37.2846 39.7864 34.3091 39.2821 31.5228C39.0423 30.1979 39.3084 34.215 39.3216 35.5611C39.3494 38.3734 39.5402 41.3011 39.0909 44.09C39.0315 44.4586 38.7433 46.1099 38.7349 44.7849C38.7162 41.8023 38.7349 38.819 38.7349 35.8364C38.7349 32.6816 38.6933 29.5237 38.7943 26.37C38.8037 26.075 38.8157 25.78 38.8272 25.485C38.8354 25.2752 38.6424 24.8557 38.8536 24.8557C39.0645 24.8557 38.8526 25.2752 38.8536 25.485C38.8574 26.3035 38.864 26.938 38.88 27.7795C38.9718 32.6303 39.2225 37.4637 39.493 42.3068C39.5504 43.3338 39.5963 44.3613 39.6579 45.388C39.6933 45.9787 39.6817 45.6867 39.7106 45.3618C39.8995 43.2391 40.1179 41.1396 40.1061 39.0028C40.0823 34.6583 39.3206 30.4369 38.702 26.1537C38.571 25.2472 38.4634 24.3406 38.4053 23.4265C38.3512 22.5755 38.3789 22.8961 38.3789 23.5576C38.3789 27.0771 38.3338 30.5809 37.8977 34.0795C37.67 35.9056 38.329 37.6706 37.744 39.4158C37.7013 39.5433 37.6521 39.668 37.6254 39.4354C37.5243 38.5559 37.599 37.6293 37.599 36.7476C37.599 29.6704 36.7683 22.6303 36.7683 15.5597C36.7683 15.4199 36.7687 15.2799 36.7749 15.1402C36.7866 14.8795 36.8044 14.9379 36.8343 15.1795C36.9271 15.9313 36.955 16.6926 37.0057 17.4478C37.1656 19.8337 37.4666 22.1621 37.889 24.5148C38.1903 26.1924 37.4232 27.8854 37.6406 29.5757C37.7626 30.5244 37.8557 28.9456 37.8647 28.8546C38.5079 22.3427 39.3949 16.5716 38.313 10.0565C38.301 9.98421 38.2872 9.91219 38.2735 9.84019C38.2465 9.69923 38.2637 9.83853 38.2735 9.94508C38.401 11.34 38.5904 11.7294 38.7481 13.121C39.2946 17.9438 39.8443 22.8289 39.8688 27.6877C39.8739 28.6904 39.8646 31.6767 39.6842 30.6902C39.3735 28.9908 39.4533 27.151 39.3151 25.4326C38.9893 21.3827 38.3135 17.3533 38.168 13.2915C38.1437 12.6128 38.1416 11.9319 38.1416 11.2527C38.1416 10.7235 38.0972 12.3102 38.0823 12.8391C37.964 17.0253 38.1443 21.2052 38.6756 25.3604C38.8408 26.6522 39.0573 27.9342 39.2491 29.2217C39.3749 30.0657 39.254 29.4943 39.1832 29.13C38.5938 26.0983 37.9643 23.0745 37.3703 20.0438C37.0107 18.209 37.6539 16.3696 37.4408 14.5108C37.3194 13.452 36.1463 12.2159 36.388 11.1543C36.4976 10.6731 36.6217 11.1242 36.6451 11.3051C36.7605 12.1975 36.7155 13.1304 36.7177 14.0257C36.7273 18.0911 37.6222 22.1435 37.4935 26.2061C37.4364 28.0102 37.4912 25.9977 37.5331 25.4719C37.7918 22.222 37.1686 18.9517 37.667 15.7302C37.9096 14.162 38.0039 12.2178 38.6031 10.7282C38.7514 10.3596 38.7011 11.5178 38.7086 11.9148C38.7592 14.6243 38.6106 17.3391 38.4712 20.0438C38.0765 27.702 38.6665 35.3482 37.744 42.9624C37.6526 43.7173 37.5962 43.1768 37.599 42.7133C37.6127 40.4692 36.8574 38.2144 37.4758 36.0527C37.5776 35.6967 37.7717 34.6622 37.8779 35.0169C38.1542 35.9395 37.9792 37.2725 37.9966 38.2161C38.0588 41.6017 37.9525 45.0027 37.6735 48.3774C37.4403 51.1993 37.8174 49.2348 37.1 48.5478C36.9138 48.3695 35.4978 49.7125 35.3332 49.8262C33.9971 50.7484 32.577 50.5409 31.0482 51.101C30.1571 51.4274 29.2704 51.6138 28.3189 51.5992C26.0191 51.564 23.6577 52.0654 21.3837 51.7601C18.3598 51.3541 15.1327 51.1905 12.2598 50.0818C11.2654 49.6981 11.2613 49.4667 11.8115 48.7314M11.8115 48.7314C12.0496 48.4133 11.9727 49.1721 11.8115 48.7314ZM11.8115 48.7314C11.8062 48.7167 10.9341 48.2109 10.7831 48.3249C10.3108 48.6817 9.97864 49.0928 9.35258 49.0526C8.53366 49.0001 7.85908 48.5422 7.46056 47.8267C6.79483 46.6314 6.66821 45.062 6.45851 43.736C6.1763 41.9514 5.5105 39.9876 5.71357 38.1702C5.74054 37.9288 6.2936 35.7629 6.28711 36.9181C6.27541 39.0012 5.92168 41.0732 5.81246 43.1525C5.77025 43.9559 5.79758 46.3675 5.73994 45.565C5.60358 43.6667 5.56885 41.7575 5.53557 39.855C5.47826 36.578 5.5092 33.2989 5.5092 30.0215C5.5092 29.0168 5.43043 29.4544 5.15321 30.0609" stroke="black" stroke-width="2" stroke-linecap="round"/>
<path d="M14.4283 16.0498C15.0069 22.4161 14.9904 28.8708 15.5818 35.2301C15.6896 36.3893 15.682 37.7285 15.8762 38.8595C15.9139 39.0791 15.8887 38.4032 15.8964 38.1752C15.9371 36.9629 15.9928 35.7522 16.0254 34.5391C16.103 31.6539 15.9772 28.8058 15.9125 25.9251C15.88 24.4785 15.8802 23.0317 15.8802 21.5845C15.8802 20.6813 15.9624 19.6202 15.8722 18.7199C15.836 18.3593 15.7438 19.4207 15.7028 19.7799C15.5436 21.1755 15.4171 22.5804 15.2954 23.9862C14.8975 28.5851 14.5264 33.1912 14.1702 37.7995C14.0886 38.8554 13.9908 42.0241 13.9202 40.966C13.8322 39.6484 14.0538 38.1504 14.146 36.8536C14.3877 33.4546 14.66 30.0736 14.7429 26.6496C14.7833 24.9843 14.8017 23.3108 14.759 21.6449C14.7516 21.3532 14.7702 18.5359 14.4606 18.3844C14.4179 18.3636 14.4126 18.513 14.4041 18.5857C14.355 19.0095 14.3681 19.7648 14.3759 20.1287C14.4103 21.7407 14.5423 23.3369 14.6784 24.9322C15.0697 29.5192 15.5739 34.1809 15.243 38.826C15.1628 39.9522 15.0123 41.04 14.8074 42.1199C14.7302 42.527 14.606 43.6633 14.388 43.9716C14.2598 44.1529 14.3559 43.4129 14.3598 43.133C14.3767 41.8951 14.4317 40.6601 14.4606 39.423C14.5327 36.3378 14.5298 33.2312 14.4888 30.1449C14.4388 26.3689 14.1768 22.6132 14.0815 18.8406C14.069 18.346 14.0654 16.9705 14.0654 18.3979C14.0654 22.735 14.1569 27.0537 14.2791 31.386C14.3707 34.6326 14.4305 37.8813 14.5332 41.1271C14.5402 41.3485 14.5548 43.9107 14.6784 42.4285C15.197 36.2086 15.4808 29.8956 15.5132 23.6173C15.5236 21.6097 15.6025 19.5369 15.5132 17.5324C15.4101 15.2172 15.252 22.1569 15.1866 24.476C15.0692 28.6333 15.0689 32.795 15.1382 36.9542C15.1505 37.6942 15.114 39.9114 15.1583 39.1748C15.3751 35.5686 15.3662 31.9192 15.3721 28.3C15.3751 26.4316 15.4447 24.5656 15.4447 22.6982C15.4447 22.6422 15.1459 23.4745 15.0817 23.6575" stroke="black" stroke-width="2" stroke-linecap="round"/>
<path d="M22.2165 20.0697C22.2165 16.9102 22.1718 26.3884 22.1455 29.5476C22.124 32.1378 22.1216 34.7376 22.0391 37.3254C21.9865 38.976 22.0206 37.3861 22.0431 36.738C22.2456 30.8831 22.1455 25.0507 22.1455 19.1918C22.1455 18.8573 22.1771 15.6677 22.1061 17.7512C21.979 21.4822 21.7997 25.2062 21.6568 28.9356C21.5188 32.5366 21.3958 36.1472 21.3691 39.7551C21.3639 40.4476 21.3291 42.5221 21.3691 41.8325C21.4413 40.5855 21.6286 39.3494 21.7238 38.1044C21.9957 34.5505 22.2785 30.9908 22.449 27.4208C22.5554 25.1933 22.7391 22.7161 22.5358 20.4839C22.3788 18.7606 22.4216 23.9616 22.3978 25.7021C22.3416 29.8174 22.4265 33.9437 22.2835 38.0549C22.2445 39.1772 22.0825 42.5361 22.0825 41.4121C22.0825 40.3905 22.2241 39.339 22.2717 38.3208C22.4277 34.9828 22.592 31.6401 22.6264 28.2926C22.6568 25.3414 22.6618 22.351 22.4451 19.4143C22.4335 19.2571 22.4193 19.1003 22.4017 18.9445C22.3685 18.6491 22.3662 18.8124 22.3702 19.0063C22.3913 20.0334 22.4493 21.0573 22.4688 22.0852C22.5969 28.8615 22.5712 35.6474 22.5712 42.426C22.5712 44.5327 22.5541 38.2078 22.6579 36.1074C22.8056 33.1232 23.0491 30.1555 23.2492 27.1797C23.354 25.621 23.537 20.9274 23.4936 22.4933C23.436 24.5692 23.2831 26.6339 23.2413 28.713C23.1801 31.7588 23.2382 34.8065 23.1388 37.8509C23.1093 38.7554 22.9969 41.4646 22.9969 40.5589C22.9969 39.7652 23.0679 38.97 23.0679 38.1724C23.0679 34.4546 22.6352 30.981 22.0036 27.4146" stroke="black" stroke-width="2" stroke-linecap="round"/>
<path d="M29.5266 17.0384C29.5557 20.7006 29.6386 24.3524 29.5723 28.0169C29.4965 32.2078 29.2796 36.3848 29.2796 40.5783C29.2796 42.287 29.4407 37.1649 29.4305 35.4562C29.3989 30.1426 29.0534 24.8345 28.9685 19.5203C28.9533 18.5706 28.9502 17.621 28.9502 16.6712C28.9502 15.8861 28.9502 18.2413 28.9502 19.0264C28.9502 25.0461 29.1062 31.0166 29.4305 37.0201C29.4798 37.9312 29.5266 38.8412 29.5266 39.7552C29.5266 40.0685 29.5444 38.7079 29.5449 38.6915C29.6918 33.5861 29.7733 28.4705 30.0664 23.376C30.1981 21.0864 30.5589 14.217 30.5102 16.5129C30.3827 22.5125 30.0293 28.4949 29.9566 34.5002C29.9397 35.8972 29.9383 37.2943 29.9383 38.6915C29.9383 39.1057 29.9365 38.8926 29.9383 38.6535C29.9609 35.7455 30.1838 32.8248 30.3546 29.929C30.4715 27.9476 30.5968 25.9665 30.7526 23.9902C30.7818 23.6199 30.8989 21.7829 31.0042 23.471C31.1416 25.6737 31.0911 27.9047 31.0911 30.1126C31.0911 33.1816 31.1497 36.2808 30.9082 39.3373C30.8462 40.1217 30.7833 41.0501 30.533 41.7812C30.4111 42.1374 30.4052 41.0096 30.3866 40.6162C30.3113 39.022 30.2305 37.4302 30.103 35.8424" stroke="black" stroke-width="2" stroke-linecap="round"/>
</svg>
